<?xml version="1.0" encoding="utf-8"?>
<!-- Generator: Adobe Illustrator 21.0.2, SVG Export Plug-In . SVG Version: 6.00 Build 0)  -->
<svg version="1.1" id="news_main_title.svg" xmlns="http://www.w3.org/2000/svg" xmlns:xlink="http://www.w3.org/1999/xlink"
	 x="0px" y="0px" viewBox="0 0 242.3 41.3" style="enable-background:new 0 0 242.3 41.3;" xml:space="preserve">
<path id="News_Event" d="M0,40.9h4.8V13.2l11.7,27.6H20V0.4h-4.7v26.9L3.8,0.4H0V40.9z M34,41.3c2.8,0,4.9-0.8,6.2-2.4s2-3.9,2-6.9
	v-1.1h-5.2v1.8c0.1,1.2-0.1,2.4-0.6,3.6c-0.5,0.8-1.4,1.3-2.3,1.2c-1,0.1-1.9-0.4-2.5-1.2c-0.6-1.2-0.9-2.5-0.8-3.8v-5.8h11.4v-2.3
	c0.1-2.4-0.1-4.7-0.6-7.1c-0.3-1.6-1.1-3-2.3-4.1c-1.5-1.1-3.4-1.6-5.3-1.4c-3.2,0-5.4,0.9-6.7,2.8s-1.9,4.8-1.9,8.8v6.6
	c-0.1,2.2,0.2,4.4,0.8,6.5c0.4,1.5,1.3,2.9,2.6,3.8C30.3,40.9,32.1,41.4,34,41.3L34,41.3L34,41.3z M30.8,23.6v-1.6
	c0-1.3,0.1-2.7,0.2-4c0.1-0.7,0.4-1.4,0.9-2c0.6-0.4,1.3-0.7,2-0.6c1-0.1,2,0.4,2.4,1.3c0.5,1.4,0.7,2.8,0.6,4.2v2.6L30.8,23.6
	L30.8,23.6z M50.3,40.9h4.8L59,20.5l4,20.4h4.5L72.3,12h-4.4l-3,21.2L61,12H57l-3.8,21.3l-3-21.3h-4.4L50.3,40.9z M83.1,41.3
	c2.1,0.1,4.2-0.6,5.8-1.9c1.5-1.4,2.3-3.4,2.2-5.5c0-1.5-0.3-3-1.1-4.2c-0.8-1.3-1.9-2.5-3-3.6l-5.1-4.7c-0.9-0.7-1.4-1.8-1.5-2.9
	c0-0.8,0.3-1.5,0.8-2.1c1.1-1.1,3-1.1,4.1,0c0.1,0.1,0.2,0.3,0.3,0.4c0.6,1.2,1,2.4,1.2,3.7l3.6-1.4c-0.1-2-0.9-3.9-2.2-5.5
	c-1.3-1.4-3.2-2.2-5.2-2.1c-2-0.1-3.9,0.6-5.5,1.9c-1.4,1.4-2.1,3.3-2,5.2c0,1.4,0.3,2.8,0.9,4c0.7,1.2,1.6,2.2,2.6,3.1l5,4.2
	c0.7,0.6,1.3,1.3,1.8,2.1c0.4,0.7,0.6,1.5,0.5,2.2c0,0.8-0.2,1.6-0.8,2.2c-0.6,0.6-1.4,0.9-2.2,0.8c-1.1,0.1-2.1-0.5-2.8-1.4
	c-0.8-1.3-1.2-2.7-1.4-4.1l-4.5,1.4c0.1,2.2,1,4.3,2.5,5.9C78.9,40.6,81,41.3,83.1,41.3L83.1,41.3L83.1,41.3z M115.5,41.3
	c1.7,0,3.5-0.3,5-1.1c1.4-0.7,2.7-1.7,3.7-2.9c1,1,1.7,1.7,2.2,2.1c0.6,0.5,1.2,0.9,1.8,1.2c0.8,0.4,1.6,0.6,2.5,0.6h0.7v-5.5
	c-0.8,0-1.5-0.2-2.2-0.6c-0.7-0.4-1.3-0.9-1.8-1.5c1.1-1.7,2.1-3.5,2.7-5.4c0.7-1.9,1.1-4,1.2-6H126c-0.2,2.8-0.9,5.5-2,8.1
	l-6.1-9.6c2-1.9,3.9-4.1,5.4-6.4c1.4-2,2.2-4.4,2.2-6.8c0.1-2.1-0.8-4.1-2.4-5.5c-1.7-1.4-3.9-2.1-6.2-2c-2.4-0.1-4.7,0.8-6.3,2.4
	c-1.6,1.8-2.4,4.1-2.3,6.5c0,1.5,0.3,3.1,0.8,4.5c0.7,1.7,1.5,3.4,2.5,5l1.1,2.1c-1.7,1.5-3.2,3.3-4.3,5.3c-1.1,2-1.6,4.1-1.6,6.4
	c-0.1,2.4,0.7,4.8,2.3,6.6C110.7,40.5,113.1,41.4,115.5,41.3L115.5,41.3L115.5,41.3z M116,17.9c-0.7-1.5-1.3-3.1-1.8-4.7
	c-0.4-1.4-0.6-2.8-0.7-4.2c0-1.1,0.2-2.2,0.8-3.2c0.5-0.9,1.5-1.4,2.5-1.3c0.9,0,1.7,0.2,2.4,0.8c0.6,0.6,0.9,1.4,0.9,2.3
	c0,1.9-0.4,3.8-1.2,5.5C118.2,14.8,117.3,16.4,116,17.9L116,17.9L116,17.9z M115.5,36.9c-1,0.1-2.1-0.4-2.6-1.3
	c-0.6-1-0.8-2.2-0.8-3.3c0-1.4,0.2-2.9,0.7-4.2c0.4-1.3,1.1-2.5,1.9-3.6l6.2,9.6C119.7,35.7,117.7,36.8,115.5,36.9L115.5,36.9
	L115.5,36.9z M148.7,40.9h15.8v-4.1h-10.2V22h8.2v-4h-8.2V4.6h10V0.4h-15.7L148.7,40.9L148.7,40.9z M172.4,40.9h6.5l5.5-28.9h-5.2
	l-3.6,23.2L172.1,12h-5.4L172.4,40.9z M195.9,41.3c2.8,0,4.9-0.8,6.2-2.4s2-3.9,2-6.9v-1.1h-5.2v1.8c0.1,1.2-0.1,2.4-0.6,3.6
	c-0.5,0.8-1.4,1.3-2.3,1.2c-1,0.1-1.9-0.4-2.5-1.2c-0.6-1.2-0.9-2.5-0.8-3.8v-5.8h11.4v-2.3c0.1-2.4-0.1-4.7-0.6-7.1
	c-0.3-1.6-1.1-3-2.3-4.1c-1.5-1.1-3.4-1.6-5.3-1.4c-3.2,0-5.4,0.9-6.7,2.8s-1.9,4.8-1.9,8.8v6.6c-0.1,2.2,0.2,4.4,0.8,6.5
	c0.4,1.5,1.3,2.9,2.6,3.8C192.3,40.9,194.1,41.4,195.9,41.3L195.9,41.3L195.9,41.3z M192.7,23.6v-1.6c0-1.3,0.1-2.7,0.2-4
	c0.1-0.7,0.4-1.4,0.9-2c0.6-0.4,1.3-0.7,2-0.6c1-0.1,2,0.4,2.4,1.3c0.5,1.4,0.7,2.8,0.6,4.2v2.6L192.7,23.6L192.7,23.6z M208.9,40.9
	h5.3V17.6c1-1,2.3-1.6,3.8-1.8c0.7-0.1,1.4,0.2,1.8,0.8c0.4,0.8,0.6,1.6,0.5,2.4v21.9h5.3V17.5c0-1.5-0.3-2.9-1-4.2
	c-0.7-1.2-2-1.8-3.3-1.7c-2.4,0-4.7,1.1-7,3.2V12h-5.3V40.9z M238.6,41.3c1.2,0,2.5-0.1,3.7-0.3V37c-0.6,0.1-1.3,0.2-2,0.1
	c-0.8,0.1-1.5-0.2-2.1-0.7c-0.4-0.7-0.6-1.6-0.5-2.4V15.5h4.7V12h-4.7V3.5h-5.3V12h-3v3.6h3v18.8C232.3,39,234.4,41.3,238.6,41.3
	L238.6,41.3L238.6,41.3z"/>
</svg>
