<svg id="home_main_catch01.svg" xmlns="http://www.w3.org/2000/svg" width="716.966" height="69.719" viewBox="0 0 716.966 69.719">
  <defs>
    <style>
      .cls-1 {
        fill-rule: evenodd;
      }
    </style>
  </defs>
  <path id="Sensing_life._Thinking_future._のコピー" data-name="Sensing life. Thinking future. のコピー" class="cls-1" d="M356.631,390.134a13.539,13.539,0,0,0,9.8-3.64q3.78-3.639,3.78-9.87a17.291,17.291,0,0,0-2.205-8.75,28.547,28.547,0,0,0-5.915-7.14l-9.59-8.4a11.322,11.322,0,0,1-2.87-3.465,9.578,9.578,0,0,1-.84-4.235,6.228,6.228,0,0,1,1.61-4.655,6.335,6.335,0,0,1,4.62-1.575q4.059,0,5.635,2.695a17.9,17.9,0,0,1,1.925,7.665l6.72-1.82q-0.7-7.489-4.13-11.06t-10.15-3.57q-6.161,0-9.73,3.43t-3.57,9.66a17.4,17.4,0,0,0,1.3,7.105,15.9,15.9,0,0,0,4.165,5.425l9.52,8.4a24.949,24.949,0,0,1,4.69,5.11,10.631,10.631,0,0,1,1.47,5.81,7.042,7.042,0,0,1-1.575,4.935,6.007,6.007,0,0,1-4.655,1.715,6.177,6.177,0,0,1-5.915-3.36,21.843,21.843,0,0,1-2.135-8.82l-7,1.89q0.42,7.7,4.165,12.11t10.885,4.41h0Zm30.31-.07q5.949,0,8.68-3.36t2.73-9.73v-1.54h-7.28v2.45a11.451,11.451,0,0,1-.84,5,3.271,3.271,0,0,1-3.22,1.645,3.846,3.846,0,0,1-3.465-1.645q-1.086-1.644-1.085-5.355v-8.12h15.96v-3.29a48.34,48.34,0,0,0-.805-9.905,9.8,9.8,0,0,0-3.29-5.7q-2.486-2.029-7.385-2.03-6.72,0-9.345,3.885t-2.625,12.285v9.24a32.465,32.465,0,0,0,1.05,9.1,9.449,9.449,0,0,0,3.64,5.285q2.589,1.785,7.28,1.785h0Zm-4.48-24.71v-2.17a33.238,33.238,0,0,1,.35-5.565,4.726,4.726,0,0,1,1.3-2.765,4.039,4.039,0,0,1,2.765-.84q2.589,0,3.4,1.785a15.609,15.609,0,0,1,.805,5.915v3.64h-8.61ZM405.21,389.5h7.49v-32.62q3.009-2.52,5.25-2.52a2.735,2.735,0,0,1,2.52,1.12,6.618,6.618,0,0,1,.7,3.43V389.5h7.49v-32.76a11.431,11.431,0,0,0-1.4-5.88,5.006,5.006,0,0,0-4.69-2.38q-5.04,0-9.87,4.55v-3.99h-7.49V389.5Zm40.11,0.56q5.18,0,8.19-2.66t3.01-7.7a11.163,11.163,0,0,0-1.5-5.95,24.074,24.074,0,0,0-4.235-4.97l-7.14-6.58a5.373,5.373,0,0,1-2.03-4.06,4.2,4.2,0,0,1,1.085-2.94,4.092,4.092,0,0,1,6.265.595,13.64,13.64,0,0,1,1.61,5.215l5.04-1.89a12.992,12.992,0,0,0-3.045-7.665,9.162,9.162,0,0,0-7.245-2.975,10.709,10.709,0,0,0-7.63,2.625,9.538,9.538,0,0,0-2.8,7.315,11.082,11.082,0,0,0,1.3,5.565,16.342,16.342,0,0,0,3.675,4.305l6.93,5.95a10.594,10.594,0,0,1,2.52,2.87,6.434,6.434,0,0,1,.77,3.15A4.367,4.367,0,0,1,449,383.379a3.977,3.977,0,0,1-3.045,1.155,4.506,4.506,0,0,1-3.885-1.89,13.279,13.279,0,0,1-1.925-5.81l-6.23,1.89a12.78,12.78,0,0,0,3.465,8.26,10.676,10.676,0,0,0,7.945,3.08h0Zm17.289-47.04h7.49v-7.84h-7.49v7.84Zm0,46.48h7.49v-40.46h-7.49V389.5Zm15.539,0h7.49v-32.62q3.009-2.52,5.25-2.52a2.735,2.735,0,0,1,2.52,1.12,6.618,6.618,0,0,1,.7,3.43V389.5h7.49v-32.76a11.431,11.431,0,0,0-1.4-5.88,5.006,5.006,0,0,0-4.69-2.38q-5.04,0-9.87,4.55v-3.99h-7.49V389.5Zm41.23,12.53q14.07,0,14.07-10.08,0-4.55-2.31-7t-7.07-2.87l-6.3-.56a6.476,6.476,0,0,1-2.555-.6,1.37,1.37,0,0,1-.8-1.225,6.22,6.22,0,0,1,1.33-3.08,15.816,15.816,0,0,0,3.85.49q6.02,0,8.61-3.675t2.59-10.325a23.6,23.6,0,0,0-.385-3.92,18.982,18.982,0,0,0-.875-3.5,10.55,10.55,0,0,1,2.975-1.4,28.472,28.472,0,0,1,3.885-1.19l-1.89-4.83-1.12.49a15.659,15.659,0,0,0-3.4,2.135,10.421,10.421,0,0,0-2.065,2.065,7.21,7.21,0,0,0-3.08-3.36,10.825,10.825,0,0,0-5.25-1.12q-5.6,0-8.5,3.675T508.178,362.9a19.737,19.737,0,0,0,1.155,7.455,11.017,11.017,0,0,0,3.535,4.585,22.927,22.927,0,0,0-3.43,3.71,6.3,6.3,0,0,0-1.05,3.64,3.908,3.908,0,0,0,1.015,2.59,5.894,5.894,0,0,0,2.9,1.75,12.087,12.087,0,0,0-4.165,3.15,6.957,6.957,0,0,0-1.645,4.62,6.118,6.118,0,0,0,3.5,5.775,20.121,20.121,0,0,0,9.38,1.855h0Zm0.21-30.17a3.842,3.842,0,0,1-3.885-2.31,17.11,17.11,0,0,1-1.015-6.65,17.944,17.944,0,0,1,1.015-7.035,3.925,3.925,0,0,1,3.955-2.205q2.94,0,3.85,2.205a19.859,19.859,0,0,1,.91,7.035,18.673,18.673,0,0,1-.91,6.86q-0.911,2.1-3.92,2.1h0Zm0.35,24.29q-3.99,0-5.565-.875a2.94,2.94,0,0,1-1.575-2.765,4.227,4.227,0,0,1,.77-2.45,19.348,19.348,0,0,1,2.24-2.59l6.37,0.56a8.525,8.525,0,0,1,4.34,1.225,3.484,3.484,0,0,1,1.19,2.9,3.176,3.176,0,0,1-1.89,3.045,13.806,13.806,0,0,1-5.88.945h0Zm36.119-6.65h7.49V332.8h-7.49v56.7Zm15.819-46.48h7.49v-7.84h-7.49v7.84Zm0,46.48h7.49v-40.46h-7.49V389.5Zm17.92,0h7.49v-34.93h6.16v-5.53h-6.16v-3.36a8.994,8.994,0,0,1,.665-3.955,2.735,2.735,0,0,1,2.695-1.295,11.529,11.529,0,0,1,2.8.35v-5.46a24.987,24.987,0,0,0-4.9-.49,9.376,9.376,0,0,0-5.565,1.4,6.675,6.675,0,0,0-2.555,3.955,29.208,29.208,0,0,0-.63,6.755v2.1h-4.83v5.53h4.83V389.5Zm28.909,0.56q5.949,0,8.68-3.36t2.73-9.73v-1.54h-7.28v2.45a11.451,11.451,0,0,1-.84,5,3.271,3.271,0,0,1-3.22,1.645,3.846,3.846,0,0,1-3.465-1.645q-1.086-1.644-1.085-5.355v-8.12h15.96v-3.29a48.34,48.34,0,0,0-.8-9.905,9.8,9.8,0,0,0-3.29-5.7q-2.486-2.029-7.385-2.03-6.72,0-9.345,3.885t-2.625,12.285v9.24a32.465,32.465,0,0,0,1.05,9.1,9.449,9.449,0,0,0,3.64,5.285q2.589,1.785,7.28,1.785h0Zm-4.48-24.71v-2.17a33.238,33.238,0,0,1,.35-5.565,4.726,4.726,0,0,1,1.295-2.765,4.039,4.039,0,0,1,2.765-.84q2.589,0,3.395,1.785a15.609,15.609,0,0,1,.805,5.915v3.64h-8.61Zm22.4,24.15h7.49v-8.33h-7.49v8.33Zm36.4,0h7.91v-50.82h9.31V332.8h-26.81v5.88h9.59V389.5Zm22.26,0h7.49v-32.48q3.009-2.66,5.46-2.66a2.735,2.735,0,0,1,2.52,1.12,6.618,6.618,0,0,1,.7,3.43V389.5h7.49v-32.76a11.663,11.663,0,0,0-1.365-5.88,4.924,4.924,0,0,0-4.655-2.38q-5.111,0-10.15,4.76V332.8h-7.49v56.7Zm31.429-46.48h7.49v-7.84h-7.49v7.84Zm0,46.48h7.49v-40.46h-7.49V389.5Zm15.54,0h7.49v-32.62q3.009-2.52,5.25-2.52a2.735,2.735,0,0,1,2.52,1.12,6.618,6.618,0,0,1,.7,3.43V389.5h7.49v-32.76a11.431,11.431,0,0,0-1.4-5.88,5.006,5.006,0,0,0-4.69-2.38q-5.04,0-9.87,4.55v-3.99h-7.49V389.5Zm30.869-.07h7.49v-15.47l3.43-5.18,7.56,20.72h7.49l-9.24-24.64,9.52-15.82h-7.84l-10.92,17.5v-33.81h-7.49v56.7Zm30.379-46.41h7.49v-7.84H803.5v7.84Zm0,46.48h7.49v-40.46H803.5V389.5Zm15.54,0h7.49v-32.62q3.007-2.52,5.249-2.52a2.735,2.735,0,0,1,2.52,1.12,6.617,6.617,0,0,1,.7,3.43V389.5h7.489v-32.76a11.441,11.441,0,0,0-1.4-5.88,5.009,5.009,0,0,0-4.691-2.38q-5.038,0-9.869,4.55v-3.99h-7.49V389.5Zm41.229,12.53q14.07,0,14.07-10.08,0-4.55-2.31-7t-7.07-2.87l-6.3-.56a6.476,6.476,0,0,1-2.555-.6,1.37,1.37,0,0,1-.8-1.225,6.22,6.22,0,0,1,1.33-3.08,15.816,15.816,0,0,0,3.85.49q6.019,0,8.61-3.675t2.59-10.325a23.6,23.6,0,0,0-.385-3.92,18.982,18.982,0,0,0-.875-3.5,10.55,10.55,0,0,1,2.975-1.4,28.472,28.472,0,0,1,3.885-1.19l-1.89-4.83-1.12.49a15.659,15.659,0,0,0-3.395,2.135,10.421,10.421,0,0,0-2.065,2.065,7.21,7.21,0,0,0-3.08-3.36,10.825,10.825,0,0,0-5.25-1.12q-5.6,0-8.5,3.675t-2.9,10.745a19.737,19.737,0,0,0,1.155,7.455,11.017,11.017,0,0,0,3.535,4.585,22.927,22.927,0,0,0-3.43,3.71,6.3,6.3,0,0,0-1.05,3.64,3.908,3.908,0,0,0,1.015,2.59,5.894,5.894,0,0,0,2.9,1.75,12.087,12.087,0,0,0-4.165,3.15,6.957,6.957,0,0,0-1.645,4.62,6.118,6.118,0,0,0,3.5,5.775,20.121,20.121,0,0,0,9.38,1.855h0Zm0.21-30.17a3.842,3.842,0,0,1-3.885-2.31,17.11,17.11,0,0,1-1.015-6.65,17.944,17.944,0,0,1,1.015-7.035,3.925,3.925,0,0,1,3.955-2.205q2.94,0,3.85,2.205a19.859,19.859,0,0,1,.91,7.035,18.673,18.673,0,0,1-.91,6.86q-0.91,2.1-3.92,2.1h0Zm0.35,24.29q-3.99,0-5.565-.875a2.94,2.94,0,0,1-1.575-2.765,4.227,4.227,0,0,1,.77-2.45,19.348,19.348,0,0,1,2.24-2.59l6.37,0.56a8.525,8.525,0,0,1,4.34,1.225,3.484,3.484,0,0,1,1.19,2.9,3.176,3.176,0,0,1-1.89,3.045,13.806,13.806,0,0,1-5.88.945h0Zm37.8-6.65h7.49v-34.93h6.16v-5.53h-6.16v-3.36a9.009,9.009,0,0,1,.665-3.955,2.735,2.735,0,0,1,2.695-1.295,11.529,11.529,0,0,1,2.8.35v-5.46a24.987,24.987,0,0,0-4.9-.49,9.376,9.376,0,0,0-5.565,1.4,6.675,6.675,0,0,0-2.555,3.955,29.208,29.208,0,0,0-.63,6.755v2.1H893.8v5.53h4.83V389.5Zm23.519,0.56q5.04,0,9.87-4.55v3.99h7.49v-40.46h-7.49v32.62q-3.01,2.52-5.25,2.52a2.7,2.7,0,0,1-2.52-1.155,6.81,6.81,0,0,1-.7-3.465v-30.52h-7.49V381.8a11.416,11.416,0,0,0,1.4,5.88,5,5,0,0,0,4.69,2.38h0Zm35.769,0a35.1,35.1,0,0,0,5.18-.42v-5.53a17.487,17.487,0,0,1-2.73.21,3.582,3.582,0,0,1-2.94-.98,5.706,5.706,0,0,1-.77-3.43v-25.9h6.51v-4.97h-6.51v-11.83h-7.49v11.83H944.9v4.97h4.27V380.4q0,9.66,8.75,9.66h0Zm16.59,0q5.04,0,9.87-4.55v3.99h7.49v-40.46h-7.49v32.62q-3.01,2.52-5.25,2.52a2.7,2.7,0,0,1-2.52-1.155,6.81,6.81,0,0,1-.7-3.465v-30.52h-7.49V381.8a11.416,11.416,0,0,0,1.4,5.88,5,5,0,0,0,4.69,2.38h0Zm25.2-.56h7.486v-29.54a8.957,8.957,0,0,1,2.77-3.045,6.129,6.129,0,0,1,3.25-.875,11.825,11.825,0,0,1,4.13.84v-8.26a9.7,9.7,0,0,0-1.19-.07,8.541,8.541,0,0,0-4.65,1.4,14.667,14.667,0,0,0-4.31,4.83v-5.74H999.7V389.5Zm33.456,0.56q5.955,0,8.68-3.36t2.73-9.73v-1.54h-7.28v2.45a11.451,11.451,0,0,1-.84,5,3.267,3.267,0,0,1-3.22,1.645,3.841,3.841,0,0,1-3.46-1.645c-0.72-1.1-1.09-2.881-1.09-5.355v-8.12h15.96v-3.29a48.111,48.111,0,0,0-.8-9.905,9.792,9.792,0,0,0-3.29-5.7q-2.49-2.029-7.39-2.03-6.72,0-9.34,3.885t-2.63,12.285v9.24a32.465,32.465,0,0,0,1.05,9.1,9.483,9.483,0,0,0,3.64,5.285,12.738,12.738,0,0,0,7.28,1.785h0Zm-4.48-24.71v-2.17a33.676,33.676,0,0,1,.35-5.565,4.77,4.77,0,0,1,1.3-2.765,4.031,4.031,0,0,1,2.76-.84c1.73,0,2.86.595,3.4,1.785a15.549,15.549,0,0,1,.8,5.915v3.64h-8.61Zm22.4,24.15h7.49v-8.33h-7.49v8.33Z" transform="translate(-341.594 -332.312)"/>
</svg>
