<svg id="home_main_catch_sp.svg" xmlns="http://www.w3.org/2000/svg" width="203.563" height="125.312" viewBox="0 0 203.563 125.312">
  <defs>
    <style>
      .cls-1 {
        fill-rule: evenodd;
      }
    </style>
  </defs>
  <path id="Sensing_life._Thinking_future._のコピー" data-name="Sensing life.  Thinking future. のコピー" class="cls-1" d="M28.206,29.387a6.982,6.982,0,0,0,5.049-1.872A6.71,6.71,0,0,0,35.2,22.439a8.882,8.882,0,0,0-1.136-4.5,14.689,14.689,0,0,0-3.047-3.672l-4.94-4.32A5.825,5.825,0,0,1,24.6,8.165a4.919,4.919,0,0,1-.433-2.178A3.2,3.2,0,0,1,25,3.593a3.267,3.267,0,0,1,2.38-.81,3.079,3.079,0,0,1,2.9,1.386,9.193,9.193,0,0,1,.992,3.942l3.462-.936a9.256,9.256,0,0,0-2.128-5.688A6.933,6.933,0,0,0,27.377-.349a6.941,6.941,0,0,0-5.012,1.764,6.56,6.56,0,0,0-1.839,4.968,8.935,8.935,0,0,0,.667,3.654,8.177,8.177,0,0,0,2.146,2.79l4.9,4.32a12.842,12.842,0,0,1,2.416,2.628,5.461,5.461,0,0,1,.757,2.988A3.618,3.618,0,0,1,30.6,25.3a3.1,3.1,0,0,1-2.4.882,3.183,3.183,0,0,1-3.047-1.728,11.216,11.216,0,0,1-1.1-4.536l-3.606.972A10.205,10.205,0,0,0,22.6,27.119a6.952,6.952,0,0,0,5.607,2.268h0Zm15.614-.036a5.433,5.433,0,0,0,4.472-1.728,7.76,7.76,0,0,0,1.406-5V21.827h-3.75v1.26a5.88,5.88,0,0,1-.433,2.574,1.686,1.686,0,0,1-1.659.846,1.982,1.982,0,0,1-1.785-.846,5.155,5.155,0,0,1-.559-2.754V18.731h8.222V17.039a24.821,24.821,0,0,0-.415-5.094,5.037,5.037,0,0,0-1.695-2.934,5.918,5.918,0,0,0-3.8-1.044q-3.462,0-4.814,2t-1.352,6.318v4.752a16.669,16.669,0,0,0,.541,4.68,4.859,4.859,0,0,0,1.875,2.718,6.559,6.559,0,0,0,3.75.918h0ZM41.513,16.643V15.527a17.061,17.061,0,0,1,.18-2.862,2.429,2.429,0,0,1,.667-1.422,2.083,2.083,0,0,1,1.424-.432,1.716,1.716,0,0,1,1.749.918,8.016,8.016,0,0,1,.415,3.042v1.872H41.513Zm11.719,12.42h3.858V12.287a4.532,4.532,0,0,1,2.7-1.3,1.41,1.41,0,0,1,1.3.576,3.4,3.4,0,0,1,.361,1.764V29.063h3.859V12.215a5.87,5.87,0,0,0-.721-3.024,2.58,2.58,0,0,0-2.416-1.224,7.446,7.446,0,0,0-5.085,2.34V8.255H53.232V29.063ZM73.9,29.351a6.151,6.151,0,0,0,4.219-1.368,5,5,0,0,0,1.551-3.96,5.733,5.733,0,0,0-.775-3.06,12.389,12.389,0,0,0-2.182-2.556L73.03,15.023a2.761,2.761,0,0,1-1.046-2.088,2.158,2.158,0,0,1,.559-1.512,2.11,2.11,0,0,1,3.228.306,7.008,7.008,0,0,1,.829,2.682l2.6-.972A6.675,6.675,0,0,0,77.627,9.5,4.724,4.724,0,0,0,73.9,7.967a5.522,5.522,0,0,0-3.931,1.35,4.9,4.9,0,0,0-1.442,3.762,5.69,5.69,0,0,0,.667,2.862,8.4,8.4,0,0,0,1.893,2.214l3.57,3.06a5.451,5.451,0,0,1,1.3,1.476,3.3,3.3,0,0,1,.4,1.62,2.243,2.243,0,0,1-.559,1.6,2.05,2.05,0,0,1-1.569.594,2.323,2.323,0,0,1-2-.972,6.822,6.822,0,0,1-.992-2.988l-3.209.972A6.566,6.566,0,0,0,69.8,27.767,5.5,5.5,0,0,0,73.9,29.351h0ZM82.8,5.159H86.66V1.127H82.8V5.159Zm0,23.9H86.66V8.255H82.8V29.063Zm8.005,0h3.859V12.287a4.532,4.532,0,0,1,2.7-1.3,1.41,1.41,0,0,1,1.3.576,3.4,3.4,0,0,1,.361,1.764V29.063h3.859V12.215a5.867,5.867,0,0,0-.722-3.024A2.579,2.579,0,0,0,99.75,7.967a7.446,7.446,0,0,0-5.085,2.34V8.255H90.807V29.063Zm21.24,6.444q7.248,0,7.248-5.184a5.046,5.046,0,0,0-1.19-3.6,5.487,5.487,0,0,0-3.642-1.476l-3.246-.288a3.338,3.338,0,0,1-1.316-.306,0.7,0.7,0,0,1-.414-0.63,3.2,3.2,0,0,1,.685-1.584,8.152,8.152,0,0,0,1.983.252q3.1,0,4.436-1.89a9.107,9.107,0,0,0,1.334-5.31,12.115,12.115,0,0,0-.2-2.016,9.721,9.721,0,0,0-.45-1.8,5.445,5.445,0,0,1,1.532-.72,14.7,14.7,0,0,1,2-.612l-0.974-2.484-0.577.252a8.081,8.081,0,0,0-1.749,1.1,5.367,5.367,0,0,0-1.064,1.062,3.706,3.706,0,0,0-1.586-1.728,5.586,5.586,0,0,0-2.7-.576,5.251,5.251,0,0,0-4.381,1.89,8.753,8.753,0,0,0-1.5,5.526,10.128,10.128,0,0,0,.595,3.834,5.673,5.673,0,0,0,1.821,2.358,11.846,11.846,0,0,0-1.767,1.908,3.243,3.243,0,0,0-.541,1.872,2.007,2.007,0,0,0,.523,1.332,3.037,3.037,0,0,0,1.5.9,6.227,6.227,0,0,0-2.146,1.62,3.575,3.575,0,0,0-.847,2.376,3.145,3.145,0,0,0,1.8,2.97,10.378,10.378,0,0,0,4.832.954h0Zm0.108-15.516a1.979,1.979,0,0,1-2-1.188,8.781,8.781,0,0,1-.523-3.42,9.209,9.209,0,0,1,.523-3.618,2.021,2.021,0,0,1,2.037-1.134,1.915,1.915,0,0,1,1.983,1.134,10.177,10.177,0,0,1,.469,3.618,9.569,9.569,0,0,1-.469,3.528,1.962,1.962,0,0,1-2.019,1.08h0Zm0.18,12.492a6.433,6.433,0,0,1-2.867-.45,1.513,1.513,0,0,1-.811-1.422,2.17,2.17,0,0,1,.4-1.26,9.929,9.929,0,0,1,1.154-1.332l3.281,0.288a4.4,4.4,0,0,1,2.236.63,1.789,1.789,0,0,1,.613,1.494A1.632,1.632,0,0,1,115.364,32a7.12,7.12,0,0,1-3.029.486h0Zm18.607-3.42H134.8V-0.1h-3.859v29.16Zm8.15-23.9h3.858V1.127h-3.858V5.159Zm0,23.9h3.858V8.255h-3.858V29.063Zm9.231,0h3.859V11.1h3.173V8.255h-3.173V6.527a4.624,4.624,0,0,1,.342-2.034,1.409,1.409,0,0,1,1.388-.666,5.951,5.951,0,0,1,1.443.18V1.2a12.9,12.9,0,0,0-2.524-.252,4.836,4.836,0,0,0-2.867.72A3.428,3.428,0,0,0,148.648,3.7a14.958,14.958,0,0,0-.325,3.474v1.08h-2.488V11.1h2.488V29.063Zm14.893,0.288a5.431,5.431,0,0,0,4.471-1.728,7.757,7.757,0,0,0,1.407-5V21.827h-3.751v1.26a5.889,5.889,0,0,1-.432,2.574,1.686,1.686,0,0,1-1.659.846,1.981,1.981,0,0,1-1.785-.846,5.154,5.154,0,0,1-.559-2.754V18.731h8.222V17.039a24.825,24.825,0,0,0-.415-5.094,5.039,5.039,0,0,0-1.695-2.934,5.917,5.917,0,0,0-3.8-1.044q-3.462,0-4.814,2t-1.353,6.318v4.752a16.691,16.691,0,0,0,.541,4.68,4.864,4.864,0,0,0,1.875,2.718,6.562,6.562,0,0,0,3.751.918h0Zm-2.308-12.708V15.527a17.132,17.132,0,0,1,.18-2.862,2.432,2.432,0,0,1,.667-1.422,2.084,2.084,0,0,1,1.425-.432,1.717,1.717,0,0,1,1.749.918,8.021,8.021,0,0,1,.414,3.042v1.872h-4.435Zm11.539,12.42h3.859V24.779h-3.859v4.284Zm-167.211,40H9.311V42.927h4.8V39.9H0.3v3.024h4.94V69.063Zm11.467,0h3.858v-16.7a4.49,4.49,0,0,1,2.813-1.368,1.41,1.41,0,0,1,1.3.576,3.4,3.4,0,0,1,.361,1.764V69.063h3.858V52.215a5.99,5.99,0,0,0-.7-3.024,2.538,2.538,0,0,0-2.4-1.224,7.693,7.693,0,0,0-5.229,2.448V39.9H16.7v29.16Zm16.191-23.9h3.859V41.127H32.894v4.032Zm0,23.9h3.859V48.255H32.894V69.063Zm8.005,0h3.858V52.287a4.532,4.532,0,0,1,2.7-1.3,1.41,1.41,0,0,1,1.3.576,3.4,3.4,0,0,1,.361,1.764V69.063H52.98V52.215a5.87,5.87,0,0,0-.721-3.024,2.58,2.58,0,0,0-2.416-1.224,7.446,7.446,0,0,0-5.085,2.34V48.255H40.9V69.063Zm15.9-.036h3.858V61.071l1.767-2.664,3.895,10.656h3.858l-4.76-12.672,4.9-8.136H66.286l-5.626,9V39.867H56.8v29.16Zm15.65-23.868h3.859V41.127H72.452v4.032Zm0,23.9h3.859V48.255H72.452V69.063Zm8.005,0h3.859V52.287a4.532,4.532,0,0,1,2.7-1.3,1.41,1.41,0,0,1,1.3.576,3.4,3.4,0,0,1,.361,1.764V69.063h3.858V52.215a5.871,5.871,0,0,0-.721-3.024A2.58,2.58,0,0,0,89.4,47.967a7.446,7.446,0,0,0-5.085,2.34V48.255H80.457V69.063Zm21.24,6.444q7.248,0,7.248-5.184a5.042,5.042,0,0,0-1.19-3.6,5.487,5.487,0,0,0-3.642-1.476l-3.245-.288a3.338,3.338,0,0,1-1.317-.306,0.7,0.7,0,0,1-.415-0.63,3.2,3.2,0,0,1,.685-1.584,8.161,8.161,0,0,0,1.983.252q3.1,0,4.436-1.89a9.107,9.107,0,0,0,1.334-5.31,12.211,12.211,0,0,0-.2-2.016,9.791,9.791,0,0,0-.451-1.8,5.445,5.445,0,0,1,1.532-.72,14.7,14.7,0,0,1,2-.612l-0.974-2.484-0.577.252a8.082,8.082,0,0,0-1.749,1.1,5.368,5.368,0,0,0-1.064,1.062,3.706,3.706,0,0,0-1.586-1.728,5.587,5.587,0,0,0-2.7-.576,5.253,5.253,0,0,0-4.381,1.89,8.754,8.754,0,0,0-1.5,5.526,10.134,10.134,0,0,0,.595,3.834,5.666,5.666,0,0,0,1.821,2.358,11.8,11.8,0,0,0-1.767,1.908,3.239,3.239,0,0,0-.541,1.872,2.008,2.008,0,0,0,.523,1.332,3.037,3.037,0,0,0,1.5.9,6.227,6.227,0,0,0-2.146,1.62,3.574,3.574,0,0,0-.847,2.376,3.146,3.146,0,0,0,1.8,2.97,10.38,10.38,0,0,0,4.832.954h0Zm0.108-15.516a1.979,1.979,0,0,1-2-1.188,8.787,8.787,0,0,1-.523-3.42,9.215,9.215,0,0,1,.523-3.618,2.022,2.022,0,0,1,2.037-1.134,1.917,1.917,0,0,1,1.984,1.134,10.205,10.205,0,0,1,.468,3.618,9.6,9.6,0,0,1-.468,3.528,1.963,1.963,0,0,1-2.02,1.08h0Zm0.18,12.492a6.429,6.429,0,0,1-2.866-.45,1.512,1.512,0,0,1-.811-1.422,2.171,2.171,0,0,1,.4-1.26,9.956,9.956,0,0,1,1.154-1.332l3.281,0.288a4.4,4.4,0,0,1,2.236.63,1.789,1.789,0,0,1,.613,1.494A1.633,1.633,0,0,1,105.015,72a7.128,7.128,0,0,1-3.03.486h0Zm19.473-3.42h3.858V51.1h3.174V48.255h-3.174V46.527a4.622,4.622,0,0,1,.343-2.034,1.409,1.409,0,0,1,1.388-.666,5.951,5.951,0,0,1,1.443.18V41.2a12.9,12.9,0,0,0-2.524-.252,4.836,4.836,0,0,0-2.867.72,3.434,3.434,0,0,0-1.317,2.034,15.021,15.021,0,0,0-.324,3.474v1.08H118.97V51.1h2.488V69.063Zm12.116,0.288a7.445,7.445,0,0,0,5.085-2.34v2.052h3.858V48.255h-3.858V65.031a4.536,4.536,0,0,1-2.7,1.3,1.392,1.392,0,0,1-1.3-.594,3.493,3.493,0,0,1-.361-1.782v-15.7h-3.858V65.1a5.864,5.864,0,0,0,.721,3.024,2.578,2.578,0,0,0,2.416,1.224h0Zm18.427,0a18.107,18.107,0,0,0,2.668-.216V66.291a9.016,9.016,0,0,1-1.406.108,1.848,1.848,0,0,1-1.515-.5,2.937,2.937,0,0,1-.4-1.764V50.811h3.353V48.255h-3.353V42.171h-3.859v6.084h-2.2v2.556h2.2V64.383q0,4.968,4.508,4.968h0Zm8.546,0a7.445,7.445,0,0,0,5.085-2.34v2.052h3.858V48.255h-3.858V65.031a4.536,4.536,0,0,1-2.705,1.3,1.392,1.392,0,0,1-1.3-.594,3.493,3.493,0,0,1-.361-1.782v-15.7H157.41V65.1a5.864,5.864,0,0,0,.721,3.024,2.578,2.578,0,0,0,2.416,1.224h0Zm12.982-.288h3.858V53.871a4.608,4.608,0,0,1,1.425-1.566,3.158,3.158,0,0,1,1.677-.45,6.109,6.109,0,0,1,2.127.432V48.039A5.047,5.047,0,0,0,182,48a4.407,4.407,0,0,0-2.4.72,7.557,7.557,0,0,0-2.218,2.484V48.255h-3.858V69.063Zm17.237,0.288a5.435,5.435,0,0,0,4.472-1.728,7.763,7.763,0,0,0,1.406-5V61.827h-3.75v1.26a5.887,5.887,0,0,1-.433,2.574,1.686,1.686,0,0,1-1.659.846,1.981,1.981,0,0,1-1.785-.846,5.154,5.154,0,0,1-.559-2.754V58.731h8.222V57.039a24.825,24.825,0,0,0-.415-5.094,5.034,5.034,0,0,0-1.695-2.934,5.917,5.917,0,0,0-3.8-1.044q-3.462,0-4.814,2T184.6,56.283v4.752a16.691,16.691,0,0,0,.541,4.68,4.861,4.861,0,0,0,1.876,2.718,6.556,6.556,0,0,0,3.75.918h0Zm-2.308-12.708V55.527a17.132,17.132,0,0,1,.18-2.862,2.432,2.432,0,0,1,.667-1.422,2.084,2.084,0,0,1,1.425-.432,1.717,1.717,0,0,1,1.749.918,8.017,8.017,0,0,1,.415,3.042v1.872h-4.436ZM200,69.063h3.859V64.779H200v4.284Z" transform="translate(-0.281)"/>
  <path id="Creating_industries_of_the_future_to_build_a_better_tomorrow_のコピー" data-name="Creating industries of the future to build a better tomorrow のコピー" class="cls-1" d="M9.3,96.735a4.233,4.233,0,0,0-3.472,1.546,6.573,6.573,0,0,0,.386,7.976,4.189,4.189,0,0,0,2.911,1.06,4.124,4.124,0,0,0,3.195-1.292,4.552,4.552,0,0,0,1.164-2.659H12.159a4.428,4.428,0,0,1-.612,1.6,2.541,2.541,0,0,1-2.253,1.156,2.813,2.813,0,0,1-2.418-1.1,4.7,4.7,0,0,1-.811-2.864,4.814,4.814,0,0,1,.9-3.2,2.959,2.959,0,0,1,2.357-1.043,2.773,2.773,0,0,1,1.859.567,2.771,2.771,0,0,1,.884,1.538h1.328a3.561,3.561,0,0,0-1.157-2.283,4.049,4.049,0,0,0-2.93-1h0Zm5.813,10.315h1.233v-4.211a2.086,2.086,0,0,1,.5-1.377,1.759,1.759,0,0,1,1.431-.6c0.073,0,.14,0,0.2.007a1.643,1.643,0,0,1,.2.027V99.6L18.4,99.572q-0.082-.007-0.116-0.007a1.83,1.83,0,0,0-1.294.53,2.793,2.793,0,0,0-.705.9V99.729H15.117v7.321Zm7.662-7.485a3.136,3.136,0,0,0-2.491,1.1,4.217,4.217,0,0,0-.953,2.864,3.883,3.883,0,0,0,.946,2.786,3.062,3.062,0,0,0,2.307.994,4.164,4.164,0,0,0,1-.109,2.854,2.854,0,0,0,1.38-.738,3.238,3.238,0,0,0,.6-0.811,2.544,2.544,0,0,0,.318-0.9H24.676a2.173,2.173,0,0,1-.452.858,1.948,1.948,0,0,1-1.529.639,1.744,1.744,0,0,1-1.515-.676,3.158,3.158,0,0,1-.523-1.792h5.334a8.484,8.484,0,0,0-.109-1.613,3.27,3.27,0,0,0-.49-1.292,2.776,2.776,0,0,0-1.109-.947,3.313,3.313,0,0,0-1.5-.366h0Zm-2.095,3.24a2.319,2.319,0,0,1,.6-1.555,1.853,1.853,0,0,1,1.412-.612,1.773,1.773,0,0,1,1.677.889,3.2,3.2,0,0,1,.346,1.278h-4.04Zm7.813,2.3a1.088,1.088,0,0,1,.572-1.023,2.864,2.864,0,0,1,1.007-.28l0.745-.1a4.869,4.869,0,0,0,.7-0.136,2.1,2.1,0,0,0,.581-0.24v0.989a1.689,1.689,0,0,1-1.027,1.631,2.809,2.809,0,0,1-1.26.3,1.454,1.454,0,0,1-.924-0.307,1.011,1.011,0,0,1-.39-0.839h0Zm1.02-2.24a3.041,3.041,0,0,0-1.671.69,1.989,1.989,0,0,0-.637,1.577,2.051,2.051,0,0,0,.647,1.547,2.319,2.319,0,0,0,1.667.618,3.347,3.347,0,0,0,1.554-.363,3.13,3.13,0,0,0,1.082-.854,1.74,1.74,0,0,0,.212.677,1.016,1.016,0,0,0,.924.451,3.133,3.133,0,0,0,.411-0.021,3.605,3.605,0,0,0,.438-0.1v-0.909q-0.117.019-.219,0.03a1.824,1.824,0,0,1-.185.01,0.378,0.378,0,0,1-.332-0.116,0.534,0.534,0,0,1-.079-0.307v-4.218a1.669,1.669,0,0,0-.8-1.531,3.985,3.985,0,0,0-2.1-.493,3.6,3.6,0,0,0-1.959.532,2.12,2.12,0,0,0-.879,1.888h1.15a1.72,1.72,0,0,1,.294-0.858,1.624,1.624,0,0,1,1.367-.523,2.392,2.392,0,0,1,1.281.285,1,1,0,0,1,.448.916,1.092,1.092,0,0,1-.082.474,0.671,0.671,0,0,1-.568.355ZM35.6,99.729H34.6v1H35.6v4.847a1.958,1.958,0,0,0,.308,1.145,1.339,1.339,0,0,0,1.171.441,4.25,4.25,0,0,0,.5-0.028,2.732,2.732,0,0,0,.442-0.089v-0.977c-0.091.012-.171,0.02-0.24,0.023s-0.133,0-.192,0a1.11,1.11,0,0,1-.479-0.075,0.516,0.516,0,0,1-.26-0.513v-4.778h1.171v-1H36.844V97.685H35.6v2.044Zm3.65,7.321H40.5V99.763H39.248v7.287Zm0-8.647H40.5V97.008H39.248V98.4Zm3.116,8.647H43.6v-3.835a5.039,5.039,0,0,1,.092-1.1,1.815,1.815,0,0,1,.4-0.748,1.856,1.856,0,0,1,.89-0.6,2.437,2.437,0,0,1,.719-0.089,1.2,1.2,0,0,1,1.191.684,2.5,2.5,0,0,1,.2,1.08v4.614h1.253v-4.7a3.852,3.852,0,0,0-.3-1.7,2.135,2.135,0,0,0-2.109-1.087,2.945,2.945,0,0,0-1.294.28,3.283,3.283,0,0,0-1.1.923V99.729H42.363v7.321ZM52.739,99.6a2.773,2.773,0,0,0-2.166,1.032,4.239,4.239,0,0,0-.9,2.872,3.718,3.718,0,0,0,.89,2.792,3.176,3.176,0,0,0,3.448.571,2.407,2.407,0,0,0,.887-0.834,5.634,5.634,0,0,1-.238,2.1,2.234,2.234,0,0,1-3.153.588,1.388,1.388,0,0,1-.354-0.758H49.9a2.066,2.066,0,0,0,.9,1.657,3.538,3.538,0,0,0,1.986.53,2.94,2.94,0,0,0,2.887-1.49,4.919,4.919,0,0,0,.41-2.2V99.8H54.949v0.922a3.4,3.4,0,0,0-.709-0.7,2.66,2.66,0,0,0-1.5-.424h0Zm2.21,3.76a3.866,3.866,0,0,1-.3,1.579,1.888,1.888,0,0,1-1.86,1.2,1.614,1.614,0,0,1-1.346-.646,3.027,3.027,0,0,1-.5-1.883,4.783,4.783,0,0,1,.252-1.7,1.759,1.759,0,0,1,1.771-1.217,1.789,1.789,0,0,1,1.424.656,3.062,3.062,0,0,1,.559,2.017h0Zm6.909,3.691h1.253V99.763H61.858v7.287Zm0-8.647h1.253V97.008H61.858V98.4Zm3.116,8.647h1.233v-3.835a5.039,5.039,0,0,1,.092-1.1,1.814,1.814,0,0,1,.4-0.748,1.856,1.856,0,0,1,.89-0.6,2.437,2.437,0,0,1,.719-0.089,1.2,1.2,0,0,1,1.191.684,2.5,2.5,0,0,1,.2,1.08v4.614h1.253v-4.7a3.853,3.853,0,0,0-.3-1.7,2.135,2.135,0,0,0-2.109-1.087,2.944,2.944,0,0,0-1.294.28,3.284,3.284,0,0,0-1.1.923V99.729H64.974v7.321Zm8.58-3.575a3.266,3.266,0,0,1,.576-2.092,1.841,1.841,0,0,1,1.5-.711,1.763,1.763,0,0,1,1.4.667,3.125,3.125,0,0,1,.565,2.054,3.48,3.48,0,0,1-.548,2.109,1.677,1.677,0,0,1-1.4.735,1.74,1.74,0,0,1-1.594-.793,3.64,3.64,0,0,1-.5-1.969h0ZM75.4,99.6a2.667,2.667,0,0,0-2.329,1.173,4.731,4.731,0,0,0-.815,2.772,4.025,4.025,0,0,0,.894,2.737,2.719,2.719,0,0,0,2.115,1.029,2.9,2.9,0,0,0,1.344-.3,2.655,2.655,0,0,0,1.016-.977v1.018h1.109V96.974H77.546v3.7a3.308,3.308,0,0,0-.743-0.717A2.6,2.6,0,0,0,75.4,99.6h0Zm5.148,0.13v4.977a3.162,3.162,0,0,0,.3,1.5,2.157,2.157,0,0,0,2.1,1.046,2.544,2.544,0,0,0,1.68-.575,2.47,2.47,0,0,0,.585-0.7l-0.014,1.08h1.164V99.729H85.126v3.6a4.661,4.661,0,0,1-.247,1.688,1.687,1.687,0,0,1-1.707,1.149,1.2,1.2,0,0,1-1.194-.657,2.088,2.088,0,0,1-.173-0.916v-4.86h-1.26Zm7.375,5.025a2.782,2.782,0,0,0,.738,1.835,3.1,3.1,0,0,0,2.347.742,3.231,3.231,0,0,0,2.291-.711,2.247,2.247,0,0,0,.752-1.689,1.646,1.646,0,0,0-.719-1.483,6.485,6.485,0,0,0-1.814-.622l-0.83-.2a2.938,2.938,0,0,1-.823-0.3,0.86,0.86,0,0,1-.484-0.763,0.825,0.825,0,0,1,.368-0.7,1.842,1.842,0,0,1,1.083-.266,1.958,1.958,0,0,1,1.507.483,1.394,1.394,0,0,1,.3.755H93.8a2.092,2.092,0,0,0-.451-1.327,2.858,2.858,0,0,0-2.422-.97,3.063,3.063,0,0,0-2.044.642,2.1,2.1,0,0,0-.76,1.682,1.548,1.548,0,0,0,.807,1.381,4.922,4.922,0,0,0,1.406.519l1,0.246a5.176,5.176,0,0,1,1.072.349,0.784,0.784,0,0,1,.424.718,0.982,0.982,0,0,1-.531.919,2.468,2.468,0,0,1-1.23.3,2,2,0,0,1-1.649-.595,1.763,1.763,0,0,1-.314-0.943H87.92Zm7.71-5.025H94.637v1H95.63v4.847a1.958,1.958,0,0,0,.308,1.145,1.339,1.339,0,0,0,1.171.441,4.25,4.25,0,0,0,.5-0.028,2.732,2.732,0,0,0,.442-0.089v-0.977c-0.091.012-.171,0.02-0.24,0.023s-0.133,0-.192,0a1.11,1.11,0,0,1-.479-0.075,0.516,0.516,0,0,1-.26-0.513v-4.778h1.171v-1H96.877V97.685H95.63v2.044Zm3.684,7.321h1.233v-4.211a2.082,2.082,0,0,1,.5-1.377,1.759,1.759,0,0,1,1.431-.6c0.073,0,.14,0,0.2.007a1.661,1.661,0,0,1,.2.027V99.6l-0.281-.027c-0.055,0-.094-0.007-0.116-0.007a1.832,1.832,0,0,0-1.3.53,2.8,2.8,0,0,0-.7.9V99.729H99.314v7.321Zm4.636,0H105.2V99.763H103.95v7.287Zm0-8.647H105.2V97.008H103.95V98.4Zm6.142,1.162a3.136,3.136,0,0,0-2.491,1.1,4.214,4.214,0,0,0-.953,2.864,3.882,3.882,0,0,0,.946,2.786,3.061,3.061,0,0,0,2.307.994,4.17,4.17,0,0,0,1-.109,2.85,2.85,0,0,0,1.379-.738,3.252,3.252,0,0,0,.6-0.811,2.55,2.55,0,0,0,.318-0.9h-1.212a2.175,2.175,0,0,1-.453.858,1.947,1.947,0,0,1-1.528.639,1.743,1.743,0,0,1-1.515-.676,3.153,3.153,0,0,1-.523-1.792H113.3a8.535,8.535,0,0,0-.109-1.613,3.275,3.275,0,0,0-.49-1.292,2.774,2.774,0,0,0-1.11-.947,3.308,3.308,0,0,0-1.5-.366h0ZM108,102.805a2.317,2.317,0,0,1,.6-1.555,1.853,1.853,0,0,1,1.413-.612,1.773,1.773,0,0,1,1.677.889,3.208,3.208,0,0,1,.346,1.278H108Zm6.416,1.949a2.784,2.784,0,0,0,.738,1.835,3.1,3.1,0,0,0,2.347.742,3.23,3.23,0,0,0,2.291-.711,2.246,2.246,0,0,0,.753-1.689,1.646,1.646,0,0,0-.719-1.483,6.488,6.488,0,0,0-1.814-.622l-0.831-.2a2.947,2.947,0,0,1-.823-0.3,0.86,0.86,0,0,1-.483-0.763,0.823,0.823,0,0,1,.368-0.7,1.841,1.841,0,0,1,1.083-.266,1.959,1.959,0,0,1,1.507.483,1.393,1.393,0,0,1,.3.755H120.3a2.091,2.091,0,0,0-.451-1.327,2.858,2.858,0,0,0-2.422-.97,3.065,3.065,0,0,0-2.044.642,2.1,2.1,0,0,0-.76,1.682,1.549,1.549,0,0,0,.808,1.381,4.918,4.918,0,0,0,1.405.519l1,0.246a5.174,5.174,0,0,1,1.071.349,0.784,0.784,0,0,1,.425.718,0.982,0.982,0,0,1-.531.919,2.473,2.473,0,0,1-1.23.3,2,2,0,0,1-1.65-.595,1.765,1.765,0,0,1-.314-0.943h-1.185Zm14.246,1.5a1.782,1.782,0,0,1-1.611-.779,3.486,3.486,0,0,1-.508-1.946,4.007,4.007,0,0,1,.508-2.075,1.745,1.745,0,0,1,1.625-.861,1.826,1.826,0,0,1,1.774,1.011,3.7,3.7,0,0,1,.325,1.666,4.632,4.632,0,0,1-.451,2.059,1.679,1.679,0,0,1-1.662.925h0Zm0.048-6.734a3.12,3.12,0,0,0-2.5,1.093,4.377,4.377,0,0,0-.932,2.937,4.047,4.047,0,0,0,.884,2.742,2.994,2.994,0,0,0,2.387,1.021,3.093,3.093,0,0,0,2.658-1.154,4.773,4.773,0,0,0,.857-2.923,3.689,3.689,0,0,0-.972-2.773,3.289,3.289,0,0,0-2.38-.943h0Zm5.174-.9v1.148H132.86v0.971h1.021v6.316H135.1v-6.316h1.233V99.763H135.1a5.663,5.663,0,0,1,.111-1.48,0.644,0.644,0,0,1,.679-0.29c0.051,0,.1,0,0.163,0s0.151,0.008.28,0.017V96.892c-0.1-.009-0.2-0.016-0.281-0.02s-0.162-.007-0.239-0.007a1.888,1.888,0,0,0-1.664.629,2.186,2.186,0,0,0-.267,1.121h0Zm7.73,1.114h-0.992v1h0.992v4.847a1.954,1.954,0,0,0,.309,1.145,1.338,1.338,0,0,0,1.171.441,4.243,4.243,0,0,0,.5-0.028,2.746,2.746,0,0,0,.442-0.089v-0.977c-0.092.012-.172,0.02-0.24,0.023s-0.132,0-.192,0a1.111,1.111,0,0,1-.479-0.075,0.515,0.515,0,0,1-.26-0.513v-4.778h1.171v-1h-1.171V97.685h-1.247v2.044Zm3.65,7.321h1.233v-3.882a2.527,2.527,0,0,1,.623-1.99,2.1,2.1,0,0,1,1.39-.526,1.314,1.314,0,0,1,1.26.6,2.572,2.572,0,0,1,.205,1.182v4.614h1.267v-4.7a3.8,3.8,0,0,0-.308-1.688,2.2,2.2,0,0,0-2.164-1.115,2.662,2.662,0,0,0-1.486.39,3.54,3.54,0,0,0-.787.779V96.974h-1.233V107.05Zm10.825-7.485a3.135,3.135,0,0,0-2.49,1.1,4.214,4.214,0,0,0-.953,2.864,3.882,3.882,0,0,0,.946,2.786,3.061,3.061,0,0,0,2.307.994,4.17,4.17,0,0,0,1-.109,2.85,2.85,0,0,0,1.379-.738,3.252,3.252,0,0,0,.6-0.811,2.55,2.55,0,0,0,.318-0.9h-1.212a2.175,2.175,0,0,1-.453.858,1.947,1.947,0,0,1-1.528.639,1.743,1.743,0,0,1-1.515-.676,3.161,3.161,0,0,1-.524-1.792H159.3a8.535,8.535,0,0,0-.109-1.613,3.275,3.275,0,0,0-.49-1.292,2.774,2.774,0,0,0-1.11-.947,3.309,3.309,0,0,0-1.5-.366h0Zm-2.094,3.24a2.317,2.317,0,0,1,.6-1.555,1.852,1.852,0,0,1,1.412-.612,1.774,1.774,0,0,1,1.678.889,3.208,3.208,0,0,1,.346,1.278h-4.04Zm11.072-4.19v1.148h-1.02v0.971h1.02v6.316h1.219v-6.316h1.233V99.763h-1.233a5.663,5.663,0,0,1,.111-1.48,0.644,0.644,0,0,1,.679-0.29c0.05,0,.1,0,0.162,0s0.151,0.008.281,0.017V96.892c-0.1-.009-0.2-0.016-0.281-0.02s-0.162-.007-0.24-0.007a1.89,1.89,0,0,0-1.664.629,2.2,2.2,0,0,0-.267,1.121h0Zm3.561,1.114v4.977a3.169,3.169,0,0,0,.3,1.5,2.158,2.158,0,0,0,2.1,1.046,2.542,2.542,0,0,0,1.679-.575,2.469,2.469,0,0,0,.585-0.7l-0.013,1.08h1.164V99.729h-1.233v3.6a4.647,4.647,0,0,1-.247,1.688,1.687,1.687,0,0,1-1.707,1.149,1.205,1.205,0,0,1-1.194-.657,2.1,2.1,0,0,1-.173-0.916v-4.86h-1.26Zm8.073,0h-0.993v1H176.7v4.847a1.961,1.961,0,0,0,.308,1.145,1.34,1.34,0,0,0,1.171.441,4.261,4.261,0,0,0,.5-0.028,2.712,2.712,0,0,0,.441-0.089v-0.977c-0.091.012-.171,0.02-0.239,0.023s-0.133,0-.192,0a1.108,1.108,0,0,1-.479-0.075,0.515,0.515,0,0,1-.26-0.513v-4.778h1.17v-1h-1.17V97.685H176.7v2.044Zm3.623,0v4.977a3.157,3.157,0,0,0,.3,1.5,2.156,2.156,0,0,0,2.1,1.046,2.543,2.543,0,0,0,1.68-.575,2.469,2.469,0,0,0,.585-0.7l-0.014,1.08h1.164V99.729H184.9v3.6a4.669,4.669,0,0,1-.247,1.688,1.687,1.687,0,0,1-1.707,1.149,1.2,1.2,0,0,1-1.194-.657,2.084,2.084,0,0,1-.173-0.916v-4.86h-1.26Zm7.861,7.321h1.232v-4.211a2.087,2.087,0,0,1,.5-1.377,1.759,1.759,0,0,1,1.431-.6c0.073,0,.141,0,0.2.007a1.636,1.636,0,0,1,.2.027V99.6l-0.281-.027c-0.054,0-.093-0.007-0.116-0.007a1.828,1.828,0,0,0-1.294.53,2.77,2.77,0,0,0-.7.9V99.729h-1.171v7.321Zm7.661-7.485a3.138,3.138,0,0,0-2.491,1.1,4.218,4.218,0,0,0-.952,2.864,3.882,3.882,0,0,0,.946,2.786,3.06,3.06,0,0,0,2.306.994,4.158,4.158,0,0,0,1-.109,2.858,2.858,0,0,0,1.38-.738,3.225,3.225,0,0,0,.6-0.811,2.534,2.534,0,0,0,.319-0.9h-1.212a2.175,2.175,0,0,1-.453.858,1.948,1.948,0,0,1-1.529.639,1.746,1.746,0,0,1-1.515-.676,3.161,3.161,0,0,1-.523-1.792h5.334a8.555,8.555,0,0,0-.108-1.613,3.275,3.275,0,0,0-.49-1.292,2.781,2.781,0,0,0-1.11-.947,3.312,3.312,0,0,0-1.5-.366h0Zm-2.094,3.24a2.317,2.317,0,0,1,.6-1.555,1.852,1.852,0,0,1,1.412-.612,1.773,1.773,0,0,1,1.677.889,3.208,3.208,0,0,1,.347,1.278h-4.04ZM23.526,117.729H22.533v1h0.993v4.847a1.958,1.958,0,0,0,.308,1.145,1.339,1.339,0,0,0,1.171.441,4.25,4.25,0,0,0,.5-0.028,2.735,2.735,0,0,0,.442-0.089v-0.977c-0.091.012-.171,0.02-0.24,0.023s-0.133,0-.192,0a1.11,1.11,0,0,1-.479-0.075,0.516,0.516,0,0,1-.26-0.513v-4.778h1.171v-1H24.772v-2.044H23.526v2.044Zm6.536,6.522a1.784,1.784,0,0,1-1.612-.779,3.49,3.49,0,0,1-.508-1.946,4.011,4.011,0,0,1,.508-2.075,1.745,1.745,0,0,1,1.625-.861,1.826,1.826,0,0,1,1.774,1.011,3.692,3.692,0,0,1,.325,1.666,4.643,4.643,0,0,1-.45,2.059,1.679,1.679,0,0,1-1.662.925h0Zm0.048-6.734a3.122,3.122,0,0,0-2.5,1.093,4.376,4.376,0,0,0-.931,2.937,4.045,4.045,0,0,0,.884,2.742,2.994,2.994,0,0,0,2.387,1.021,3.1,3.1,0,0,0,2.659-1.154,4.772,4.772,0,0,0,.857-2.923,3.689,3.689,0,0,0-.972-2.773,3.288,3.288,0,0,0-2.38-.943h0Zm8.659,7.533h1.137v-0.936a3.419,3.419,0,0,0,.736.766,2.417,2.417,0,0,0,1.416.4,2.747,2.747,0,0,0,2.344-1.149,4.733,4.733,0,0,0,.846-2.884,3.988,3.988,0,0,0-.856-2.772,2.875,2.875,0,0,0-2.231-.94,2.7,2.7,0,0,0-2.193,1.08v-3.644h-1.2V125.05Zm3.212-.854a1.8,1.8,0,0,1-1.821-1.21,4.511,4.511,0,0,1-.261-1.675,2.786,2.786,0,0,1,.636-2.051,2.054,2.054,0,0,1,1.48-.622,1.643,1.643,0,0,1,1.467.759,3.42,3.42,0,0,1,.5,1.914,3.89,3.89,0,0,1-.5,2.092,1.654,1.654,0,0,1-1.5.793h0Zm4.663-6.467v4.977a3.163,3.163,0,0,0,.3,1.5,2.157,2.157,0,0,0,2.1,1.046,2.543,2.543,0,0,0,1.68-.575,2.469,2.469,0,0,0,.585-0.7l-0.014,1.08h1.164v-7.321H51.224v3.6a4.661,4.661,0,0,1-.247,1.688,1.687,1.687,0,0,1-1.707,1.149,1.2,1.2,0,0,1-1.194-.657,2.088,2.088,0,0,1-.173-0.916v-4.86h-1.26Zm7.827,7.321h1.253v-7.287H54.47v7.287Zm0-8.647h1.253v-1.4H54.47v1.4Zm3.15,8.647h1.233V115.008H57.62V125.05Zm3.862-3.575a3.266,3.266,0,0,1,.576-2.092,1.841,1.841,0,0,1,1.5-.711,1.763,1.763,0,0,1,1.4.667,3.125,3.125,0,0,1,.565,2.054,3.48,3.48,0,0,1-.548,2.109,1.677,1.677,0,0,1-1.4.735,1.74,1.74,0,0,1-1.594-.793,3.64,3.64,0,0,1-.5-1.969h0Zm1.843-3.876A2.666,2.666,0,0,0,61,118.772a4.731,4.731,0,0,0-.815,2.772,4.024,4.024,0,0,0,.894,2.737,2.719,2.719,0,0,0,2.115,1.029,2.9,2.9,0,0,0,1.344-.3,2.655,2.655,0,0,0,1.016-.977v1.018h1.109V114.974H65.474v3.7a3.3,3.3,0,0,0-.743-0.717,2.6,2.6,0,0,0-1.405-.356h0Zm10.016,5.506a1.088,1.088,0,0,1,.572-1.023,2.863,2.863,0,0,1,1.007-.28l0.745-.1a4.869,4.869,0,0,0,.7-0.136,2.1,2.1,0,0,0,.581-0.24v0.989a1.689,1.689,0,0,1-1.027,1.631,2.809,2.809,0,0,1-1.26.3,1.455,1.455,0,0,1-.924-0.307,1.011,1.011,0,0,1-.39-0.839h0Zm1.02-2.24a3.041,3.041,0,0,0-1.671.69,1.989,1.989,0,0,0-.637,1.577,2.051,2.051,0,0,0,.647,1.547,2.319,2.319,0,0,0,1.667.618,3.347,3.347,0,0,0,1.554-.363,3.13,3.13,0,0,0,1.082-.854,1.742,1.742,0,0,0,.212.677,1.016,1.016,0,0,0,.924.451,3.134,3.134,0,0,0,.411-0.021,3.605,3.605,0,0,0,.438-0.1v-0.909q-0.117.019-.219,0.03a1.822,1.822,0,0,1-.185.01,0.379,0.379,0,0,1-.332-0.116,0.535,0.535,0,0,1-.079-0.307v-4.218a1.669,1.669,0,0,0-.8-1.531,3.981,3.981,0,0,0-2.1-.493,3.6,3.6,0,0,0-1.959.532,2.12,2.12,0,0,0-.879,1.888h1.15a1.721,1.721,0,0,1,.294-0.858,1.625,1.625,0,0,1,1.367-.523,2.392,2.392,0,0,1,1.281.285,1,1,0,0,1,.448.916,1.092,1.092,0,0,1-.082.474,0.671,0.671,0,0,1-.568.355Zm9.628,4.185h1.137v-0.936a3.419,3.419,0,0,0,.736.766,2.418,2.418,0,0,0,1.416.4,2.747,2.747,0,0,0,2.344-1.149,4.733,4.733,0,0,0,.846-2.884,3.988,3.988,0,0,0-.856-2.772,2.875,2.875,0,0,0-2.231-.94,2.7,2.7,0,0,0-2.193,1.08v-3.644h-1.2V125.05ZM87.2,124.2a1.8,1.8,0,0,1-1.821-1.21,4.511,4.511,0,0,1-.261-1.675,2.786,2.786,0,0,1,.636-2.051,2.054,2.054,0,0,1,1.481-.622,1.643,1.643,0,0,1,1.467.759,3.42,3.42,0,0,1,.5,1.914,3.89,3.89,0,0,1-.5,2.092,1.654,1.654,0,0,1-1.5.793h0Zm7.716-6.631a3.136,3.136,0,0,0-2.491,1.1,4.217,4.217,0,0,0-.953,2.864,3.883,3.883,0,0,0,.946,2.786,3.063,3.063,0,0,0,2.307.994,4.165,4.165,0,0,0,1-.109,2.854,2.854,0,0,0,1.38-.738,3.238,3.238,0,0,0,.6-0.811,2.546,2.546,0,0,0,.318-0.9H96.815a2.173,2.173,0,0,1-.453.858,1.948,1.948,0,0,1-1.529.639,1.744,1.744,0,0,1-1.515-.676,3.158,3.158,0,0,1-.523-1.792H98.13a8.486,8.486,0,0,0-.109-1.613,3.27,3.27,0,0,0-.49-1.292,2.775,2.775,0,0,0-1.109-.947,3.311,3.311,0,0,0-1.5-.366h0Zm-2.095,3.24a2.319,2.319,0,0,1,.6-1.555,1.853,1.853,0,0,1,1.412-.612,1.773,1.773,0,0,1,1.677.889,3.2,3.2,0,0,1,.346,1.278h-4.04Zm7.115-3.076H98.945v1h0.993v4.847a1.954,1.954,0,0,0,.309,1.145,1.337,1.337,0,0,0,1.17.441,4.261,4.261,0,0,0,.5-0.028,2.746,2.746,0,0,0,.442-0.089v-0.977c-0.092.012-.172,0.02-0.24,0.023s-0.133,0-.192,0a1.108,1.108,0,0,1-.479-0.075,0.515,0.515,0,0,1-.26-0.513v-4.778h1.171v-1h-1.171v-2.044H99.937v2.044Zm3.9,0h-0.993v1h0.993v4.847a1.954,1.954,0,0,0,.308,1.145,1.339,1.339,0,0,0,1.171.441,4.243,4.243,0,0,0,.5-0.028,2.746,2.746,0,0,0,.442-0.089v-0.977c-0.092.012-.171,0.02-0.24,0.023s-0.132,0-.192,0a1.111,1.111,0,0,1-.479-0.075,0.517,0.517,0,0,1-.26-0.513v-4.778h1.171v-1H105.08v-2.044h-1.246v2.044Zm6.675-.164a3.138,3.138,0,0,0-2.491,1.1,4.218,4.218,0,0,0-.952,2.864,3.885,3.885,0,0,0,.945,2.786,3.064,3.064,0,0,0,2.307.994,4.158,4.158,0,0,0,1-.109,2.858,2.858,0,0,0,1.38-.738,3.225,3.225,0,0,0,.6-0.811,2.534,2.534,0,0,0,.319-0.9h-1.212a2.175,2.175,0,0,1-.453.858,1.948,1.948,0,0,1-1.529.639,1.746,1.746,0,0,1-1.515-.676,3.161,3.161,0,0,1-.523-1.792h5.334a8.555,8.555,0,0,0-.108-1.613,3.275,3.275,0,0,0-.49-1.292,2.779,2.779,0,0,0-1.11-.947,3.31,3.31,0,0,0-1.5-.366h0Zm-2.094,3.24a2.317,2.317,0,0,1,.6-1.555,1.852,1.852,0,0,1,1.412-.612,1.773,1.773,0,0,1,1.677.889,3.208,3.208,0,0,1,.347,1.278h-4.04Zm6.9,4.245h1.233v-4.211a2.086,2.086,0,0,1,.5-1.377,1.762,1.762,0,0,1,1.432-.6c0.072,0,.14,0,0.2.007a1.687,1.687,0,0,1,.2.027v-1.3c-0.133-.013-0.226-0.023-0.281-0.027s-0.094-.007-0.117-0.007a1.831,1.831,0,0,0-1.294.53,2.8,2.8,0,0,0-.7.9v-1.265h-1.171v7.321Zm8.778-7.321H123.1v1H124.1v4.847a1.954,1.954,0,0,0,.309,1.145,1.338,1.338,0,0,0,1.171.441,4.243,4.243,0,0,0,.5-0.028,2.746,2.746,0,0,0,.442-0.089v-0.977c-0.092.012-.172,0.02-0.24,0.023s-0.132,0-.192,0a1.111,1.111,0,0,1-.479-0.075,0.515,0.515,0,0,1-.26-0.513v-4.778h1.171v-1h-1.171v-2.044H124.1v2.044Zm6.536,6.522a1.783,1.783,0,0,1-1.611-.779,3.486,3.486,0,0,1-.508-1.946,4.007,4.007,0,0,1,.508-2.075,1.745,1.745,0,0,1,1.625-.861,1.825,1.825,0,0,1,1.774,1.011,3.687,3.687,0,0,1,.325,1.666,4.645,4.645,0,0,1-.45,2.059,1.681,1.681,0,0,1-1.663.925h0Zm0.048-6.734a3.122,3.122,0,0,0-2.5,1.093,4.377,4.377,0,0,0-.932,2.937,4.047,4.047,0,0,0,.884,2.742,3,3,0,0,0,2.387,1.021,3.093,3.093,0,0,0,2.658-1.154,4.766,4.766,0,0,0,.857-2.923,3.689,3.689,0,0,0-.972-2.773,3.288,3.288,0,0,0-2.38-.943h0Zm4.866,7.533h1.232v-3.882a2.643,2.643,0,0,1,.572-1.955,1.811,1.811,0,0,1,1.27-.541,1.087,1.087,0,0,1,1.048.513,2.489,2.489,0,0,1,.178,1.087v4.778H141.1v-4.258a2.128,2.128,0,0,1,.524-1.62,1.774,1.774,0,0,1,1.249-.486,1.447,1.447,0,0,1,.894.274,1.183,1.183,0,0,1,.366,1v5.086h1.281v-4.874a3.478,3.478,0,0,0-.288-1.545,2.04,2.04,0,0,0-2.013-1.066,2.7,2.7,0,0,0-1.246.284,2.659,2.659,0,0,0-.966.871,2.254,2.254,0,0,0-.547-0.724,2.184,2.184,0,0,0-1.411-.431,2.39,2.39,0,0,0-1.383.417,4.1,4.1,0,0,0-.795.786v-1.039h-1.218v7.321Zm14.568-.8a1.785,1.785,0,0,1-1.612-.779,3.494,3.494,0,0,1-.508-1.946,4.016,4.016,0,0,1,.508-2.075,1.746,1.746,0,0,1,1.625-.861A1.825,1.825,0,0,1,151.9,119.6a3.687,3.687,0,0,1,.325,1.666,4.645,4.645,0,0,1-.45,2.059,1.679,1.679,0,0,1-1.662.925h0Zm0.047-6.734a3.122,3.122,0,0,0-2.5,1.093,4.376,4.376,0,0,0-.931,2.937,4.047,4.047,0,0,0,.883,2.742A3,3,0,0,0,150,125.31a3.1,3.1,0,0,0,2.659-1.154,4.773,4.773,0,0,0,.857-2.923,3.69,3.69,0,0,0-.973-2.773,3.286,3.286,0,0,0-2.38-.943h0Zm4.9,7.533h1.233v-4.211a2.082,2.082,0,0,1,.5-1.377,1.759,1.759,0,0,1,1.431-.6c0.073,0,.14,0,0.2.007a1.661,1.661,0,0,1,.2.027v-1.3c-0.133-.013-0.226-0.023-0.281-0.027s-0.094-.007-0.117-0.007a1.833,1.833,0,0,0-1.294.53,2.8,2.8,0,0,0-.705.9v-1.265H155.06v7.321Zm4.67,0h1.233v-4.211a2.082,2.082,0,0,1,.5-1.377,1.759,1.759,0,0,1,1.431-.6c0.073,0,.14,0,0.2.007a1.661,1.661,0,0,1,.2.027v-1.3c-0.133-.013-0.226-0.023-0.281-0.027s-0.094-.007-0.116-0.007a1.833,1.833,0,0,0-1.3.53,2.8,2.8,0,0,0-.7.9v-1.265H159.73v7.321Zm7.522-.8a1.782,1.782,0,0,1-1.611-.779,3.486,3.486,0,0,1-.508-1.946,4.007,4.007,0,0,1,.508-2.075,1.745,1.745,0,0,1,1.625-.861,1.826,1.826,0,0,1,1.774,1.011,3.7,3.7,0,0,1,.325,1.666,4.646,4.646,0,0,1-.451,2.059,1.679,1.679,0,0,1-1.662.925h0Zm0.048-6.734a3.124,3.124,0,0,0-2.5,1.093,4.381,4.381,0,0,0-.931,2.937,4.047,4.047,0,0,0,.884,2.742,2.994,2.994,0,0,0,2.387,1.021,3.093,3.093,0,0,0,2.658-1.154,4.773,4.773,0,0,0,.857-2.923,3.689,3.689,0,0,0-.972-2.773,3.29,3.29,0,0,0-2.38-.943h0Zm4.088,0.212,2.116,7.321h1.28l1.445-5.667,1.493,5.667H179l2.129-7.321H179.9l-1.5,5.735-1.438-5.735h-1.383l-1.431,5.77-1.411-5.77h-1.349Z" transform="translate(-0.281)"/>
</svg>
