<svg id="home_main_catch_sp.svg" xmlns="http://www.w3.org/2000/svg" width="278.906" height="108.313" viewBox="0 0 278.906 108.313">
  <defs>
    <style>
      .cls-1 {
        fill-rule: evenodd;
      }
    </style>
  </defs>
  <path id="Sensing_life._Thinking_future._のコピー" data-name="Sensing life.  Thinking future. のコピー" class="cls-1" d="M113.206,187.387a6.982,6.982,0,0,0,5.049-1.872,6.709,6.709,0,0,0,1.947-5.076,8.875,8.875,0,0,0-1.136-4.5,14.7,14.7,0,0,0-3.047-3.672l-4.94-4.32a5.812,5.812,0,0,1-1.479-1.782,4.926,4.926,0,0,1-.432-2.178,3.2,3.2,0,0,1,.829-2.394,3.267,3.267,0,0,1,2.38-.81,3.08,3.08,0,0,1,2.9,1.386,9.2,9.2,0,0,1,.992,3.942l3.461-.936a9.249,9.249,0,0,0-2.127-5.688,8.183,8.183,0,0,0-10.241-.072,6.556,6.556,0,0,0-1.84,4.968,8.918,8.918,0,0,0,.668,3.654,8.17,8.17,0,0,0,2.145,2.79l4.9,4.32a12.833,12.833,0,0,1,2.417,2.628,5.467,5.467,0,0,1,.757,2.988,3.618,3.618,0,0,1-.812,2.538,3.093,3.093,0,0,1-2.4.882,3.184,3.184,0,0,1-3.047-1.728,11.218,11.218,0,0,1-1.1-4.536l-3.606.972a10.211,10.211,0,0,0,2.146,6.228,6.952,6.952,0,0,0,5.607,2.268h0Zm15.615-.036a5.431,5.431,0,0,0,4.471-1.728,7.758,7.758,0,0,0,1.407-5v-0.792h-3.751v1.26a5.87,5.87,0,0,1-.433,2.574,1.684,1.684,0,0,1-1.658.846,1.982,1.982,0,0,1-1.785-.846,5.152,5.152,0,0,1-.559-2.754v-4.176h8.222v-1.692a24.824,24.824,0,0,0-.415-5.094,5.041,5.041,0,0,0-1.695-2.934,5.918,5.918,0,0,0-3.8-1.044q-3.462,0-4.815,2t-1.352,6.318v4.752a16.652,16.652,0,0,0,.541,4.68,4.862,4.862,0,0,0,1.875,2.718,6.56,6.56,0,0,0,3.751.918h0Zm-2.308-12.708v-1.116a17.034,17.034,0,0,1,.18-2.862,2.432,2.432,0,0,1,.667-1.422,2.084,2.084,0,0,1,1.425-.432,1.717,1.717,0,0,1,1.749.918,8.02,8.02,0,0,1,.414,3.042v1.872h-4.435Zm11.719,12.42h3.859V170.287a4.532,4.532,0,0,1,2.7-1.3,1.413,1.413,0,0,1,1.3.576,3.4,3.4,0,0,1,.36,1.764v15.732h3.859V170.215a5.866,5.866,0,0,0-.722-3.024,2.581,2.581,0,0,0-2.416-1.224,7.445,7.445,0,0,0-5.084,2.34v-2.052h-3.859v20.808Zm20.663,0.288a6.147,6.147,0,0,0,4.219-1.368,5,5,0,0,0,1.551-3.96,5.732,5.732,0,0,0-.776-3.06,12.388,12.388,0,0,0-2.181-2.556l-3.678-3.384a2.759,2.759,0,0,1-1.046-2.088,2.16,2.16,0,0,1,.559-1.512,2.11,2.11,0,0,1,3.227.306,7.024,7.024,0,0,1,.83,2.682l2.6-.972a6.674,6.674,0,0,0-1.569-3.942,4.721,4.721,0,0,0-3.732-1.53,5.524,5.524,0,0,0-3.931,1.35,4.9,4.9,0,0,0-1.442,3.762,5.689,5.689,0,0,0,.667,2.862,8.431,8.431,0,0,0,1.893,2.214l3.57,3.06a5.451,5.451,0,0,1,1.3,1.476,3.311,3.311,0,0,1,.4,1.62,2.241,2.241,0,0,1-.559,1.6,2.05,2.05,0,0,1-1.568.594,2.323,2.323,0,0,1-2-.972,6.814,6.814,0,0,1-.991-2.988l-3.21.972a6.563,6.563,0,0,0,1.785,4.248,5.5,5.5,0,0,0,4.093,1.584h0Zm8.907-24.192h3.858v-4.032H167.8v4.032Zm0,23.9h3.858V166.255H167.8v20.808Zm8,0h3.859V170.287a4.529,4.529,0,0,1,2.7-1.3,1.41,1.41,0,0,1,1.3.576,3.4,3.4,0,0,1,.361,1.764v15.732h3.859V170.215a5.866,5.866,0,0,0-.722-3.024,2.581,2.581,0,0,0-2.416-1.224,7.443,7.443,0,0,0-5.084,2.34v-2.052h-3.859v20.808Zm21.24,6.444q7.248,0,7.248-5.184a5.047,5.047,0,0,0-1.19-3.6,5.486,5.486,0,0,0-3.642-1.476l-3.246-.288a3.331,3.331,0,0,1-1.316-.306,0.7,0.7,0,0,1-.414-0.63,3.2,3.2,0,0,1,.685-1.584,8.162,8.162,0,0,0,1.983.252q3.1,0,4.436-1.89a9.106,9.106,0,0,0,1.334-5.31,12.121,12.121,0,0,0-.2-2.016,9.717,9.717,0,0,0-.45-1.8,5.457,5.457,0,0,1,1.532-.72,14.762,14.762,0,0,1,2-.612l-0.974-2.484-0.577.252a8.074,8.074,0,0,0-1.749,1.1,5.379,5.379,0,0,0-1.064,1.062,3.7,3.7,0,0,0-1.586-1.728,5.594,5.594,0,0,0-2.705-.576,5.251,5.251,0,0,0-4.381,1.89,8.753,8.753,0,0,0-1.5,5.526,10.13,10.13,0,0,0,.6,3.834,5.671,5.671,0,0,0,1.821,2.358,11.863,11.863,0,0,0-1.767,1.908,3.243,3.243,0,0,0-.541,1.872,2.006,2.006,0,0,0,.523,1.332,3.035,3.035,0,0,0,1.5.9,6.242,6.242,0,0,0-2.146,1.62,3.576,3.576,0,0,0-.847,2.376,3.145,3.145,0,0,0,1.8,2.97,10.374,10.374,0,0,0,4.832.954h0Zm0.108-15.516a1.979,1.979,0,0,1-2-1.188,8.779,8.779,0,0,1-.523-3.42,9.209,9.209,0,0,1,.523-3.618,2.021,2.021,0,0,1,2.037-1.134,1.915,1.915,0,0,1,1.983,1.134,10.177,10.177,0,0,1,.469,3.618,9.567,9.567,0,0,1-.469,3.528,1.962,1.962,0,0,1-2.019,1.08h0Zm0.18,12.492a6.43,6.43,0,0,1-2.867-.45,1.512,1.512,0,0,1-.811-1.422,2.171,2.171,0,0,1,.4-1.26,9.966,9.966,0,0,1,1.154-1.332l3.281,0.288a4.4,4.4,0,0,1,2.236.63,1.789,1.789,0,0,1,.613,1.494,1.632,1.632,0,0,1-.974,1.566,7.12,7.12,0,0,1-3.029.486h0Zm18.607-3.42H219.8V157.9h-3.859v29.16Zm8.15-23.9h3.858v-4.032h-3.858v4.032Zm0,23.9h3.858V166.255h-3.858v20.808Zm9.231,0h3.859V169.1h3.173v-2.844h-3.173v-1.728a4.625,4.625,0,0,1,.342-2.034,1.409,1.409,0,0,1,1.388-.666,5.942,5.942,0,0,1,1.443.18V159.2a12.945,12.945,0,0,0-2.524-.252,4.834,4.834,0,0,0-2.867.72,3.429,3.429,0,0,0-1.316,2.034,14.962,14.962,0,0,0-.325,3.474v1.08h-2.488V169.1h2.488v17.964Zm14.893,0.288a5.431,5.431,0,0,0,4.471-1.728,7.758,7.758,0,0,0,1.407-5v-0.792h-3.751v1.26a5.887,5.887,0,0,1-.432,2.574,1.687,1.687,0,0,1-1.659.846,1.982,1.982,0,0,1-1.785-.846,5.152,5.152,0,0,1-.559-2.754v-4.176h8.222v-1.692a24.824,24.824,0,0,0-.415-5.094,5.041,5.041,0,0,0-1.695-2.934,5.916,5.916,0,0,0-3.8-1.044q-3.462,0-4.814,2t-1.353,6.318v4.752a16.689,16.689,0,0,0,.541,4.68,4.862,4.862,0,0,0,1.875,2.718,6.562,6.562,0,0,0,3.751.918h0Zm-2.308-12.708v-1.116a17.142,17.142,0,0,1,.18-2.862,2.432,2.432,0,0,1,.667-1.422,2.084,2.084,0,0,1,1.425-.432,1.717,1.717,0,0,1,1.749.918,8.02,8.02,0,0,1,.414,3.042v1.872h-4.435Zm11.539,12.42h3.859v-4.284h-3.859v4.284Zm-167.211,40h4.075V200.927h4.8V197.9H85.3v3.024h4.94v26.136Zm11.467,0h3.858v-16.7a4.49,4.49,0,0,1,2.813-1.368,1.41,1.41,0,0,1,1.3.576,3.4,3.4,0,0,1,.361,1.764v15.732h3.859V210.215a5.987,5.987,0,0,0-.7-3.024,2.538,2.538,0,0,0-2.4-1.224,7.693,7.693,0,0,0-5.229,2.448V197.9H101.7v29.16Zm16.191-23.9h3.859v-4.032h-3.859v4.032Zm0,23.9h3.859V206.255h-3.859v20.808Zm8,0h3.859V210.287a4.532,4.532,0,0,1,2.7-1.3,1.413,1.413,0,0,1,1.3.576,3.4,3.4,0,0,1,.36,1.764v15.732h3.859V210.215a5.866,5.866,0,0,0-.722-3.024,2.581,2.581,0,0,0-2.416-1.224,7.445,7.445,0,0,0-5.084,2.34v-2.052H125.9v20.808Zm15.9-.036h3.859v-7.956l1.766-2.664,3.9,10.656h3.859l-4.76-12.672,4.9-8.136h-4.039l-5.625,9V197.867H141.8v29.16Zm15.65-23.868h3.859v-4.032h-3.859v4.032Zm0,23.9h3.859V206.255h-3.859v20.808Zm8,0h3.859V210.287a4.532,4.532,0,0,1,2.7-1.3,1.41,1.41,0,0,1,1.3.576,3.4,3.4,0,0,1,.361,1.764v15.732h3.859V210.215a5.866,5.866,0,0,0-.722-3.024,2.581,2.581,0,0,0-2.416-1.224,7.443,7.443,0,0,0-5.084,2.34v-2.052h-3.859v20.808Zm21.24,6.444q7.248,0,7.248-5.184a5.042,5.042,0,0,0-1.19-3.6,5.486,5.486,0,0,0-3.642-1.476l-3.245-.288a3.333,3.333,0,0,1-1.317-.306,0.7,0.7,0,0,1-.414-0.63,3.2,3.2,0,0,1,.685-1.584,8.168,8.168,0,0,0,1.983.252q3.1,0,4.436-1.89a9.106,9.106,0,0,0,1.334-5.31,12.217,12.217,0,0,0-.2-2.016,9.787,9.787,0,0,0-.451-1.8,5.457,5.457,0,0,1,1.532-.72,14.762,14.762,0,0,1,2-.612l-0.974-2.484-0.577.252a8.074,8.074,0,0,0-1.749,1.1,5.379,5.379,0,0,0-1.064,1.062,3.7,3.7,0,0,0-1.586-1.728,5.594,5.594,0,0,0-2.7-.576,5.251,5.251,0,0,0-4.381,1.89,8.753,8.753,0,0,0-1.5,5.526,10.15,10.15,0,0,0,.595,3.834,5.671,5.671,0,0,0,1.821,2.358,11.863,11.863,0,0,0-1.767,1.908,3.243,3.243,0,0,0-.541,1.872,2.006,2.006,0,0,0,.523,1.332,3.035,3.035,0,0,0,1.5.9,6.242,6.242,0,0,0-2.146,1.62,3.576,3.576,0,0,0-.847,2.376,3.145,3.145,0,0,0,1.8,2.97,10.377,10.377,0,0,0,4.832.954h0Zm0.108-15.516a1.979,1.979,0,0,1-2-1.188,8.779,8.779,0,0,1-.523-3.42,9.209,9.209,0,0,1,.523-3.618,2.021,2.021,0,0,1,2.037-1.134,1.917,1.917,0,0,1,1.984,1.134,10.205,10.205,0,0,1,.468,3.618,9.593,9.593,0,0,1-.468,3.528,1.963,1.963,0,0,1-2.02,1.08h0Zm0.18,12.492a6.422,6.422,0,0,1-2.866-.45,1.512,1.512,0,0,1-.812-1.422,2.171,2.171,0,0,1,.4-1.26,9.966,9.966,0,0,1,1.154-1.332l3.281,0.288a4.4,4.4,0,0,1,2.236.63,1.789,1.789,0,0,1,.613,1.494,1.633,1.633,0,0,1-.973,1.566,7.128,7.128,0,0,1-3.03.486h0Zm19.473-3.42h3.858V209.1h3.174v-2.844h-3.174v-1.728a4.623,4.623,0,0,1,.343-2.034,1.409,1.409,0,0,1,1.388-.666,5.942,5.942,0,0,1,1.443.18V199.2a12.945,12.945,0,0,0-2.524-.252,4.834,4.834,0,0,0-2.867.72,3.435,3.435,0,0,0-1.317,2.034,15.025,15.025,0,0,0-.324,3.474v1.08H203.97V209.1h2.488v17.964Zm12.116,0.288a7.442,7.442,0,0,0,5.085-2.34v2.052h3.858V206.255h-3.858v16.776a4.536,4.536,0,0,1-2.7,1.3,1.392,1.392,0,0,1-1.3-.594,3.493,3.493,0,0,1-.361-1.782v-15.7h-3.858V223.1a5.861,5.861,0,0,0,.721,3.024,2.579,2.579,0,0,0,2.416,1.224h0Zm18.427,0a18.107,18.107,0,0,0,2.668-.216v-2.844a9.016,9.016,0,0,1-1.406.108,1.846,1.846,0,0,1-1.515-.5,2.936,2.936,0,0,1-.4-1.764v-13.32h3.353v-2.556h-3.353v-6.084h-3.859v6.084h-2.2v2.556h2.2v13.572q0,4.968,4.508,4.968h0Zm8.546,0a7.442,7.442,0,0,0,5.085-2.34v2.052h3.858V206.255h-3.858v16.776a4.536,4.536,0,0,1-2.705,1.3,1.392,1.392,0,0,1-1.3-.594,3.493,3.493,0,0,1-.361-1.782v-15.7H242.41V223.1a5.861,5.861,0,0,0,.721,3.024,2.579,2.579,0,0,0,2.416,1.224h0Zm12.982-.288h3.858V211.871a4.62,4.62,0,0,1,1.425-1.566,3.156,3.156,0,0,1,1.677-.45,6.109,6.109,0,0,1,2.127.432v-4.248A5.171,5.171,0,0,0,267,206a4.405,4.405,0,0,0-2.4.72,7.57,7.57,0,0,0-2.218,2.484v-2.952h-3.858v20.808Zm17.237,0.288a5.435,5.435,0,0,0,4.472-1.728,7.763,7.763,0,0,0,1.406-5v-0.792h-3.75v1.26a5.885,5.885,0,0,1-.433,2.574,1.687,1.687,0,0,1-1.659.846,1.982,1.982,0,0,1-1.785-.846,5.152,5.152,0,0,1-.559-2.754v-4.176h8.222v-1.692a24.824,24.824,0,0,0-.415-5.094,5.036,5.036,0,0,0-1.695-2.934,5.916,5.916,0,0,0-3.8-1.044q-3.462,0-4.814,2t-1.353,6.318v4.752a16.689,16.689,0,0,0,.541,4.68,4.859,4.859,0,0,0,1.876,2.718,6.556,6.556,0,0,0,3.75.918h0Zm-2.308-12.708v-1.116a17.142,17.142,0,0,1,.18-2.862,2.432,2.432,0,0,1,.667-1.422,2.084,2.084,0,0,1,1.425-.432,1.717,1.717,0,0,1,1.749.918,8.016,8.016,0,0,1,.415,3.042v1.872h-4.436ZM285,227.063h3.859v-4.284H285v4.284Z" transform="translate(-47.969 -157.656)"/>
  <path id="よりよい社会を築くために未来の産業を創造_のコピー" data-name="よりよい社会を築くために未来の産業を創造 のコピー" class="cls-1" d="M54.423,261.441v-4.108h4.752V256.41H54.423v-2.577H53.314v7.335a8.713,8.713,0,0,0-1.7-.178,5.264,5.264,0,0,0-2.612.6,1.928,1.928,0,0,0-.079,3.384,5.05,5.05,0,0,0,2.616.581q2.842,0,2.883-2.338l0.014-.793a15.994,15.994,0,0,1,2.362,1.111,17.552,17.552,0,0,1,2.267,1.473l0.685-.9a17.606,17.606,0,0,0-5.327-2.673h0Zm-1.068,1.791q0,1.382-2.02,1.381a3.615,3.615,0,0,1-1.637-.352,1.078,1.078,0,0,1-.705-0.974,1.131,1.131,0,0,1,.794-1.029,4.3,4.3,0,0,1,1.828-.373,7.557,7.557,0,0,1,1.739.226v1.121Zm17.4,1.06q1.753-1.354,1.753-4.553a6.659,6.659,0,0,0-.918-3.808,2.885,2.885,0,0,0-2.5-1.326,4.511,4.511,0,0,0-2.825,1.07,5.393,5.393,0,0,0-1.839,2.922h-0.1a32.817,32.817,0,0,1,.548-4.552l-1.082-.1a24.274,24.274,0,0,0-.4,4.573,22.331,22.331,0,0,0,.253,3.534L64.626,262a8.374,8.374,0,0,1,.719-3.7,4.894,4.894,0,0,1,1.763-2.13,3.935,3.935,0,0,1,2.017-.639,1.863,1.863,0,0,1,1.654,1.07,6.284,6.284,0,0,1,.627,3.086q0,2.878-1.561,3.951a9.249,9.249,0,0,1-4.506,1.306l0.253,0.9A9.229,9.229,0,0,0,70.755,264.292Zm11.716-2.851v-4.108h4.752V256.41H82.471v-2.577H81.361v7.335a8.713,8.713,0,0,0-1.7-.178,5.264,5.264,0,0,0-2.612.6,1.928,1.928,0,0,0-.079,3.384,5.049,5.049,0,0,0,2.616.581q2.842,0,2.883-2.338l0.014-.793a15.984,15.984,0,0,1,2.362,1.111,17.56,17.56,0,0,1,2.267,1.473l0.685-.9a17.6,17.6,0,0,0-5.327-2.673h0ZM81.4,263.232q0,1.382-2.02,1.381a3.615,3.615,0,0,1-1.637-.352,1.078,1.078,0,0,1-.705-0.974,1.131,1.131,0,0,1,.794-1.029,4.294,4.294,0,0,1,1.828-.373,7.556,7.556,0,0,1,1.739.226v1.121ZM94.776,261a15.656,15.656,0,0,1-1.082,2.1,1.734,1.734,0,0,1-.959.974,1.416,1.416,0,0,1-.7-0.684,5.11,5.11,0,0,1-.726-1.63,8.38,8.38,0,0,1-.25-2.136,18.412,18.412,0,0,1,.171-2.161q0.192-1.53.219-2.146H90.3q-0.014.677-.178,2.146a20.8,20.8,0,0,0-.157,2.167,9.4,9.4,0,0,0,.171,1.757,8.033,8.033,0,0,0,.531,1.726,4.714,4.714,0,0,0,.791,1.3,3.71,3.71,0,0,0,.7.635,1.135,1.135,0,0,0,.609.164,1.453,1.453,0,0,0,1.085-.625,9.289,9.289,0,0,0,1.027-1.562,12.134,12.134,0,0,0,.736-1.586Zm4.266-5.531-0.842.533a11.121,11.121,0,0,1,1.876,3.418,12.053,12.053,0,0,1,.657,3.938v0.123l1.151-.034a11.871,11.871,0,0,0-2.842-7.978h0Zm7.436,10.446v-5.572a15.51,15.51,0,0,0,1.63,1.34l0.445-.943a12.807,12.807,0,0,1-2.075-1.477v-0.054a11.275,11.275,0,0,0,2.157-3.439l-0.328-.369h-1.788v-1.928h-1.013v1.928h-2.02v0.827h3.848a8.45,8.45,0,0,1-1.684,2.557,14.463,14.463,0,0,1-2.691,2.358l0.458,0.684a13.069,13.069,0,0,0,2-1.538v5.626h1.061Zm9.984-.39v-0.855h-3.807v-6.343h3.321v-0.855h-3.321v-3.971h-1.089v3.971h-2.958v0.855h2.958v6.343h-3.972v0.855h8.868Zm14.257-7.41a15.409,15.409,0,0,1-3.452-1.966,15.223,15.223,0,0,1-2.869-2.662h-1.445a10.665,10.665,0,0,1-2.79,2.8,17,17,0,0,1-3.3,2.041l0.514,0.717a17.328,17.328,0,0,0,3.451-2.081,13.925,13.925,0,0,0,2.889-2.779,18.826,18.826,0,0,0,6.321,4.758Zm-3.233.41v-0.841h-7.4v0.841h7.4Zm-4.289,6.983q3.372-.23,4.687-0.4,0.4,0.519.63,0.861l0.993-.485q-0.466-.649-1.421-1.74a21.613,21.613,0,0,0-1.531-1.617l-0.856.472a21.076,21.076,0,0,1,1.582,1.764q-2.034.238-6.32,0.43a39.163,39.163,0,0,0,2.109-3.335H129.8v-0.848H117.7v0.848h4.109a26.628,26.628,0,0,1-2.041,3.383q-1.2.042-1.938,0.055l0.144,0.916Q119.825,265.741,123.2,265.512Zm16.485-4.269a8.37,8.37,0,0,0-.082-1.292q2.807-1.046,4.232-1.511l-0.452-.923-4.034,1.552a1.831,1.831,0,0,0-1.814-.991,6.548,6.548,0,0,0-1.212.16,3.549,3.549,0,0,0-1.055.332l-0.1-.055a14.664,14.664,0,0,0,1.335-2.078h5.451v-0.889h-5.088a10.334,10.334,0,0,0,.465-1.544l-1.136-.1a10.432,10.432,0,0,1-.486,1.64h-3.568v0.889h3.191a12.672,12.672,0,0,1-3.739,4.485l0.589,0.7,1.137-.957a7.42,7.42,0,0,1,2.352-1.494,5.94,5.94,0,0,1,1.77-.3,1.015,1.015,0,0,1,1.007.615,11.256,11.256,0,0,0-3.085,2.01,2.716,2.716,0,0,0-.88,1.88,1.8,1.8,0,0,0,1,1.64,10.169,10.169,0,0,0,4.293.574,32.583,32.583,0,0,0,3.766-.191l-0.068-.991a28.906,28.906,0,0,1-4.294.253,7.408,7.408,0,0,1-2.972-.38,1.142,1.142,0,0,1-.705-1.022q0-1.284,3.15-2.864,0.021,0.281.021,0.677v2.242h1.013v-2.071Zm8.751-6.18,0.555,1.258,0.958-.226-0.5-1.032h1.917v-0.738h-3.581q0.246-.4.465-0.82l-0.986-.185a8.542,8.542,0,0,1-1.992,2.755l0.7,0.472a7.41,7.41,0,0,0,1.315-1.484h1.143Zm6.177,0,0.589,1.155,0.972-.2-0.521-.957H158.1v-0.738h-4.4a6.411,6.411,0,0,0,.417-0.8l-0.986-.205a9.569,9.569,0,0,1-1.746,2.557l0.733,0.444a12.887,12.887,0,0,0,1.075-1.258h1.411Zm0.4,4.9a0.711,0.711,0,0,0,.195.5,1.026,1.026,0,0,0,.452.294,2.923,2.923,0,0,0,.818.082,2.265,2.265,0,0,0,1.284-.235,0.791,0.791,0,0,0,.284-0.64v-1.4l-0.787-.116c0,0.2-.011.441-0.031,0.735s-0.037.478-.048,0.553a0.353,0.353,0,0,1-.1.2,0.514,0.514,0,0,1-.26.123,1.37,1.37,0,0,1-.236.037q-0.6,0-.6-0.4v-3.015h-4.595v1.545a3.542,3.542,0,0,1-.236,1.388,2.582,2.582,0,0,1-.791,1l0.589,0.5A3.212,3.212,0,0,0,152,259.838a4.618,4.618,0,0,0,.312-1.835v-0.684h2.705v2.645Zm-4.568.171-0.054-.7q-0.822.144-1.658,0.267v-2.037h1.788v-0.739H145.9v0.739h1.835v2.18q-1.233.165-2.192,0.247l0.2,0.834q4.074-.609,4.7-0.787h0Zm4.109-.861q-0.644-.649-1.329-1.237l-0.657.41q0.863,0.793,1.287,1.271Zm-6.132,5.4a14.637,14.637,0,0,0,2.77-1.421v2.679h1.013v-2.755a16.215,16.215,0,0,0,2.684,1.456,15.807,15.807,0,0,0,3.027,1l0.514-.84a17.211,17.211,0,0,1-2.989-.889,15.006,15.006,0,0,1-2.715-1.367h5.258v-0.8h-5.731v-0.69h-1.075v0.69h-5.437v0.8h4.93a14.542,14.542,0,0,1-2.393,1.285,18.475,18.475,0,0,1-3.078,1.039l0.329,0.759A16.057,16.057,0,0,0,148.423,264.674Zm19.183-1.633q-1.342-.97-4.095-2.748a10,10,0,0,1-.832-0.575,0.342,0.342,0,0,1-.1-0.259,0.417,0.417,0,0,1,.158-0.322,6.374,6.374,0,0,1,.794-0.5,53.7,53.7,0,0,0,5.711-4.115l-0.842-.7q-1.2,1.073-2.418,1.972t-3.656,2.458a1.608,1.608,0,0,0-.842,1.237,1.044,1.044,0,0,0,.14.513,1.651,1.651,0,0,0,.37.451q0.229,0.2,1.126.789t1.37,0.886a35.922,35.922,0,0,1,4.683,3.684l0.856-.841Q168.949,264.011,167.606,263.041Zm9.025-9.147q0,0.951-.041,1.832h-2.554v0.909h2.493a19.7,19.7,0,0,1-.976,4.611,14.656,14.656,0,0,1-1.784,3.777l0.815,0.533a12.842,12.842,0,0,0,1.862-3.718,21.369,21.369,0,0,0,1.165-5.2h5.053v-0.909h-4.978q0.067-1.067.068-1.832h-1.123Zm8.142,4.027a50.769,50.769,0,0,0-5.293.28l0.068,0.9q2.939-.281,5.389-0.28c0.188,0,.393,0,0.617.014l0.013-.9c-0.223-.014-0.488-0.02-0.794-0.02h0Zm1.144,6.193a25.6,25.6,0,0,1-3.137.184,6.376,6.376,0,0,1-2.626-.307,0.861,0.861,0,0,1-.462-0.732,2.185,2.185,0,0,1,.5-1.292l-0.767-.43a2.722,2.722,0,0,0-.781,1.839,1.473,1.473,0,0,0,.514,1.134,2.593,2.593,0,0,0,1.407.6,18,18,0,0,0,2.462.13,18.452,18.452,0,0,0,2.944-.185Zm7.244-1.689a10.946,10.946,0,0,0,2.171-5.065,4.066,4.066,0,0,1,2.722.94,3.074,3.074,0,0,1,1.071,2.444q0,3.438-5.087,3.93l0.253,0.9a7.841,7.841,0,0,0,4.341-1.4,4.267,4.267,0,0,0,.244-6.456,5.135,5.135,0,0,0-3.428-1.231q0.1-.95.13-2.331l-1.123.014q0,1.093-.123,2.379a9.415,9.415,0,0,0-3.526,1.059,21.3,21.3,0,0,1-.61-2.529l-1.041.267a22.275,22.275,0,0,0,.726,2.85,6.247,6.247,0,0,0-1.753,1.989,4.882,4.882,0,0,0-.643,2.393,2.368,2.368,0,0,0,.544,1.586,1.76,1.76,0,0,0,1.407.642,4.459,4.459,0,0,0,3.027-1.585q0.281,0.382.507,0.663l0.787-.657q-0.35-.444-0.6-0.793h0Zm1.062-5a9.618,9.618,0,0,1-1.644,4.116,17.522,17.522,0,0,1-1.52-3.077,7.693,7.693,0,0,1,3.164-1.039h0Zm-4.616,6.406a1.018,1.018,0,0,1-.77-0.352,1.144,1.144,0,0,1-.325-0.8,5.36,5.36,0,0,1,.133-1.234,3.769,3.769,0,0,1,.531-1.175,5.738,5.738,0,0,1,1.034-1.173,17.619,17.619,0,0,0,1.691,3.288,3.547,3.547,0,0,1-2.294,1.443h0Zm14.058-3.247a20.808,20.808,0,0,1,.945-6.064l-1.054-.185a22.854,22.854,0,0,0-.938,6.194,16.248,16.248,0,0,0,.705,4.881l0.979-.226a16.3,16.3,0,0,1-.637-4.6h0Zm9.875-5.3V255.22q-0.363-.02-1.459-0.02-2.205,0-5.731.205,0.041,0.615.041,0.923,3.711-.192,5.129-0.192,0.965,0,2.054.021c-0.023-.374-0.034-0.665-0.034-0.875h0Zm0.116,8.62a22.19,22.19,0,0,1-2.739.164,16.749,16.749,0,0,1-2.167-.106,2.7,2.7,0,0,1-1.219-.434,1.014,1.014,0,0,1-.456-0.861,2.909,2.909,0,0,1,.843-2l-0.8-.424a4.09,4.09,0,0,0-1.027,2.481,1.841,1.841,0,0,0,.486,1.32,2.81,2.81,0,0,0,1.428.734,13.334,13.334,0,0,0,2.845.223,26.874,26.874,0,0,0,2.8-.151V263.9Zm5.04-.807a17.119,17.119,0,0,0,2.6-2.29v5.114h1.116v-5.155a14.961,14.961,0,0,0,2.626,2.311,17.567,17.567,0,0,0,3.064,1.784l0.665-.868a14.681,14.681,0,0,1-3.346-1.846,14.963,14.963,0,0,1-2.858-2.557h5.526v-0.9h-5.663v-2.358h4.964V255.48h-4.964v-1.989h-1.144v1.989h-4.718v0.855h4.718v2.358H215.69v0.9h5.334a11.442,11.442,0,0,1-2.554,2.506,17.977,17.977,0,0,1-3.438,2.068l0.487,0.752A16.037,16.037,0,0,0,218.7,263.1Zm13.9,0.359a18.579,18.579,0,0,0,2.667-2.293v4.758h1.116v-4.861a13.111,13.111,0,0,0,2.516,2.287,16.563,16.563,0,0,0,3.2,1.869l0.6-.909a15.421,15.421,0,0,1-3.444-1.962,11.3,11.3,0,0,1-2.684-2.44h5.683v-0.855h-2.807q0.815-1.3,1.362-2.372l-1.082-.3a24.035,24.035,0,0,1-1.431,2.672h-1.917v-3.329h5.362v-0.827h-5.362V253.45h-1.116v1.442h-5.225v0.827h5.225v3.329h-1.835q-0.795-1.8-1.226-2.611l-1.034.308q0.336,0.656,1.075,2.3h-2.616V259.9H235a13.355,13.355,0,0,1-2.431,2.369,17.033,17.033,0,0,1-3.513,2.191l0.486,0.751A15.807,15.807,0,0,0,232.6,263.454Zm22.141,0.291a4.732,4.732,0,0,0,1.705-3.931,4.248,4.248,0,0,0-1.691-3.558,7.385,7.385,0,0,0-9.1.567,5.622,5.622,0,0,0-2.027,4.215,4.2,4.2,0,0,0,.667,2.409,2.1,2.1,0,0,0,1.832.988q1.876,0,3.123-2.461a14.179,14.179,0,0,0,1.321-6.138,5.622,5.622,0,0,1,3.523,1.107,4.1,4.1,0,0,1-.3,6.187,7.729,7.729,0,0,1-3.77,1.278l0.267,0.923A8.019,8.019,0,0,0,254.741,263.745Zm-6.279-2.656q-0.952,2.39-2.232,2.389a1.3,1.3,0,0,1-1.164-.694,3.217,3.217,0,0,1-.418-1.692,4.753,4.753,0,0,1,1.431-3.373,5.834,5.834,0,0,1,3.417-1.795A15.043,15.043,0,0,1,248.462,261.089Zm21.611-3.251v-0.745h-3.485l0.979-1.927h2.164v-0.8h-5.294v-0.985h-1.061v0.985h-5.321v0.8h2.219l0.808,1.927h-2.568v2.243a10.8,10.8,0,0,1-1.349,5.94l0.692,0.472a7.676,7.676,0,0,0,1.229-2.759,15.8,15.8,0,0,0,.455-3.968v-1.183h10.532Zm-8.69-2.672h5.02l-0.856,1.927h-3.369Zm8.717,10.479v-0.827h-4.594v-1.839h3.41v-0.861h-3.41v-1.586h3.964v-0.814h-3.964v-1.21h-1.069v1.21h-2.088a9.208,9.208,0,0,0,.438-0.984l-1.013-.212a9.922,9.922,0,0,1-1.931,3.254l0.719,0.472a9.832,9.832,0,0,0,1.321-1.716h2.554v1.586h-3.232v0.861h3.232v1.839h-4.69v0.827H270.1Zm4.711-.953a11.463,11.463,0,0,0,2.637-1.439v2.72h1.006v-2.857a14.947,14.947,0,0,0,5.807,2.515l0.445-.888a16.487,16.487,0,0,1-2.879-.821,13.755,13.755,0,0,1-2.5-1.189h5.095v-0.82h-5.937v-1.108h4.978v-0.758h-4.978v-1.176h5.348v-0.814H280.7l0.781-1.456h2.848v-0.813H282.09l0.925-1.771-0.973-.253-0.917,2.024h-1.3v-2.229H278.81v2.229h-1.746v-2.229h-1v2.229h-1.226l-0.9-2-0.945.253,0.829,1.743h-2.048V256.6h2.7l0.7,1.456h-2.9v0.814h5.149v1.176h-4.779v0.758h4.779v1.108h-5.834v0.82h5.026a13.792,13.792,0,0,1-5.272,2.153l0.274,0.745A15.015,15.015,0,0,0,274.811,264.692Zm5.547-8.091-0.7,1.456h-3.4l-0.691-1.456h4.793Zm13.585,4.642a8.37,8.37,0,0,0-.082-1.292q2.808-1.046,4.232-1.511l-0.452-.923-4.033,1.552a1.832,1.832,0,0,0-1.815-.991,6.548,6.548,0,0,0-1.212.16,3.539,3.539,0,0,0-1.054.332l-0.1-.055a14.484,14.484,0,0,0,1.335-2.078h5.451v-0.889h-5.088a10.338,10.338,0,0,0,.466-1.544l-1.137-.1a10.326,10.326,0,0,1-.486,1.64H286.4v0.889h3.191a12.669,12.669,0,0,1-3.738,4.485l0.589,0.7,1.136-.957a7.42,7.42,0,0,1,2.352-1.494,5.951,5.951,0,0,1,1.77-.3,1.014,1.014,0,0,1,1.007.615,11.272,11.272,0,0,0-3.085,2.01,2.72,2.72,0,0,0-.88,1.88,1.8,1.8,0,0,0,1,1.64,10.176,10.176,0,0,0,4.293.574,32.6,32.6,0,0,0,3.767-.191l-0.069-.991a28.882,28.882,0,0,1-4.293.253,7.4,7.4,0,0,1-2.972-.38,1.142,1.142,0,0,1-.7-1.022q0-1.284,3.149-2.864,0.021,0.281.021,0.677v2.242h1.013v-2.071Zm11.723-4.567v-0.724h-3.437a8.979,8.979,0,0,0,1.712-1.778,11.217,11.217,0,0,0,3.472,2.906l0.534-.759a12.783,12.783,0,0,1-2.154-1.48,6.677,6.677,0,0,1-1.222-1.309h-1.349a8.477,8.477,0,0,1-1.753,1.907,12.472,12.472,0,0,1-2.239,1.511l0.431,0.656a11.842,11.842,0,0,0,2.458-1.572v0.642h3.547Zm6.084,8.744a0.913,0.913,0,0,0,.312-0.732V253.532h-1.089v10.643a0.5,0.5,0,0,1-.6.54H309.1l0.185,0.971h1.671A1.174,1.174,0,0,0,311.75,265.42Zm-2.276-2.79v-8.155h-1.027v8.155h1.027Zm-2.418-1.155V257.5h-6.292v2.03a8.614,8.614,0,0,1-1.562,5.523l0.6,0.561a7.829,7.829,0,0,0,1.78-4.143h5.471Zm-5.293-2.331v-0.936h4.294v0.936h-4.294Zm0,0.7v-0.041h4.294v0.937h-4.342a7,7,0,0,0,.048-0.9h0Zm4.664,5.968h0.986V262.4h-5.78v3.411h0.973v-0.472h3.821v0.472Zm-3.821-2.714h3.821v1.545h-3.821V263.1Zm23.781-5.14h-4.019v-2.024h3.506v-0.772h-3.506v-1.7h-1.055v1.7H319.43a11.727,11.727,0,0,0,.52-1.286l-1.013-.218a9.97,9.97,0,0,1-1.691,3.26l0.842,0.445a6.88,6.88,0,0,0,.952-1.429h2.273v2.024h-4.15v0.813h9.224v-0.813Zm-11.531-4.341-0.87.547a16.422,16.422,0,0,1,1.644,2.337l0.958-.567q-0.657-.992-1.732-2.317h0Zm7.306,11.149q-2.526,0-3.091-.082t-1.168-.222a2.33,2.33,0,0,1-1.051-.544,1.339,1.339,0,0,1-.449-1.045V258.5h-2.889v0.841h1.814v4.169a6.946,6.946,0,0,1-.955.715,7.94,7.94,0,0,1-1.058.612l0.37,0.916a8.33,8.33,0,0,0,2.246-1.7,2.437,2.437,0,0,0,1,.912,4.883,4.883,0,0,0,1.709.523,39.934,39.934,0,0,0,4.218.137l3.821-.014,0.2-.93q-1.506.1-4.711,0.1h0Zm3.28-4.833h-7.265v3.739h7.265v-3.739Zm-6.238,2.94v-2.188h5.225v2.188H319.2Z" transform="translate(-47.969 -157.656)"/>
</svg>
