<svg xmlns="http://www.w3.org/2000/svg" viewBox="0 0 108.4 40.9"><path d="M6.8 40.5h5.7V4.2h6.6V0H0v4.2h6.8v36.3zm23.8.4c2.8 0 4.9-.8 6.2-2.4s2-3.9 1.9-7v-1.1h-5.2v1.8c.1 1.2-.1 2.4-.6 3.6-.5.8-1.4 1.3-2.3 1.2-1 .1-1.9-.4-2.5-1.2-.6-1.2-.9-2.5-.8-3.8v-5.8h11.4v-2.4c.1-2.4-.1-4.7-.6-7.1-.3-1.6-1.1-3-2.3-4.1-1.5-1.1-3.4-1.6-5.3-1.4-3.2 0-5.4.9-6.7 2.8s-1.9 4.8-1.9 8.8v6.6c-.1 2.2.2 4.4.8 6.5.4 1.5 1.3 2.9 2.6 3.8 1.7.9 3.5 1.3 5.3 1.2zm-3.2-17.6v-1.6c0-1.3.1-2.7.2-4 .1-.7.4-1.4.9-2 .6-.4 1.3-.7 2-.6 1-.1 2 .4 2.4 1.3.5 1.4.7 2.8.6 4.2v2.6s-6.1 0-6.1.1zm16.4 17.2h5.3V19.4c.5-.9 1.2-1.6 2-2.2.7-.4 1.5-.6 2.3-.6 1 0 2 .2 3 .6v-5.9c-.3 0-.6-.1-.9-.1-1.2 0-2.3.4-3.3 1-1.3.9-2.3 2.1-3.1 3.4v-4.1h-5.3v29zm15.9 0h4.9V17c.7-.7 1.4-1.3 2.2-1.7.7-.4 1.5-.6 2.2-.6s1.4.2 1.9.8c.5.8.7 1.8.6 2.8v22.3h4.9V17c.6-.7 1.4-1.3 2.2-1.7.7-.4 1.5-.6 2.3-.6.7 0 1.4.2 1.9.8.5.8.7 1.8.6 2.8v22.3h4.9V17.8c.1-1.8-.4-3.6-1.4-5.1-.9-1.1-2.3-1.7-3.7-1.6-2.8 0-5.5 1.4-7.2 3.7-.4-2.2-2.4-3.8-4.7-3.6-1.3 0-2.5.3-3.6.8-1.2.6-2.3 1.4-3.2 2.4v-2.8h-4.9l.1 28.9zm40.7.4c2.1.1 4.2-.6 5.9-1.9 1.5-1.4 2.3-3.4 2.1-5.5 0-1.5-.3-3-1.1-4.2-.8-1.3-1.9-2.5-3-3.5l-5.1-4.7c-.9-.7-1.4-1.8-1.4-2.9 0-.8.3-1.5.8-2.1 1.1-1.1 3-1.1 4.1 0 .1.1.2.3.3.4.6 1.2 1 2.4 1.1 3.7l3.6-1.4c-.1-2-.9-3.9-2.2-5.5-1.3-1.4-3.2-2.2-5.2-2.1-2-.1-3.9.6-5.4 1.9-1.4 1.4-2.1 3.3-2 5.2 0 1.4.3 2.8.9 4 .7 1.2 1.6 2.2 2.6 3.1l4.9 4.2c.7.6 1.3 1.3 1.8 2 .4.7.6 1.5.6 2.3s-.2 1.6-.8 2.2c-.6.6-1.4.9-2.2.8-1.1.1-2.1-.5-2.8-1.3-.8-1.3-1.2-2.7-1.4-4.1l-4.4 1.4c.1 2.2 1 4.3 2.5 5.9 1.6 1.4 3.7 2.2 5.8 2.1z"/></svg>