<?xml version="1.0" encoding="utf-8"?>
<!-- Generator: Adobe Illustrator 21.0.2, SVG Export Plug-In . SVG Version: 6.00 Build 0)  -->
<svg version="1.1" id="タイトル" xmlns="http://www.w3.org/2000/svg" xmlns:xlink="http://www.w3.org/1999/xlink" x="0px"
	 y="0px" viewBox="0 0 108.4 40.9" style="enable-background:new 0 0 108.4 40.9;" xml:space="preserve">
<path id="Terms" d="M6.8,40.5h5.7V4.2h6.6V0H0v4.2h6.8C6.8,4.2,6.8,40.5,6.8,40.5z M30.6,40.9c2.8,0,4.9-0.8,6.2-2.4s2-3.9,1.9-7
	v-1.1h-5.2v1.8c0.1,1.2-0.1,2.4-0.6,3.6c-0.5,0.8-1.4,1.3-2.3,1.2c-1,0.1-1.9-0.4-2.5-1.2c-0.6-1.2-0.9-2.5-0.8-3.8v-5.8h11.4v-2.4
	c0.1-2.4-0.1-4.7-0.6-7.1c-0.3-1.6-1.1-3-2.3-4.1c-1.5-1.1-3.4-1.6-5.3-1.4c-3.2,0-5.4,0.9-6.7,2.8s-1.9,4.8-1.9,8.8v6.6
	c-0.1,2.2,0.2,4.4,0.8,6.5c0.4,1.5,1.3,2.9,2.6,3.8C27,40.6,28.8,41,30.6,40.9L30.6,40.9z M27.4,23.3v-1.6c0-1.3,0.1-2.7,0.2-4
	c0.1-0.7,0.4-1.4,0.9-2c0.6-0.4,1.3-0.7,2-0.6c1-0.1,2,0.4,2.4,1.3c0.5,1.4,0.7,2.8,0.6,4.2v2.6C33.5,23.2,27.4,23.2,27.4,23.3z
	 M43.8,40.5h5.3V19.4c0.5-0.9,1.2-1.6,2-2.2c0.7-0.4,1.5-0.6,2.3-0.6c1,0,2,0.2,3,0.6v-5.9c-0.3,0-0.6-0.1-0.9-0.1
	c-1.2,0-2.3,0.4-3.3,1c-1.3,0.9-2.3,2.1-3.1,3.4v-4.1h-5.3C43.8,11.6,43.8,40.5,43.8,40.5z M59.7,40.5h4.9V17
	c0.7-0.7,1.4-1.3,2.2-1.7c0.7-0.4,1.5-0.6,2.2-0.6s1.4,0.2,1.9,0.8c0.5,0.8,0.7,1.8,0.6,2.8v22.3h4.9V17c0.6-0.7,1.4-1.3,2.2-1.7
	c0.7-0.4,1.5-0.6,2.3-0.6c0.7,0,1.4,0.2,1.9,0.8c0.5,0.8,0.7,1.8,0.6,2.8v22.3h4.9V17.8c0.1-1.8-0.4-3.6-1.4-5.1
	c-0.9-1.1-2.3-1.7-3.7-1.6c-2.8,0-5.5,1.4-7.2,3.7c-0.4-2.2-2.4-3.8-4.7-3.6c-1.3,0-2.5,0.3-3.6,0.8c-1.2,0.6-2.3,1.4-3.2,2.4v-2.8
	h-4.9L59.7,40.5L59.7,40.5z M100.4,40.9c2.1,0.1,4.2-0.6,5.9-1.9c1.5-1.4,2.3-3.4,2.1-5.5c0-1.5-0.3-3-1.1-4.2
	c-0.8-1.3-1.9-2.5-3-3.5l-5.1-4.7c-0.9-0.7-1.4-1.8-1.4-2.9c0-0.8,0.3-1.5,0.8-2.1c1.1-1.1,3-1.1,4.1,0c0.1,0.1,0.2,0.3,0.3,0.4
	c0.6,1.2,1,2.4,1.1,3.7l3.6-1.4c-0.1-2-0.9-3.9-2.2-5.5c-1.3-1.4-3.2-2.2-5.2-2.1c-2-0.1-3.9,0.6-5.4,1.9c-1.4,1.4-2.1,3.3-2,5.2
	c0,1.4,0.3,2.8,0.9,4c0.7,1.2,1.6,2.2,2.6,3.1l4.9,4.2c0.7,0.6,1.3,1.3,1.8,2c0.4,0.7,0.6,1.5,0.6,2.3s-0.2,1.6-0.8,2.2
	c-0.6,0.6-1.4,0.9-2.2,0.8c-1.1,0.1-2.1-0.5-2.8-1.3c-0.8-1.3-1.2-2.7-1.4-4.1l-4.4,1.4c0.1,2.2,1,4.3,2.5,5.9
	C96.2,40.2,98.3,41,100.4,40.9L100.4,40.9L100.4,40.9z"/>
</svg>
