<?xml version="1.0" encoding="utf-8"?>
<!-- Generator: Adobe Illustrator 21.0.2, SVG Export Plug-In . SVG Version: 6.00 Build 0)  -->
<svg version="1.1" id="news_main_title.svg" xmlns="http://www.w3.org/2000/svg" xmlns:xlink="http://www.w3.org/1999/xlink"
	 x="0px" y="0px" viewBox="0 0 91.1 40.9" style="enable-background:new 0 0 91.1 40.9;" xml:space="preserve">
<path id="News_Event" d="M0,40.5h4.8V12.8l11.7,27.6H20V0h-4.7v26.9L3.8,0H0V40.5z M34,40.9c2.8,0,4.9-0.8,6.2-2.4s2-3.9,2-6.9v-1.1
	H37v1.8c0.1,1.2-0.1,2.4-0.6,3.6c-0.5,0.8-1.4,1.3-2.3,1.2c-1,0.1-1.9-0.4-2.5-1.2c-0.6-1.2-0.9-2.5-0.8-3.8v-5.8h11.4V24
	c0.1-2.4-0.1-4.7-0.6-7.1c-0.3-1.6-1.1-3-2.3-4.1c-1.5-1.1-3.4-1.6-5.3-1.4c-3.2,0-5.4,0.9-6.7,2.8S25.4,19,25.4,23v6.6
	c-0.1,2.2,0.2,4.4,0.8,6.5c0.4,1.5,1.3,2.9,2.6,3.8C30.3,40.5,32.1,41,34,40.9L34,40.9L34,40.9z M30.8,23.2v-1.6
	c0-1.3,0.1-2.7,0.2-4c0.1-0.7,0.4-1.4,0.9-2c0.6-0.4,1.3-0.7,2-0.6c1-0.1,2,0.4,2.4,1.3c0.5,1.4,0.7,2.8,0.6,4.2v2.6L30.8,23.2
	L30.8,23.2z M50.3,40.5h4.8L59,20.1l4,20.4h4.5l4.8-28.9h-4.4l-3,21.2L61,11.6h-4l-3.8,21.3l-3-21.3h-4.4L50.3,40.5z M83.1,40.9
	c2.1,0.1,4.2-0.6,5.8-1.9c1.5-1.4,2.3-3.4,2.2-5.5c0-1.5-0.3-3-1.1-4.2c-0.8-1.3-1.9-2.5-3-3.6L81.9,21c-0.9-0.7-1.4-1.8-1.5-2.9
	c0-0.8,0.3-1.5,0.8-2.1c1.1-1.1,3-1.1,4.1,0c0.1,0.1,0.2,0.3,0.3,0.4c0.6,1.2,1,2.4,1.2,3.7l3.6-1.4c-0.1-2-0.9-3.9-2.2-5.5
	C86.9,11.8,85,11,83,11.1c-2-0.1-3.9,0.6-5.5,1.9c-1.4,1.4-2.1,3.3-2,5.2c0,1.4,0.3,2.8,0.9,4c0.7,1.2,1.6,2.2,2.6,3.1l5,4.2
	c0.7,0.6,1.3,1.3,1.8,2.1c0.4,0.7,0.6,1.5,0.5,2.2c0,0.8-0.2,1.6-0.8,2.2c-0.6,0.6-1.4,0.9-2.2,0.8c-1.1,0.1-2.1-0.5-2.8-1.4
	c-0.8-1.3-1.2-2.7-1.4-4.1l-4.5,1.4c0.1,2.2,1,4.3,2.5,5.9C78.9,40.2,81,40.9,83.1,40.9L83.1,40.9L83.1,40.9z"/>
</svg>
