<svg id="portfolio_main_title.svg" xmlns="http://www.w3.org/2000/svg" width="151.094" height="89.312" viewBox="0 0 151.094 89.312">
  <defs>
    <style>
      .cls-1 {
        fill-rule: evenodd;
      }
    </style>
  </defs>
  <path id="投資対象" class="cls-1" d="M644.967,313.1v8.012a0.979,0.979,0,0,1-1.143,1.07H641.07l0.279,1.889h3.486a2.693,2.693,0,0,0,1.677-.564,1.808,1.808,0,0,0,.74-1.516v-9.6q2.007-.628,2.886-1l-0.22-1.713q-0.981.366-2.666,0.849V304.8h3.091v-1.8h-3.091v-5.332h-2.285v5.332h-3.9v1.8h3.9v6.357q-3.179.821-4.688,1.084l0.557,1.949q1.6-.353,4.131-1.084h0Zm23.862-9.888-1.8-.278a9.122,9.122,0,0,1-.058,1.552l-0.1.806a1.077,1.077,0,0,1-.395.842,2.61,2.61,0,0,1-1.48.286,2.661,2.661,0,0,1-1.435-.249,0.837,0.837,0,0,1-.323-0.7v-7.134h-9.55v2.944a8.52,8.52,0,0,1-2.784,6.636l1.377,1.2a9.479,9.479,0,0,0,2.63-3.479,11.1,11.1,0,0,0,.974-4.665V299.99h5.112v6.123a1.751,1.751,0,0,0,.227.872,2.254,2.254,0,0,0,.63.7,1.828,1.828,0,0,0,.879.359q0.476,0.058,1.128.095t1.355,0.037a8.416,8.416,0,0,0,2.2-.191,2.058,2.058,0,0,0,1.011-.71,1.921,1.921,0,0,0,.41-1.223v-2.842Zm-3.223,12.092a14.2,14.2,0,0,0,1.509-5.149h-15.63v1.714H653.2a14.582,14.582,0,0,0,5.054,7.573,22.726,22.726,0,0,1-8.174,2.945l0.6,1.714a25.8,25.8,0,0,0,9.448-3.326,26.012,26.012,0,0,0,7.749,3.179l1.069-1.846a23.532,23.532,0,0,1-6.884-2.666A13.536,13.536,0,0,0,665.606,315.305ZM655.47,311.87h8.979q-0.571,3.472-4.306,6.3a12.046,12.046,0,0,1-4.673-6.3h0Zm38.789-11.411a17.937,17.937,0,0,1-2.022,2.417l1.48,0.762a18.345,18.345,0,0,0,3.545-3.941l-0.484-.747H684.356q0.5-.6,1.158-1.553L683.375,297a12.8,12.8,0,0,1-1.912,2.432,22.765,22.765,0,0,1-2.688,2.431l1.26,1.04a14.412,14.412,0,0,0,2.944-2.446h3.077v0.117a4.415,4.415,0,0,1-2.359,3.75,15.063,15.063,0,0,1-6.533,1.978l0.4,1.494a17.849,17.849,0,0,0,5.9-1.362,8.078,8.078,0,0,0,4-3.018,9.029,9.029,0,0,0,3.494,2.783,27.657,27.657,0,0,0,6.862,2.022l0.879-1.641a22.663,22.663,0,0,1-7.712-2.388q-2.4-1.479-2.791-2.944c0.039-.225.074-0.488,0.1-0.791h5.962Zm-16.084-.835a27.391,27.391,0,0,0-4.014-1.8l-1.2,1.319a31.762,31.762,0,0,1,3.984,1.889Zm0,3.677-1.509-.879a29.527,29.527,0,0,1-5.229,3.852l1.318,1.275a25.175,25.175,0,0,0,5.42-4.248h0Zm17.651,16.64V308.53H674.132v11.411h21.694ZM676.3,309.966h17.285v1.846H676.3v-1.846Zm0,3.164h17.285v1.89H676.3v-1.89Zm17.285,5.259H676.3v-2.022h17.285v2.022Zm-16.816,4.826a26.993,26.993,0,0,0,4.423-1.618L679.7,320.22a24.132,24.132,0,0,1-3.948,1.421,38.079,38.079,0,0,1-4.5,1.054l0.747,1.626A37.769,37.769,0,0,0,676.769,323.215Zm21.65-.666a41.9,41.9,0,0,1-9.023-2.329l-1.348,1.435a41.173,41.173,0,0,0,9.3,2.666Zm29.868-19.072h-3.149v-6.021h-2.3v6.021h-7.046v1.816h7.046v15.454a0.973,0.973,0,0,1-.388.784,1.388,1.388,0,0,1-.9.315H717.7l0.249,1.992h4.644a2.543,2.543,0,0,0,1.78-.711,2.29,2.29,0,0,0,.769-1.75V305.293h3.149v-1.816Zm-17.856,10.546a24.429,24.429,0,0,0,2.314-9.741h1.611v-1.8h-5.009v-4.687h-2.212v4.687h-5.508v1.8h8.906a22.079,22.079,0,0,1-1.714,8.1q-3.369-3.34-5.009-4.673l-1.509,1.348a71.109,71.109,0,0,1,5.537,5.39,25.91,25.91,0,0,1-7.251,8.218l1.2,1.436a26.149,26.149,0,0,0,7.515-8.042,49.281,49.281,0,0,1,3.442,4.13l1.86-1.406a51.153,51.153,0,0,0-4.174-4.761h0Zm6.767-5.61-1.977.762a69.361,69.361,0,0,1,2.622,6.694l2.153-.791q-1.362-3.661-2.8-6.665h0Zm22.171,12.319a46.19,46.19,0,0,0,6.7-3.222,5.526,5.526,0,0,1,.249,1.3,5,5,0,0,1-.315,1.912,2.217,2.217,0,0,1-.893,1.1,2.8,2.8,0,0,1-1.3.381q-0.725.036-2.278,0.036h-0.82l0.337,1.934q1.89,0.029,2.79.029a14.056,14.056,0,0,0,1.941-.146,2.955,2.955,0,0,0,1.9-1.3,6.287,6.287,0,0,0,.864-3.728,12.192,12.192,0,0,0-1.45-4.944,20.34,20.34,0,0,0-3.369-5.09l3.867-.029a24.992,24.992,0,0,0,3.442,7.287,23.4,23.4,0,0,0,6.05,6.482l1.655-1.6a25.017,25.017,0,0,1-5.727-5.713,31.927,31.927,0,0,0,5.39-3.531l-1.655-1.377a30.386,30.386,0,0,1-4.687,3.457,21.536,21.536,0,0,1-2.271-5.009h6.621v-6.314h-8.35q1.684-1.728,2.9-3.178l-0.879-.674h-9.023a11.5,11.5,0,0,0,1.157-1.289L739.859,297a24.343,24.343,0,0,1-9.36,6.855l0.938,1.495a36.938,36.938,0,0,0,3.618-1.934v5.552h5.288a42.271,42.271,0,0,1-9.112,3.486l0.762,1.494a47.972,47.972,0,0,0,10.122-4.043,13.245,13.245,0,0,1,1.333,1.787,31.311,31.311,0,0,1-5.617,2.989,38.31,38.31,0,0,1-6.321,2.08l0.6,1.538a43.978,43.978,0,0,0,12.217-5.054,22.655,22.655,0,0,1,1.113,2.432,43.7,43.7,0,0,1-14.033,5.742l0.7,1.553A43.363,43.363,0,0,0,739.369,320.732Zm8.386-20.361a18.125,18.125,0,0,1-1.831,2.285h-9.683q1.656-1.113,3.076-2.285h8.438Zm6.489,7.031h-7.5v-3.149h7.5V307.4Zm-9.609,0h-7.442v-3.149h7.442V307.4Z" transform="translate(-624.75 -235)"/>
  <path id="Portfolio" class="cls-1" d="M624.759,275.5h5.65v-18.85h4.45q4.849,0,7.4-2.75t2.55-7.7q0-5.5-2.375-8.35T634.809,235h-10.05v40.5Zm5.65-22.9v-13.55h2.65a10.764,10.764,0,0,1,4.175.6,3.171,3.171,0,0,1,1.775,2.05,16.692,16.692,0,0,1,.45,4.55,9.946,9.946,0,0,1-.6,3.9,3.508,3.508,0,0,1-1.975,1.9,10.793,10.793,0,0,1-3.875.55h-2.6Zm25.85,23.3q4.55,0,6.475-2.725t1.925-7.925v-8.4q0-5.2-1.925-7.925t-6.475-2.725q-4.6,0-6.525,2.725t-1.925,7.925v8.4q0,5.2,1.925,7.925t6.525,2.725h0Zm0-3.95a2.548,2.548,0,0,1-2.125-.85,4.081,4.081,0,0,1-.825-2.1,30.056,30.056,0,0,1-.15-3.4v-9.05a30.763,30.763,0,0,1,.15-3.425,4.113,4.113,0,0,1,.825-2.125,2.551,2.551,0,0,1,2.125-.85,2.48,2.48,0,0,1,2.1.85,4.245,4.245,0,0,1,.8,2.125,30.763,30.763,0,0,1,.15,3.425v9.05a30.056,30.056,0,0,1-.15,3.4,4.212,4.212,0,0,1-.8,2.1,2.477,2.477,0,0,1-2.1.85h0Zm13.449,3.55h5.35V254.4a6.39,6.39,0,0,1,1.975-2.175,4.372,4.372,0,0,1,2.325-.625,8.459,8.459,0,0,1,2.95.6v-5.9a6.93,6.93,0,0,0-.85-0.05,6.1,6.1,0,0,0-3.325,1,10.469,10.469,0,0,0-3.075,3.45v-4.1h-5.35v28.9Zm23.6,0.4a25.062,25.062,0,0,0,3.7-.3v-3.95a12.48,12.48,0,0,1-1.95.15,2.561,2.561,0,0,1-2.1-.7,4.079,4.079,0,0,1-.55-2.45v-18.5h4.65V246.6h-4.65v-8.45h-5.35v8.45h-3.05v3.55h3.05V269q0,6.9,6.25,6.9h0Zm9.4-.4h5.35v-24.95h4.4V246.6h-4.4v-2.4a6.438,6.438,0,0,1,.475-2.825,1.955,1.955,0,0,1,1.925-.925,8.2,8.2,0,0,1,2,.25v-3.9a17.832,17.832,0,0,0-3.5-.35,6.7,6.7,0,0,0-3.975,1,4.766,4.766,0,0,0-1.825,2.825,20.862,20.862,0,0,0-.45,4.825v1.5h-3.45v3.95h3.45V275.5Zm20.6,0.4q4.548,0,6.475-2.725t1.925-7.925v-8.4q0-5.2-1.925-7.925t-6.475-2.725q-4.6,0-6.525,2.725t-1.925,7.925v8.4q0,5.2,1.925,7.925t6.525,2.725h0Zm0-3.95a2.547,2.547,0,0,1-2.125-.85,4.081,4.081,0,0,1-.825-2.1,30.056,30.056,0,0,1-.15-3.4v-9.05a30.763,30.763,0,0,1,.15-3.425,4.113,4.113,0,0,1,.825-2.125,2.55,2.55,0,0,1,2.125-.85,2.48,2.48,0,0,1,2.1.85,4.255,4.255,0,0,1,.8,2.125,30.763,30.763,0,0,1,.15,3.425v9.05a30.056,30.056,0,0,1-.15,3.4,4.222,4.222,0,0,1-.8,2.1,2.477,2.477,0,0,1-2.1.85h0Zm13.8,3.55h5.35V235h-5.35v40.5Zm11.3-33.2h5.35v-5.6h-5.35v5.6Zm0,33.2h5.35V246.6h-5.35v28.9Zm19.05,0.4q4.549,0,6.475-2.725t1.925-7.925v-8.4q0-5.2-1.925-7.925t-6.475-2.725q-4.6,0-6.525,2.725t-1.925,7.925v8.4q0,5.2,1.925,7.925t6.525,2.725h0Zm0-3.95a2.548,2.548,0,0,1-2.125-.85,4.081,4.081,0,0,1-.825-2.1,30.056,30.056,0,0,1-.15-3.4v-9.05a30.763,30.763,0,0,1,.15-3.425,4.113,4.113,0,0,1,.825-2.125,2.551,2.551,0,0,1,2.125-.85,2.48,2.48,0,0,1,2.1.85,4.245,4.245,0,0,1,.8,2.125,30.763,30.763,0,0,1,.15,3.425v9.05a30.056,30.056,0,0,1-.15,3.4,4.212,4.212,0,0,1-.8,2.1,2.477,2.477,0,0,1-2.1.85h0Z" transform="translate(-624.75 -235)"/>
</svg>
