<svg xmlns="http://www.w3.org/2000/svg" width="103.406" height="40.906" viewBox="0 0 103.406 40.906">
  <defs>
    <style>
      .cls-1 {
        fill-rule: evenodd;
      }
    </style>
  </defs>
  <path id="aboutus_main_title_en.svg" class="cls-1" d="M647.983,124.5h5.3l1.95-10.2h8.25l1.85,10.2h5.35L662.033,84h-5.45Zm8-14.25L659.333,92l3.4,18.25h-6.75Zm28.7,14.65q7.149,0,7.15-11.85v-7a20.322,20.322,0,0,0-1.325-7.475,5.136,5.136,0,0,0-5.275-3.375,7.05,7.05,0,0,0-5.45,2.7V84h-5.35v40.5h5.35v-2.1a6.657,6.657,0,0,0,4.9,2.5h0Zm-1.1-4.2a5.965,5.965,0,0,1-3.8-1.3v-18.55a5.882,5.882,0,0,1,3.6-1.45,2.407,2.407,0,0,1,2.5,1.725,15.691,15.691,0,0,1,.6,4.925v7a23.216,23.216,0,0,1-.525,5.775,2.284,2.284,0,0,1-2.375,1.875h0Zm21.049,4.2q4.549,0,6.475-2.725t1.925-7.925v-8.4q0-5.2-1.925-7.925T704.632,95.2q-4.6,0-6.525,2.725t-1.925,7.925v8.4q0,5.2,1.925,7.925t6.525,2.725h0Zm0-3.95a2.548,2.548,0,0,1-2.125-.85,4.081,4.081,0,0,1-.825-2.1,30.056,30.056,0,0,1-.15-3.4v-9.05a30.763,30.763,0,0,1,.15-3.425,4.113,4.113,0,0,1,.825-2.125,2.55,2.55,0,0,1,2.125-.85,2.476,2.476,0,0,1,2.1.85,4.245,4.245,0,0,1,.8,2.125,30.763,30.763,0,0,1,.15,3.425v9.05a30.056,30.056,0,0,1-.15,3.4,4.212,4.212,0,0,1-.8,2.1,2.475,2.475,0,0,1-2.1.85h0Zm17.45,3.95q3.6,0,7.05-3.25v2.85h5.35V95.6h-5.35v23.3a6.285,6.285,0,0,1-3.75,1.8,1.928,1.928,0,0,1-1.8-.825,4.86,4.86,0,0,1-.5-2.475V95.6h-5.35V119a8.146,8.146,0,0,0,1,4.2,3.573,3.573,0,0,0,3.35,1.7h0Zm25.549,0a25.073,25.073,0,0,0,3.7-.3v-3.95a12.5,12.5,0,0,1-1.95.15,2.558,2.558,0,0,1-2.1-.7,4.079,4.079,0,0,1-.55-2.45v-18.5h4.65V95.6h-4.65v-8.45h-5.35V95.6h-3.05v3.55h3.05V118q0,6.9,6.25,6.9h0Z" transform="translate(-647.969 -84)"/>
</svg>
