<?xml version="1.0" encoding="utf-8"?>
<!-- Generator: Adobe Illustrator 21.0.2, SVG Export Plug-In . SVG Version: 6.00 Build 0)  -->
<svg version="1.1" id="レイヤー_1" xmlns="http://www.w3.org/2000/svg" xmlns:xlink="http://www.w3.org/1999/xlink" x="0px"
	 y="0px" viewBox="0 0 118.9 23.2" style="enable-background:new 0 0 118.9 23.2;" xml:space="preserve">
<style type="text/css">
	.st0{clip-path:url(#SVGID_2_);fill:#0068B6;}
</style>
<g>
	<defs>
		<rect id="SVGID_1_" y="0" width="118.9" height="23.2"/>
	</defs>
	<clipPath id="SVGID_2_">
		<use xlink:href="#SVGID_1_"  style="overflow:visible;"/>
	</clipPath>
	<path class="st0" d="M11.6,18.4c-3.7,0-6.8-2.9-6.8-6.8c0-3.7,2.9-6.8,6.8-6.8c3.7,0,6.8,2.9,6.8,6.8
		C18.4,15.3,15.4,18.4,11.6,18.4 M11.6,23.2c6.4,0,11.6-5.2,11.6-11.6C23.2,5.1,18,0,11.6,0S0,5.1,0,11.6C0.1,18,5.3,23.2,11.6,23.2
		"/>
	<path class="st0" d="M86.7,23.2c-6.4,0-11.6-5.2-11.6-11.6C75.1,5.1,80.3,0,86.7,0c6.5,0,11.6,5.2,11.6,11.6
		C98.3,18,93,23.2,86.7,23.2 M86.7,18.4c3.7,0,6.8-2.9,6.8-6.8c0-3.7-2.9-6.8-6.8-6.8c-3.7,0-6.8,2.9-6.8,6.8
		C80,15.3,82.9,18.4,86.7,18.4"/>
	<path class="st0" d="M25.7,0.7v21.8h4.8V4.7h5.3v17.9h4.8V4.7h1.9c1.9,0,3.3,1.6,3.3,3.3v14.4h4.8V8.2c0-4.3-3.4-7.6-7.6-7.6H30.7
		C29,0.5,27.3,0.6,25.7,0.7"/>
	<path class="st0" d="M100.6,0.7v21.8h4.8V4.7h5.4c1.9,0,3.3,1.6,3.3,3.3v14.4h4.8V8.2c0-4.3-3.4-7.6-7.6-7.6h-6
		C103.8,0.5,102.1,0.6,100.6,0.7"/>
	<path class="st0" d="M54.6,0.7v21.8h4.8V4.7h5.9c1.9,0,3.3,1.6,3.3,3.3s-1.6,3.3-3.3,3.3h-4.2l7.4,11.2h6l-5.4-7.9
		c2.5-1,4.4-3.6,4.4-6.6c0-4.2-3.3-7.5-7.5-7.5h-6.5C57.9,0.5,56.3,0.6,54.6,0.7"/>
</g>
</svg>
