<svg id="uc_main_title.svg" xmlns="http://www.w3.org/2000/svg" width="346.156" height="79.032" viewBox="0 0 346.156 79.032">
  <defs>
    <style>
      .cls-1 {
        fill-rule: evenodd;
      }
    </style>
  </defs>
  <path id="準備中" class="cls-1" d="M681.5,219.672v-3.4h8.115v-1.2H681.5V213.5h8.057v-1.1H684.6v-1.835h4.228v-1.055H684.6V207.9h4.062v-1.1H684.6v-1.67h4.531v-1.142h-4.395q0.957-1.427,1.172-1.856l-1.533-.352q-0.381.9-1.064,2.208h-3.457q0.7-1.134,1.181-2.1l-1.494-.352A19.131,19.131,0,0,1,675.977,207l0.791,0.713a13.766,13.766,0,0,0,1.142-1.328V213.5h2.022v1.572h-8.125v1.2h8.125v3.4H681.5Zm1.631-14.551v1.67h-3.76v-1.67h3.76Zm0,2.774v1.611h-3.76V207.9h3.76Zm0,2.666V212.4h-3.76v-1.835h3.76Zm-6.69-6.67q-0.742-.626-2.6-1.934l-0.938.938,2.549,2.06Zm-1.591,3.447q-1.574-1.21-2.657-1.914l-0.879,1a30.431,30.431,0,0,1,2.6,2Zm0.083,4.487a22.25,22.25,0,0,0,1.684-2.261l-1.055-.712a21.715,21.715,0,0,1-3.466,4.082l0.9,1.015A25.243,25.243,0,0,0,674.937,211.825Zm20.434,7.73V207.748h-0.605a28.508,28.508,0,0,0,2.031-5.771l-1.543-.147a22.966,22.966,0,0,1-1.655,4.976,29.715,29.715,0,0,1-2.671,5l1,0.732a23.821,23.821,0,0,0,1.943-2.949v9.961h1.5Zm6.289-14.19V204.3h3.594v1.064h1.533V204.3h3.2v-1.1h-3.2v-1.259h-1.533V203.2H701.66v-1.259h-1.523V203.2h-3.184v1.1h3.184v1.064h1.523Zm8.486,1.895V206.2H697.178v4.942a18.674,18.674,0,0,1-1.328,7.48l1.045,0.6a18.091,18.091,0,0,0,1.63-8.389V207.26h11.621Zm-2.216,10.176a0.606,0.606,0,0,1-.713.654h-1.065l0.166,1.221h1.5a1.7,1.7,0,0,0,1.094-.352,1.091,1.091,0,0,0,.439-0.889v-9.384h-9.482v10.869H701.3v-3.848h2.568v3.652h1.406v-3.652h2.657v1.729Zm-6.631-5.791v-1.9h2.568v1.9H701.3Zm6.631-1.9v1.9h-2.657v-1.9h2.657Zm-6.631,2.93h2.568v1.943H701.3V212.68Zm3.974,0h2.657v1.943h-2.657V212.68Zm22.12,1.572h1.464v-9.277h-7.48v-3.037h-1.533v3.037H712.5v9.277h1.494v-0.918h5.85v6.2h1.533v-6.2h6.016v0.918Zm-13.4-8.135h5.85v6.074h-5.85v-6.074Zm7.383,0h6.016v6.074h-6.016v-6.074Z" transform="translate(-526.906 -140.656)"/>
  <path id="Under_Construction" data-name="Under Construction" class="cls-1" d="M537.71,181.954a11.11,11.11,0,0,0,6.6-1.7,8.692,8.692,0,0,0,3.25-4.75,27.492,27.492,0,0,0,.9-7.65V141h-5.35v27.1a17.77,17.77,0,0,1-1.075,7q-1.076,2.4-4.325,2.4t-4.325-2.4a17.77,17.77,0,0,1-1.075-7V141h-5.4v26.85a27.492,27.492,0,0,0,.9,7.65,8.648,8.648,0,0,0,3.275,4.75,11.228,11.228,0,0,0,6.625,1.7h0Zm16.25-.45h5.35V158.2a6.28,6.28,0,0,1,3.75-1.8,1.954,1.954,0,0,1,1.8.8,4.725,4.725,0,0,1,.5,2.45V181.5h5.35V158.1a8.171,8.171,0,0,0-1-4.2,3.576,3.576,0,0,0-3.35-1.7q-3.6,0-7.05,3.25V152.6h-5.35v28.9Zm28.65,0.4a6.267,6.267,0,0,0,4.65-2.25v1.85h5.35V141h-5.35v13.45a6.737,6.737,0,0,0-4.8-2.25,5.6,5.6,0,0,0-5.575,3.3,21.974,21.974,0,0,0-1.525,9.05v5.6q0,6.3,1.75,9.025a6.061,6.061,0,0,0,5.5,2.725h0Zm1.35-4.2a2.529,2.529,0,0,1-2.6-1.8,16.441,16.441,0,0,1-.65-5.3v-8.15q0-6.05,3.15-6.05a6.216,6.216,0,0,1,3.4,1.25V176.6a6.08,6.08,0,0,1-3.3,1.1h0Zm22.049,4.2q4.249,0,6.2-2.4t1.95-6.95v-1.1h-5.2v1.75a8.18,8.18,0,0,1-.6,3.575,2.337,2.337,0,0,1-2.3,1.175,2.749,2.749,0,0,1-2.475-1.175,7.172,7.172,0,0,1-.775-3.825v-5.8h11.4V164.8a34.514,34.514,0,0,0-.575-7.075,6.994,6.994,0,0,0-2.35-4.075,8.2,8.2,0,0,0-5.275-1.45q-4.8,0-6.675,2.775t-1.875,8.775v6.6a23.188,23.188,0,0,0,.75,6.5,6.752,6.752,0,0,0,2.6,3.775,9.083,9.083,0,0,0,5.2,1.275h0Zm-3.2-17.65V162.7a23.754,23.754,0,0,1,.25-3.975,3.378,3.378,0,0,1,.925-1.975,2.885,2.885,0,0,1,1.975-.6,2.378,2.378,0,0,1,2.425,1.275,11.148,11.148,0,0,1,.575,4.225v2.6h-6.15Zm16.4,17.25h5.35V160.4a6.37,6.37,0,0,1,1.975-2.175,4.367,4.367,0,0,1,2.325-.625,8.463,8.463,0,0,1,2.95.6v-5.9a6.942,6.942,0,0,0-.85-0.05,6.1,6.1,0,0,0-3.325,1,10.469,10.469,0,0,0-3.075,3.45v-4.1h-5.35v28.9Zm37.949,0.45q5.649,0,7.925-3.225t2.275-9.275v-3h-5.35v3a28.815,28.815,0,0,1-.275,4.5,4.343,4.343,0,0,1-1.325,2.6,4.644,4.644,0,0,1-3.2.95,5.589,5.589,0,0,1-3.125-.75,4.262,4.262,0,0,1-1.625-2.5,18.421,18.421,0,0,1-.5-4.85v-16.05a24.206,24.206,0,0,1,.35-4.625,4.671,4.671,0,0,1,1.475-2.7,5.121,5.121,0,0,1,3.425-.975,4.9,4.9,0,0,1,3.275.9,3.944,3.944,0,0,1,1.275,2.4,28.04,28.04,0,0,1,.25,4.3v2.85h5.35v-3.2q0-5.749-2.375-8.7t-7.825-2.95q-6.1,0-8.5,3.45t-2.4,10.1v14.3q0,6.3,2.45,9.875t8.45,3.575h0Zm23.1-.05q4.55,0,6.475-2.725t1.925-7.925v-8.4q0-5.2-1.925-7.925t-6.475-2.725q-4.6,0-6.525,2.725t-1.925,7.925v8.4q0,5.2,1.925,7.925t6.525,2.725h0Zm0-3.95a2.548,2.548,0,0,1-2.125-.85,4.081,4.081,0,0,1-.825-2.1,30.056,30.056,0,0,1-.15-3.4v-9.05a30.763,30.763,0,0,1,.15-3.425,4.113,4.113,0,0,1,.825-2.125,2.551,2.551,0,0,1,2.125-.85,2.48,2.48,0,0,1,2.1.85,4.245,4.245,0,0,1,.8,2.125,30.763,30.763,0,0,1,.15,3.425v9.05a30.056,30.056,0,0,1-.15,3.4,4.212,4.212,0,0,1-.8,2.1,2.477,2.477,0,0,1-2.1.85h0Zm13.3,3.55h5.35V158.2a6.28,6.28,0,0,1,3.75-1.8,1.952,1.952,0,0,1,1.8.8,4.725,4.725,0,0,1,.5,2.45V181.5h5.35V158.1a8.161,8.161,0,0,0-1-4.2,3.575,3.575,0,0,0-3.35-1.7q-3.6,0-7.05,3.25V152.6h-5.35v28.9Zm28.65,0.4a8.518,8.518,0,0,0,5.85-1.9,6.953,6.953,0,0,0,2.15-5.5,7.966,7.966,0,0,0-1.075-4.25,17.176,17.176,0,0,0-3.025-3.55l-5.1-4.7a3.839,3.839,0,0,1-1.45-2.9,3,3,0,0,1,.775-2.1,2.673,2.673,0,0,1,2.075-.85,2.646,2.646,0,0,1,2.4,1.275,9.73,9.73,0,0,1,1.15,3.725l3.6-1.35a9.279,9.279,0,0,0-2.175-5.475,6.546,6.546,0,0,0-5.175-2.125,7.649,7.649,0,0,0-5.45,1.875,6.814,6.814,0,0,0-2,5.225,7.918,7.918,0,0,0,.925,3.975,11.712,11.712,0,0,0,2.625,3.075l4.95,4.25a7.569,7.569,0,0,1,1.8,2.05,4.589,4.589,0,0,1,.55,2.25,3.116,3.116,0,0,1-.775,2.225,2.84,2.84,0,0,1-2.175.825,3.219,3.219,0,0,1-2.775-1.35,9.493,9.493,0,0,1-1.375-4.15l-4.45,1.35a9.13,9.13,0,0,0,2.475,5.9,7.627,7.627,0,0,0,5.675,2.2h0Zm19.7,0a25.073,25.073,0,0,0,3.7-.3v-3.95a12.5,12.5,0,0,1-1.95.15,2.558,2.558,0,0,1-2.1-.7,4.079,4.079,0,0,1-.55-2.45v-18.5h4.65V152.6h-4.65v-8.45h-5.35v8.45h-3.05v3.55h3.05V175q0,6.9,6.25,6.9h0Zm7.85-.4h5.35V160.4a6.38,6.38,0,0,1,1.975-2.175,4.372,4.372,0,0,1,2.325-.625,8.459,8.459,0,0,1,2.95.6v-5.9a6.93,6.93,0,0,0-.85-0.05,6.1,6.1,0,0,0-3.325,1,10.469,10.469,0,0,0-3.075,3.45v-4.1h-5.35v28.9Zm20.05,0.4q3.6,0,7.05-3.25v2.85h5.35V152.6h-5.35v23.3a6.285,6.285,0,0,1-3.75,1.8,1.93,1.93,0,0,1-1.8-.825,4.86,4.86,0,0,1-.5-2.475V152.6h-5.35V176a8.156,8.156,0,0,0,1,4.2,3.574,3.574,0,0,0,3.35,1.7h0Zm25.749,0q4.449,0,6.175-2.3t1.725-7v-2h-4.85v2.35a9.749,9.749,0,0,1-.55,3.775,2.347,2.347,0,0,1-2.4,1.225,3.076,3.076,0,0,1-1.925-.525,3.141,3.141,0,0,1-.975-1.85,18.452,18.452,0,0,1-.3-3.825v-9.1a23.28,23.28,0,0,1,.25-3.95,3.434,3.434,0,0,1,.9-1.95,2.869,2.869,0,0,1,2-.6,2.473,2.473,0,0,1,2.375,1.125,8.909,8.909,0,0,1,.625,3.975V163h4.85v-1.7a16.171,16.171,0,0,0-.675-5.125,5.289,5.289,0,0,0-2.4-2.975,9.689,9.689,0,0,0-4.825-1,8.919,8.919,0,0,0-5.25,1.325,6.648,6.648,0,0,0-2.525,3.825,25.151,25.151,0,0,0-.675,6.4v6.65a24.363,24.363,0,0,0,.675,6.275,6.874,6.874,0,0,0,2.525,3.85,8.668,8.668,0,0,0,5.25,1.375h0Zm20.35,0a25.073,25.073,0,0,0,3.7-.3v-3.95a12.5,12.5,0,0,1-1.95.15,2.558,2.558,0,0,1-2.1-.7,4.079,4.079,0,0,1-.55-2.45v-18.5h4.65V152.6h-4.65v-8.45h-5.35v8.45h-3.05v3.55h3.05V175q0,6.9,6.25,6.9h0Zm8.05-33.6h5.35v-5.6h-5.35v5.6Zm0,33.2h5.35V152.6h-5.35v28.9Zm19.049,0.4q4.549,0,6.475-2.725t1.925-7.925v-8.4q0-5.2-1.925-7.925t-6.475-2.725q-4.6,0-6.525,2.725t-1.925,7.925v8.4q0,5.2,1.925,7.925t6.525,2.725h0Zm0-3.95a2.548,2.548,0,0,1-2.125-.85,4.081,4.081,0,0,1-.825-2.1,30.056,30.056,0,0,1-.15-3.4v-9.05a30.763,30.763,0,0,1,.15-3.425A4.113,4.113,0,0,1,840.88,157a2.551,2.551,0,0,1,2.125-.85,2.477,2.477,0,0,1,2.1.85,4.245,4.245,0,0,1,.8,2.125,30.763,30.763,0,0,1,.15,3.425v9.05a30.056,30.056,0,0,1-.15,3.4,4.212,4.212,0,0,1-.8,2.1,2.475,2.475,0,0,1-2.1.85h0Zm13.3,3.55h5.35V158.2a6.275,6.275,0,0,1,3.75-1.8,1.954,1.954,0,0,1,1.8.8,4.735,4.735,0,0,1,.5,2.45V181.5h5.35V158.1a8.171,8.171,0,0,0-1-4.2,3.577,3.577,0,0,0-3.35-1.7q-3.6,0-7.05,3.25V152.6h-5.35v28.9Z" transform="translate(-526.906 -140.656)"/>
</svg>
