<svg id="home_main_catch02.svg" xmlns="http://www.w3.org/2000/svg" width="596.656" height="27.093" viewBox="0 0 596.656 27.093">
  <defs>
    <style>
      .cls-1 {
        fill-rule: evenodd;
      }
    </style>
  </defs>
  <path id="よりよい社会を築くために未来の産業を創造_のコピー" data-name="よりよい社会を築くために未来の産業を創造 のコピー" class="cls-1" d="M415.422,438.609v-8.8h10.166v-1.978H415.422v-5.522h-2.373v15.717a18.761,18.761,0,0,0-3.633-.38,11.234,11.234,0,0,0-5.588,1.289,4.134,4.134,0,0,0-.169,7.251,10.8,10.8,0,0,0,5.6,1.245q6.078,0,6.167-5.01l0.029-1.7a34.134,34.134,0,0,1,5.054,2.38,37.57,37.57,0,0,1,4.849,3.157l1.464-1.919a37.694,37.694,0,0,0-11.4-5.728h0Zm-2.285,3.838q0,2.96-4.322,2.959a7.731,7.731,0,0,1-3.5-.754,2.309,2.309,0,0,1-1.508-2.088,2.423,2.423,0,0,1,1.7-2.2,9.162,9.162,0,0,1,3.911-.8,16.11,16.11,0,0,1,3.721.484v2.4Zm37.221,2.271q3.75-2.9,3.75-9.756,0-5.317-1.962-8.159a6.168,6.168,0,0,0-5.347-2.842,9.642,9.642,0,0,0-6.043,2.293,11.553,11.553,0,0,0-3.933,6.262h-0.2a70.547,70.547,0,0,1,1.172-9.756l-2.314-.2a52.057,52.057,0,0,0-.85,9.8,48.009,48.009,0,0,0,.542,7.573l2.08-.132a17.981,17.981,0,0,1,1.538-7.925,10.488,10.488,0,0,1,3.772-4.563,8.4,8.4,0,0,1,4.314-1.37,3.984,3.984,0,0,1,3.538,2.293,13.5,13.5,0,0,1,1.34,6.614q0,6.166-3.34,8.466t-9.639,2.8l0.542,1.919Q446.609,447.619,450.358,444.718Zm25.064-6.109v-8.8h10.166v-1.978H475.422v-5.522h-2.373v15.717a18.761,18.761,0,0,0-3.633-.38,11.234,11.234,0,0,0-5.588,1.289,4.134,4.134,0,0,0-.169,7.251,10.8,10.8,0,0,0,5.6,1.245q6.078,0,6.167-5.01l0.029-1.7a34.134,34.134,0,0,1,5.054,2.38,37.484,37.484,0,0,1,4.848,3.157l1.465-1.919a37.694,37.694,0,0,0-11.4-5.728h0Zm-2.285,3.838q0,2.96-4.322,2.959a7.731,7.731,0,0,1-3.5-.754,2.309,2.309,0,0,1-1.508-2.088,2.423,2.423,0,0,1,1.7-2.2,9.162,9.162,0,0,1,3.911-.8,16.11,16.11,0,0,1,3.721.484v2.4Zm28.608-4.775a33.4,33.4,0,0,1-2.314,4.5q-1.29,2.088-2.051,2.088-0.469,0-1.487-1.465a10.968,10.968,0,0,1-1.553-3.494,18,18,0,0,1-.534-4.577,39.54,39.54,0,0,1,.366-4.629q0.409-3.282.469-4.6H492.18q-0.03,1.45-.381,4.6a44.569,44.569,0,0,0-.337,4.643,20.225,20.225,0,0,0,.366,3.765,17.317,17.317,0,0,0,1.135,3.7,10.066,10.066,0,0,0,1.692,2.775,8.032,8.032,0,0,0,1.494,1.363,2.442,2.442,0,0,0,1.3.351,3.109,3.109,0,0,0,2.322-1.34,19.907,19.907,0,0,0,2.2-3.347,26.036,26.036,0,0,0,1.575-3.4Zm9.126-11.851-1.8,1.143a23.809,23.809,0,0,1,4.014,7.324,25.83,25.83,0,0,1,1.406,8.438v0.263l2.461-.073q-0.1-10.254-6.079-17.095h0ZM526.779,448.2V436.266a33.246,33.246,0,0,0,3.487,2.871l0.952-2.022a27.3,27.3,0,0,1-4.439-3.164v-0.117a24.108,24.108,0,0,0,4.615-7.368l-0.7-.791h-3.823v-4.131H524.7v4.131h-4.321v1.772h8.232a18.093,18.093,0,0,1-3.6,5.479,30.961,30.961,0,0,1-5.757,5.053l0.981,1.465a27.973,27.973,0,0,0,4.278-3.3V448.2h2.27Zm21.358-.835v-1.831h-8.145V431.944H547.1v-1.831h-7.105V421.6h-2.329v8.511h-6.328v1.831h6.328v13.594h-8.5v1.831h18.97Zm30.5-15.879a36.682,36.682,0,0,1-13.521-9.917h-3.091a22.792,22.792,0,0,1-5.969,6,36.251,36.251,0,0,1-7.068,4.372l1.1,1.538a36.984,36.984,0,0,0,7.383-4.46,29.848,29.848,0,0,0,6.181-5.955,40.232,40.232,0,0,0,13.521,10.2Zm-6.914.879v-1.8H555.9v1.8h15.821Zm-9.178,14.964q7.215-.492,10.027-0.857,0.864,1.113,1.348,1.845l2.124-1.04q-1-1.392-3.04-3.728a46.354,46.354,0,0,0-3.274-3.464L567.9,441.1a45.066,45.066,0,0,1,3.384,3.78q-4.35.513-13.52,0.923a83.392,83.392,0,0,0,4.511-7.149h14.4v-1.816H550.788v1.816h8.789a57.11,57.11,0,0,1-4.365,7.251q-2.578.089-4.146,0.118l0.308,1.962Q555.329,447.824,562.543,447.333Zm35.267-9.148a18.05,18.05,0,0,0-.176-2.769q6.006-2.241,9.053-3.237L605.72,430.2l-8.628,3.325a3.92,3.92,0,0,0-3.882-2.124,13.959,13.959,0,0,0-2.593.345,7.523,7.523,0,0,0-2.256.71l-0.219-.117A31.357,31.357,0,0,0,591,427.887h11.66v-1.9H591.774a22.152,22.152,0,0,0,1-3.31l-2.431-.205a22.182,22.182,0,0,1-1.04,3.515h-7.632v1.9h6.826a27.115,27.115,0,0,1-8,9.609l1.26,1.494,2.432-2.05a15.882,15.882,0,0,1,5.031-3.2,12.677,12.677,0,0,1,3.787-.637,2.166,2.166,0,0,1,2.153,1.318,24.142,24.142,0,0,0-6.6,4.306,5.828,5.828,0,0,0-1.882,4.029,3.859,3.859,0,0,0,2.138,3.515Q590.954,447.5,598,447.5a69.887,69.887,0,0,0,8.057-.41l-0.147-2.124a61.564,61.564,0,0,1-9.184.542q-4.849,0-6.358-.813a2.448,2.448,0,0,1-1.509-2.19q0-2.754,6.739-6.138,0.043,0.6.044,1.45v4.805h2.168v-4.438Zm18.72-13.243,1.187,2.7,2.051-.484-1.07-2.212h4.1V423.36h-7.661q0.527-.849,1-1.758l-2.11-.395a18.313,18.313,0,0,1-4.262,5.9l1.509,1.011a15.829,15.829,0,0,0,2.812-3.179h2.446Zm13.213,0,1.26,2.476,2.08-.425-1.113-2.051h5.244V423.36h-9.4a13.7,13.7,0,0,0,.893-1.714l-2.109-.439a20.51,20.51,0,0,1-3.736,5.478l1.568,0.953a27.655,27.655,0,0,0,2.3-2.7h3.017Zm0.864,10.5a1.533,1.533,0,0,0,.418,1.07,2.222,2.222,0,0,0,.967.629,6.233,6.233,0,0,0,1.75.176,4.828,4.828,0,0,0,2.747-.5,1.688,1.688,0,0,0,.608-1.37v-3l-1.685-.249q0,0.63-.066,1.575t-0.1,1.187a0.75,0.75,0,0,1-.22.424,1.1,1.1,0,0,1-.557.264,2.951,2.951,0,0,1-.5.081q-1.275,0-1.275-.865V428.4h-9.829v3.311a7.617,7.617,0,0,1-.5,2.974,5.547,5.547,0,0,1-1.692,2.138l1.26,1.07a6.871,6.871,0,0,0,2.234-2.718,9.93,9.93,0,0,0,.666-3.933v-1.465h5.786v5.669Zm-9.77.366L620.72,434.3q-1.758.308-3.545,0.571v-4.365H621v-1.582H611.11v1.582h3.926v4.673q-2.637.351-4.687,0.527l0.424,1.787q8.716-1.3,10.064-1.685h0Zm8.789-1.845q-1.377-1.392-2.842-2.652l-1.406.879q1.845,1.7,2.754,2.725Zm-13.118,11.572a31.262,31.262,0,0,0,5.926-3.047v5.742H624.6v-5.9a34.575,34.575,0,0,0,5.742,3.12,33.9,33.9,0,0,0,6.474,2.139l1.1-1.8a36.8,36.8,0,0,1-6.394-1.9,32.033,32.033,0,0,1-5.808-2.93h11.25v-1.714H624.7V437.76h-2.3v1.479H610.773v1.714H621.32a31.133,31.133,0,0,1-5.119,2.754,39.447,39.447,0,0,1-6.585,2.227l0.7,1.626A34.231,34.231,0,0,0,616.508,445.538Zm41.038-3.5q-2.871-2.079-8.76-5.888a21.245,21.245,0,0,1-1.78-1.231,0.74,0.74,0,0,1-.212-0.557,0.886,0.886,0,0,1,.337-0.688,13.6,13.6,0,0,1,1.7-1.07,114.73,114.73,0,0,0,12.217-8.818l-1.8-1.509q-2.564,2.3-5.171,4.226t-7.822,5.267a3.451,3.451,0,0,0-1.8,2.651,2.25,2.25,0,0,0,.3,1.1,3.564,3.564,0,0,0,.791.966q0.492,0.426,2.41,1.692t2.93,1.9a76.82,76.82,0,0,1,10.019,7.9l1.831-1.8Q660.417,444.117,657.546,442.037Zm19.307-19.6q0,2.036-.088,3.925H671.3v1.948h5.332a42.193,42.193,0,0,1-2.088,9.881,31.442,31.442,0,0,1-3.816,8.093l1.744,1.143a27.623,27.623,0,0,0,3.984-7.969,45.759,45.759,0,0,0,2.49-11.148h10.811v-1.948h-10.65q0.147-2.285.147-3.925h-2.4Zm17.417,8.627a108.634,108.634,0,0,0-11.324.6l0.147,1.933q6.284-.6,11.528-0.6,0.6,0,1.318.029l0.03-1.919q-0.719-.043-1.7-0.044h0Zm2.446,13.272a54.539,54.539,0,0,1-6.709.4q-4.614,0-5.618-.659a1.841,1.841,0,0,1-.989-1.567,4.68,4.68,0,0,1,1.07-2.769l-1.641-.923a5.834,5.834,0,0,0-1.67,3.941,3.158,3.158,0,0,0,1.1,2.432,5.562,5.562,0,0,0,3.01,1.274,38.693,38.693,0,0,0,5.266.278,39.41,39.41,0,0,0,6.3-.395Zm15.5-3.618a23.474,23.474,0,0,0,4.643-10.855,8.7,8.7,0,0,1,5.823,2.014,6.591,6.591,0,0,1,2.293,5.237q0,7.37-10.884,8.423l0.542,1.919q5.859-.381,9.287-3.01a9.156,9.156,0,0,0,.52-13.836,10.97,10.97,0,0,0-7.332-2.636q0.206-2.037.279-5l-2.4.03q0,2.343-.263,5.1a20.119,20.119,0,0,0-7.544,2.271,45.85,45.85,0,0,1-1.3-5.42l-2.226.571a47.644,47.644,0,0,0,1.552,6.109,13.334,13.334,0,0,0-3.75,4.262,10.473,10.473,0,0,0-1.377,5.127,5.081,5.081,0,0,0,1.165,3.4,3.759,3.759,0,0,0,3.01,1.377q3.092,0,6.475-3.4,0.6,0.82,1.084,1.421l1.684-1.406q-0.747-.952-1.274-1.7h0Zm2.27-10.708a20.62,20.62,0,0,1-3.515,8.818,37.465,37.465,0,0,1-3.252-6.592,16.414,16.414,0,0,1,6.767-2.226h0Zm-9.873,13.725a2.17,2.17,0,0,1-1.648-.754,2.45,2.45,0,0,1-.695-1.707,11.517,11.517,0,0,1,.285-2.644,8.127,8.127,0,0,1,1.136-2.519A12.284,12.284,0,0,1,705.9,433.6a37.772,37.772,0,0,0,3.619,7.047q-2.827,3.09-4.908,3.09h0Zm30.074-6.958a44.645,44.645,0,0,1,2.021-12.993l-2.256-.4a49.083,49.083,0,0,0-2.007,13.271,34.838,34.838,0,0,0,1.509,10.459l2.1-.483a34.965,34.965,0,0,1-1.362-9.859h0Zm21.123-11.367v-0.132q-0.777-.043-3.12-0.044-4.717,0-12.261.44,0.087,1.318.088,1.977,7.94-.409,10.971-0.41,2.066,0,4.395.044-0.073-1.2-.073-1.875h0Zm0.249,18.472a47.322,47.322,0,0,1-5.86.351,35.81,35.81,0,0,1-4.636-.227,5.754,5.754,0,0,1-2.607-.93,2.174,2.174,0,0,1-.974-1.846,6.247,6.247,0,0,1,1.8-4.277l-1.7-.908a8.766,8.766,0,0,0-2.2,5.317,3.941,3.941,0,0,0,1.04,2.827,5.98,5.98,0,0,0,3.054,1.575,28.583,28.583,0,0,0,6.086.476,57.194,57.194,0,0,0,5.992-.322v-2.036Zm10.781-1.729a36.588,36.588,0,0,0,5.566-4.907V448.2h2.388V437.159a32.069,32.069,0,0,0,5.618,4.951,37.626,37.626,0,0,0,6.555,3.824l1.421-1.861a31.378,31.378,0,0,1-7.156-3.955,31.987,31.987,0,0,1-6.116-5.478h11.822v-1.919H774.821v-5.054h10.62v-1.831h-10.62v-4.263h-2.446v4.263H762.282v1.831h10.093v5.054H760.407v1.919h11.411a24.471,24.471,0,0,1-5.464,5.368A38.481,38.481,0,0,1,759,444.44l1.04,1.611A34.18,34.18,0,0,0,766.838,442.154Zm29.744,0.769a39.66,39.66,0,0,0,5.705-4.914V448.2h2.388V437.789a28.084,28.084,0,0,0,5.383,4.9,35.352,35.352,0,0,0,6.848,4.006l1.289-1.948a32.951,32.951,0,0,1-7.368-4.2,24.266,24.266,0,0,1-5.742-5.229h12.158v-1.832h-6.006q1.743-2.783,2.915-5.083l-2.314-.644a52.066,52.066,0,0,1-3.062,5.727h-4.1v-7.133h11.47v-1.773h-11.47v-3.091h-2.388v3.091H791.11v1.773h11.177v7.133h-3.926q-1.7-3.852-2.622-5.6l-2.212.659q0.718,1.406,2.3,4.936h-5.6v1.832h11.485a28.507,28.507,0,0,1-5.2,5.075A36.352,36.352,0,0,1,789,445.084l1.04,1.611A33.884,33.884,0,0,0,796.582,442.923Zm47.365,0.623q3.648-2.914,3.648-8.423a9.109,9.109,0,0,0-3.618-7.625,15.777,15.777,0,0,0-19.468,1.216q-4.336,4.007-4.336,9.031a9.02,9.02,0,0,0,1.428,5.164,4.485,4.485,0,0,0,3.919,2.116q4.013,0,6.679-5.273a30.41,30.41,0,0,0,2.827-13.154,12,12,0,0,1,7.537,2.373,8.8,8.8,0,0,1-.645,13.257,16.511,16.511,0,0,1-8.063,2.739l0.571,1.977A17.131,17.131,0,0,0,843.947,443.546Zm-13.432-5.691q-2.037,5.119-4.776,5.12a2.773,2.773,0,0,1-2.49-1.487,6.916,6.916,0,0,1-.894-3.626,10.2,10.2,0,0,1,3.062-7.229,12.473,12.473,0,0,1,7.31-3.845A32.323,32.323,0,0,1,830.515,437.855Zm46.23-6.965v-1.6h-7.456l2.1-4.131h4.629v-1.714H864.689v-2.109h-2.27v2.109H851.037v1.714h4.746l1.729,4.131h-5.493V434.1q0,8.349-2.886,12.729l1.479,1.011a16.45,16.45,0,0,0,2.63-5.911,33.97,33.97,0,0,0,.974-8.5V430.89h22.529Zm-18.589-5.728h10.738l-1.832,4.131h-7.207ZM876.8,447.618v-1.772h-9.829v-3.941h7.295V440.06h-7.295v-3.4h8.481v-1.743h-8.481v-2.593h-2.286v2.593h-4.467a19.761,19.761,0,0,0,.937-2.11l-2.168-.453a21.234,21.234,0,0,1-4.131,6.972l1.538,1.011a21.054,21.054,0,0,0,2.828-3.677h5.463v3.4h-6.914v1.845h6.914v3.941H854.655v1.772H876.8Zm10.078-2.043a24.417,24.417,0,0,0,5.64-3.084v5.83h2.153V442.2a31.955,31.955,0,0,0,12.422,5.391l0.952-1.9a35.289,35.289,0,0,1-6.16-1.758,29.554,29.554,0,0,1-5.354-2.549h10.9V439.62h-12.7v-2.373h10.65v-1.626h-10.65V433.1h11.441v-1.744H899.48l1.669-3.12h6.094V426.5h-4.79l1.978-3.794-2.08-.542-1.963,4.336H897.6V421.72h-2.167V426.5H891.7V421.72h-2.139V426.5H886.94l-1.933-4.277-2.022.542,1.773,3.735h-4.38v1.743h5.786l1.494,3.12h-6.211V433.1h11.016v2.519H882.238v1.626h10.225v2.373H879.982v1.758h10.752a29.505,29.505,0,0,1-11.279,4.614l0.586,1.6A32.141,32.141,0,0,0,886.882,445.575Zm11.865-17.337-1.494,3.12h-7.28l-1.48-3.12h10.254Zm29.063,9.947a18.05,18.05,0,0,0-.176-2.769q6.006-2.241,9.052-3.237L935.72,430.2l-8.628,3.325a3.92,3.92,0,0,0-3.882-2.124,13.959,13.959,0,0,0-2.593.345,7.523,7.523,0,0,0-2.256.71l-0.219-.117A31.357,31.357,0,0,0,921,427.887h11.66v-1.9H921.774a22.274,22.274,0,0,0,1-3.31l-2.432-.205a22.182,22.182,0,0,1-1.04,3.515h-7.632v1.9h6.826a27.115,27.115,0,0,1-8,9.609l1.26,1.494,2.432-2.05a15.882,15.882,0,0,1,5.031-3.2,12.677,12.677,0,0,1,3.787-.637,2.166,2.166,0,0,1,2.153,1.318,24.142,24.142,0,0,0-6.6,4.306,5.828,5.828,0,0,0-1.882,4.029,3.858,3.858,0,0,0,2.138,3.515Q920.954,447.5,928,447.5a69.887,69.887,0,0,0,8.057-.41l-0.147-2.124a61.564,61.564,0,0,1-9.184.542q-4.849,0-6.358-.813a2.448,2.448,0,0,1-1.509-2.19q0-2.754,6.739-6.138,0.043,0.6.044,1.45v4.805h2.168v-4.438Zm25.078-9.786v-1.552h-7.354a19.221,19.221,0,0,0,3.662-3.809,24.025,24.025,0,0,0,7.427,6.226l1.143-1.626a27.28,27.28,0,0,1-4.607-3.172,14.31,14.31,0,0,1-2.615-2.805h-2.886a18.139,18.139,0,0,1-3.75,4.087,26.658,26.658,0,0,1-4.79,3.237l0.923,1.407a25.382,25.382,0,0,0,5.259-3.369V428.4h7.588ZM965.9,447.135a1.958,1.958,0,0,0,.666-1.568V421.661H964.24v22.808a1.078,1.078,0,0,1-1.274,1.157h-2.725l0.4,2.08h3.574A2.51,2.51,0,0,0,965.9,447.135Zm-4.871-5.977V423.683h-2.2v17.475h2.2Zm-5.171-2.475v-8.511H942.4v4.351q0,7.675-3.339,11.835l1.289,1.2a16.794,16.794,0,0,0,3.808-8.877h11.7Zm-11.323-5v-2.006h9.185v2.006h-9.185Zm0,1.509v-0.088h9.185v2.007h-9.287a15.1,15.1,0,0,0,.1-1.919h0Zm9.976,12.788h2.109v-7.309H944.26v7.309h2.08v-1.01h8.174v1.01Zm-8.174-5.815h8.174v3.31H946.34v-3.31Zm50.874-11.016h-8.6v-4.336h7.5v-1.655h-7.5v-3.647h-2.256v3.647h-4.028a25.181,25.181,0,0,0,1.113-2.754l-2.168-.468a21.37,21.37,0,0,1-3.618,6.987l1.8,0.952a14.665,14.665,0,0,0,2.036-3.062h4.863v4.336h-8.877V432.9h19.732v-1.743Zm-24.668-9.3-1.86,1.171a35.129,35.129,0,0,1,3.515,5.01l2.051-1.216q-1.407-2.123-3.706-4.965h0Zm15.63,23.891q-5.406,0-6.614-.176t-2.5-.476a4.991,4.991,0,0,1-2.248-1.164,2.876,2.876,0,0,1-.96-2.242V432.3h-6.181v1.8h3.882v8.935a14.934,14.934,0,0,1-2.044,1.531,16.664,16.664,0,0,1-2.263,1.311l0.791,1.963a17.766,17.766,0,0,0,4.8-3.648,5.222,5.222,0,0,0,2.131,1.956,10.462,10.462,0,0,0,3.655,1.121,85.331,85.331,0,0,0,9.023.293l8.174-.03,0.425-1.992q-3.223.206-10.078,0.2h0Zm7.016-10.356H979.65V443.4h15.542v-8.012Zm-13.344,6.3V437h11.176v4.687H981.848Z" transform="translate(-401.594 -421.219)"/>
</svg>
