<svg id="news_main_title.svg" xmlns="http://www.w3.org/2000/svg" width="242.375" height="78.688" viewBox="0 0 242.375 78.688">
  <defs>
    <style>
      .cls-1 {
        fill-rule: evenodd;
      }
    </style>
  </defs>
  <path id="ニュース_イベント" data-name="ニュース＆イベント" class="cls-1" d="M628.643,204.945H613.018v1.436h15.625v-1.436Zm1.22,11.4H611.6V217.9h18.261v-1.562Zm18.438,1.045h-4.776l1.377-10.205H634.541v1.24h8.623l-1.182,8.965H632.3v1.279h16v-1.279Zm20.469-6.953H652.617v1.445H668.77v-1.445Zm13.75,1.093a21.545,21.545,0,0,0,4.384-7.558l-0.4-.362H673.6v1.358h11.142a20,20,0,0,1-5.591,7.778,28.123,28.123,0,0,1-8.012,5.2l0.742,1.241a30.527,30.527,0,0,0,9.658-6.582q4.638,3.906,7.314,6.66l1.387-1.074q-4.737-4.327-7.724-6.661h0Zm22.5,3.2a9.086,9.086,0,0,0,1.1-4.423v-0.9h-1.787q0,2.286-.068,3a5.485,5.485,0,0,1-.284,1.319l-3.818-3.692q3-1.044,3-3.672a2.69,2.69,0,0,0-1.05-2.182,4.185,4.185,0,0,0-2.729-.855,4.236,4.236,0,0,0-2.92,1,3.1,3.1,0,0,0-1.123,2.4,3.268,3.268,0,0,0,.439,1.723,5.561,5.561,0,0,0,1.67,1.558,4.9,4.9,0,0,0-2.812,4.326,3.994,3.994,0,0,0,1.338,3.11,4.849,4.849,0,0,0,3.378,1.206,5.917,5.917,0,0,0,4.786-2.548l2.275,2.246H708.7Zm-5.713-5.341a6.043,6.043,0,0,1-1.651-1.285,2.257,2.257,0,0,1-.517-1.479,2.179,2.179,0,0,1,.605-1.563,2.217,2.217,0,0,1,3.037-.063,2.061,2.061,0,0,1,.586,1.548,2.828,2.828,0,0,1-2.06,2.842h0Zm0.547,7.783a3.255,3.255,0,0,1-2.432-.913,3.3,3.3,0,0,1-.9-2.417,3.643,3.643,0,0,1,.538-1.968,3.281,3.281,0,0,1,1.406-1.274l4.795,4.648a3.949,3.949,0,0,1-3.408,1.924h0Zm23.408-8.75a21.181,21.181,0,0,0,5.7-5.352l-1.6-.625a20.6,20.6,0,0,1-5.5,5.088,32.646,32.646,0,0,1-10,4.092l0.518,1.338a37.662,37.662,0,0,0,9.14-3.408v9.726h1.739V208.422Zm20.576,1.094-2.949-2.793a4.09,4.09,0,0,0-1.285-.9,3.051,3.051,0,0,0-1.02-.185,2.134,2.134,0,0,0-1.787.83l-4.121,5.478q-1.1,1.466-1.8,2.256l1.123,1.1,2.686-3.5q2.646-3.468,3.124-4.068a2.71,2.71,0,0,1,.645-0.669,0.75,0.75,0,0,1,.254-0.068,0.554,0.554,0,0,1,.234.054,10.664,10.664,0,0,1,1.026.874q0.908,0.819,3.95,3.867t5.757,5.908l0.986-1.465q-4.648-4.657-6.826-6.728h0Zm3.525-5.928-1.025.478a18.11,18.11,0,0,1,1.406,2.7l1.113-.459a23.379,23.379,0,0,0-1.494-2.715h0Zm-2.822.6-1.064.478a22.781,22.781,0,0,1,1.425,2.744l1.123-.5a20.091,20.091,0,0,0-1.484-2.724h0Zm9.443-.723-0.839,1.221a52.241,52.241,0,0,1,6.953,3.623l1.1-1.28a41.459,41.459,0,0,0-7.217-3.564h0Zm14.395,5.2a16.045,16.045,0,0,1-2.432,3.237,21.612,21.612,0,0,1-2.954,2.373,17.326,17.326,0,0,1-4.272,2.041,26.2,26.2,0,0,1-5.7,1.167l0.341,1.5a28.7,28.7,0,0,0,6.656-1.43,19.239,19.239,0,0,0,5.444-3.106,17.234,17.234,0,0,0,4.258-4.946Zm10.5-1.182V202.25h-1.758v17.1h1.738V208.988a38.808,38.808,0,0,1,5.03,1.973,36.076,36.076,0,0,1,4.853,2.666l1.026-1.357a48.055,48.055,0,0,0-10.889-4.786h0Z" transform="translate(-578.594 -140.656)"/>
  <path id="News_Event" data-name="News &amp; Event" class="cls-1" d="M578.609,181.5h4.8v-27.65l11.65,27.65h3.6V141h-4.7v26.9l-11.5-26.9h-3.85v40.5Zm33.95,0.4q4.25,0,6.2-2.4t1.95-6.95v-1.1h-5.2v1.75a8.18,8.18,0,0,1-.6,3.575,2.337,2.337,0,0,1-2.3,1.175,2.749,2.749,0,0,1-2.475-1.175,7.172,7.172,0,0,1-.775-3.825v-5.8h11.4V164.8a34.514,34.514,0,0,0-.575-7.075,6.994,6.994,0,0,0-2.35-4.075,8.2,8.2,0,0,0-5.275-1.45q-4.8,0-6.675,2.775t-1.875,8.775v6.6a23.188,23.188,0,0,0,.75,6.5,6.752,6.752,0,0,0,2.6,3.775,9.083,9.083,0,0,0,5.2,1.275h0Zm-3.2-17.65V162.7a23.754,23.754,0,0,1,.25-3.975,3.378,3.378,0,0,1,.925-1.975,2.885,2.885,0,0,1,1.975-.6,2.378,2.378,0,0,1,2.425,1.275,11.148,11.148,0,0,1,.575,4.225v2.6h-6.15Zm19.6,17.25h4.8l3.9-20.4,3.95,20.4h4.5l4.8-28.9h-4.4l-3,21.2-3.85-21.2h-4.1l-3.85,21.3-3-21.3h-4.4Zm32.75,0.4a8.522,8.522,0,0,0,5.85-1.9,6.956,6.956,0,0,0,2.15-5.5,7.975,7.975,0,0,0-1.075-4.25,17.207,17.207,0,0,0-3.025-3.55l-5.1-4.7a3.836,3.836,0,0,1-1.45-2.9,3,3,0,0,1,.775-2.1,2.923,2.923,0,0,1,4.475.425,9.765,9.765,0,0,1,1.15,3.725l3.6-1.35a9.279,9.279,0,0,0-2.175-5.475,6.546,6.546,0,0,0-5.175-2.125,7.648,7.648,0,0,0-5.45,1.875,6.811,6.811,0,0,0-2,5.225,7.908,7.908,0,0,0,.925,3.975,11.674,11.674,0,0,0,2.625,3.075l4.95,4.25a7.6,7.6,0,0,1,1.8,2.05,4.6,4.6,0,0,1,.55,2.25,3.12,3.12,0,0,1-.775,2.225,2.843,2.843,0,0,1-2.175.825,3.219,3.219,0,0,1-2.775-1.35,9.48,9.48,0,0,1-1.375-4.15l-4.45,1.35a9.13,9.13,0,0,0,2.475,5.9,7.626,7.626,0,0,0,5.675,2.2h0Zm32.4,0.05a11.375,11.375,0,0,0,5.05-1.075,10.581,10.581,0,0,0,3.65-2.875q1.449,1.451,2.15,2.075a9.318,9.318,0,0,0,1.825,1.225,5.176,5.176,0,0,0,2.475.6h0.7v-5.5a4.506,4.506,0,0,1-2.2-.575,5.571,5.571,0,0,1-1.75-1.475,23.271,23.271,0,0,0,2.725-5.425,17.694,17.694,0,0,0,1.175-6.025h-5.3a23.447,23.447,0,0,1-2,8.1l-6.1-9.6a39.265,39.265,0,0,0,5.425-6.425,12.16,12.16,0,0,0,2.175-6.825,6.763,6.763,0,0,0-2.425-5.475,9.31,9.31,0,0,0-6.175-2.025,8.3,8.3,0,0,0-6.325,2.45,9.053,9.053,0,0,0-2.325,6.5,11.907,11.907,0,0,0,.85,4.475,45.936,45.936,0,0,0,2.45,5.025l1.1,2.05a21.177,21.177,0,0,0-4.325,5.325,12.87,12.87,0,0,0-1.575,6.375,9.324,9.324,0,0,0,2.325,6.575,8.3,8.3,0,0,0,6.425,2.525h0Zm0.55-23.45a39.391,39.391,0,0,1-1.8-4.675,14.358,14.358,0,0,1-.65-4.225,6.125,6.125,0,0,1,.8-3.225,2.71,2.71,0,0,1,2.5-1.325,3.323,3.323,0,0,1,2.375.825,2.982,2.982,0,0,1,.875,2.275,14.143,14.143,0,0,1-1.2,5.5,18.558,18.558,0,0,1-2.9,4.85h0Zm-0.55,19a2.8,2.8,0,0,1-2.6-1.325,6.33,6.33,0,0,1-.8-3.325,12.927,12.927,0,0,1,.725-4.25,12.629,12.629,0,0,1,1.925-3.65l6.2,9.55a6.919,6.919,0,0,1-5.45,3h0Zm33.248,4h15.8v-4.05h-10.15V162.6h8.15v-4h-8.15V145.2h10.05V141h-15.7v40.5Zm23.65,0h6.55l5.5-28.9h-5.2l-3.6,23.25-3.55-23.25h-5.4Zm23.5,0.4q4.25,0,6.2-2.4t1.95-6.95v-1.1h-5.2v1.75a8.18,8.18,0,0,1-.6,3.575,2.337,2.337,0,0,1-2.3,1.175,2.748,2.748,0,0,1-2.475-1.175,7.172,7.172,0,0,1-.775-3.825v-5.8h11.4V164.8a34.514,34.514,0,0,0-.575-7.075,7,7,0,0,0-2.35-4.075,8.2,8.2,0,0,0-5.275-1.45q-4.8,0-6.675,2.775t-1.875,8.775v6.6a23.188,23.188,0,0,0,.75,6.5,6.747,6.747,0,0,0,2.6,3.775,9.081,9.081,0,0,0,5.2,1.275h0Zm-3.2-17.65V162.7a23.754,23.754,0,0,1,.25-3.975,3.372,3.372,0,0,1,.925-1.975,2.885,2.885,0,0,1,1.975-.6,2.379,2.379,0,0,1,2.425,1.275,11.148,11.148,0,0,1,.575,4.225v2.6h-6.15Zm16.25,17.25h5.35V158.2a6.275,6.275,0,0,1,3.75-1.8,1.954,1.954,0,0,1,1.8.8,4.735,4.735,0,0,1,.5,2.45V181.5h5.35V158.1a8.171,8.171,0,0,0-1-4.2,3.577,3.577,0,0,0-3.35-1.7q-3.6,0-7.05,3.25V152.6h-5.35v28.9Zm29.649,0.4a25.062,25.062,0,0,0,3.7-.3v-3.95a12.48,12.48,0,0,1-1.95.15,2.561,2.561,0,0,1-2.1-.7,4.079,4.079,0,0,1-.55-2.45v-18.5h4.65V152.6h-4.65v-8.45h-5.35v8.45h-3.05v3.55h3.05V175q0,6.9,6.25,6.9h0Z" transform="translate(-578.594 -140.656)"/>
</svg>
