<?xml version="1.0" encoding="utf-8"?>
<!-- Generator: Adobe Illustrator 21.0.2, SVG Export Plug-In . SVG Version: 6.00 Build 0)  -->
<svg version="1.1" id="レイヤー_1" xmlns="http://www.w3.org/2000/svg" xmlns:xlink="http://www.w3.org/1999/xlink" x="0px"
	 y="0px" viewBox="0 0 519 36.9" style="enable-background:new 0 0 519 36.9;" xml:space="preserve">
<style type="text/css">
	.st0{clip-path:url(#SVGID_2_);}
	.st1{clip-path:url(#SVGID_2_);fill:#FFFFFF;}
</style>
<rect x="432.8" y="0.4" width="5" height="3.3"/>
<g>
	<defs>
		<rect id="SVGID_1_" y="0" width="519" height="36.9"/>
	</defs>
	<clipPath id="SVGID_2_">
		<use xlink:href="#SVGID_1_"  style="overflow:visible;"/>
	</clipPath>
	<path class="st0" d="M425.1,0c0.1,1.9,0.2,3.6,0.3,5.5H404v4.2h21.7c0.6,7.1,1.1,12.1,2.6,16.3c1.6,4.7,5,8.7,10.9,10.8v-5.6
		c-1.8-0.8-4.3-2.5-5.9-5.9c-1.5-3.2-2.4-8.5-2.9-15.7h8.9V5.5h-9.2C430,3.7,429.9,2,429.8,0H425.1z"/>
	<path class="st0" d="M411.8,19.7V30c-2.6,0.4-5.2,0.8-7.8,1v4.7c6.6-0.8,15.8-2.7,20.5-3.9v-4.5c-2.4,0.6-5.4,1.3-8,1.8v-9.4h6.6
		v-4.3h-17.9v4.3H411.8z"/>
	<path class="st0" d="M453.2,31.6c0.9,0,1.8,0,2.6,0c5.3,0,9.8-0.2,13.1-1.5c-0.6-1.2-1.8-3.1-2.5-4.3h5.4c2.4,3.7,4.9,8.1,6.4,11.1
		h-5.3c-0.5-1-1.1-2-1.8-3.2c-3.6,1.5-7.6,1.9-14.2,2.1c-3.7,0.1-11,0.2-13.2,0.2v-4.2c0.8,0,2.3,0.1,4.5-0.1l3.1-8.6h-8.8v-4.2
		h35.9v4.2h-22.1L453.2,31.6z"/>
	<path class="st0" d="M478.6,14c-2.1-0.6-4.1-1.4-5.9-2.2v2.8h-24.3v-2.9c-2,0.9-4.4,1.8-5.9,2.3V9.5c4.5-1.6,11-5.1,15.3-9.5h5.5
		c3.4,3.6,9.5,7.5,15.3,9.5V14z"/>
	<path class="st1" d="M451.2,10.5c3.4-1.9,6.8-4.3,9.4-7c2.6,2.7,5.5,5,9.4,7H451.2z"/>
	<polygon class="st0" points="506.2,30.9 506.2,11.6 499.2,11.6 499.2,7.4 506.2,7.4 506.2,0 511,0 511,7.4 518.3,7.4 518.3,11.6 
		511,11.6 511,30.9 519,30.9 519,35.3 497.7,35.3 497.7,30.9 	"/>
	<path class="st0" d="M487.5,24c0.2-0.2,1-1,1.5-1.8c0,0.2-0.2,0.9-0.2,1.2v13.5h4.6V20.2c0-0.4-0.2-1.4-0.3-1.8
		c0.3,0.5,1.2,1.4,1.4,1.6c1.6,1.7,3.3,3.2,5,4.6v-6.1c-1.7-1.4-3.2-2.8-4.4-4.3c1.5-2.4,2.8-5.5,3.4-8.3h-5.1V0h-4.7v5.9H483v4.2
		h9.4c-2.2,4.6-6,9.4-10.2,12.4v5.7C483.9,27.2,485.8,25.7,487.5,24"/>
	<path class="st0" d="M368.4,19.8c-1,1.8-3.6,5.9-5.6,8v-6.8c2.1-3.1,4.7-7.8,5.9-10.3h-5.1V6.6h5.1V0h4.4v6.6h3.6v4.2h-3.6V12
		c1,1.6,2.6,3.9,3.6,5.2v6.4c-1-1.3-2.2-3-3.1-4.5c-0.1-0.2-0.5-0.9-0.7-1.2c0.1,0.5,0.3,1.8,0.3,2.1v16.7h-4.4V20.4
		c0-0.7,0.1-1.5,0.2-1.8C368.8,18.9,368.5,19.6,368.4,19.8"/>
	<path class="st0" d="M377.8,13.5c1.8-0.9,3.2-2.5,4.2-4.3h4.6v5.7h-8.8v4.2h6.5c-2,3.4-5.3,7.7-7.5,10v6c3.3-2.8,7.3-8,9.5-11.6
		c0.1-0.2,0.5-0.8,0.5-1c-0.1,0.3-0.2,1.4-0.1,1.7v12.6h4.4V23.9c0-0.1-0.1-1.5-0.1-1.7c0.1,0.3,0.4,0.9,0.6,1.2
		c2.1,3.5,5.6,8.5,8.8,11.4v-6.3c-1.8-1.9-5.2-6.5-6.8-9.5h6.8v-4.2H391V9.2h8.1V5.1H391V0h-4.4v5.1h-3.1c0.4-1.3,0.7-3.2,0.8-4.4
		h-4.1c-0.1,2.4-0.7,4.9-2.4,6.7V13.5z"/>
	<path class="st0" d="M74.2,34.5h31.5V2.2H74.2V34.5z M100.2,29.4H79.6V7.3h20.6V29.4z"/>
	<path class="st0" d="M62,15.5c2.7,4.8,8,15.9,9.6,19.8h-6.2c-0.5-1.1-1.2-2.7-2.1-4.5c-7.4,1.6-20.8,2.9-29.6,3.8v-5.2
		c1.2-0.1,2.3-0.2,3.5-0.3c2.4-5.8,7.3-21.2,9.3-28.2h5.8c-2,7.3-6.6,21.6-8.9,27.4c5.3-0.5,11.8-1.1,17.7-2.3
		c-1.6-3.5-3.9-8.1-5.3-10.5H62z"/>
	<path class="st0" d="M133.3,28.1c4.6-3.9,8.7-10.8,11.7-18.6h-5.8c-2.2,5.1-5.2,11.1-10.1,14.9c-4.3,3.3-10.1,5.2-18.2,6.1v5.3
		C121.1,35,127.5,33.1,133.3,28.1"/>
	<path class="st0" d="M110.9,6.4c3.1,1.1,12.3,4.6,14.7,5.6l0-5.9c-2.4-0.9-11.6-4.3-14.7-5.4V6.4z"/>
	<path class="st0" d="M0,29.6c6.5-4.4,12-9.6,16.8-17.1H0V7.4h20.7L20.5,0H26l0.2,7.4h9.2v5.1h-9.1l0.5,24.3h-5.4L21,17.1
		c0-0.5,0.1-1.2,0.1-1.8c-0.1,0.3-0.6,1.2-0.7,1.4C15.4,24.9,8.2,31.1,0,35.7L0,29.6z"/>
	<rect x="293.9" y="15.2" class="st0" width="27.4" height="5"/>
	<path class="st0" d="M221.7,9h-5.8c-5.9,15.5-15.6,19.8-27.7,20.6v5.3C201.3,34.3,213.8,30.1,221.7,9"/>
	<polygon class="st0" points="188.3,6.2 188.3,0.5 202.7,5.9 202.7,11.6 	"/>
	<path class="st0" d="M343.4,18.8c3.2-4.4,5.9-9.8,7.6-16.3h-26.2v5.2h18.9c-4.2,9.1-10.2,16.8-21.4,21.7v5.8
		c5.3-1.9,12-5.8,17.9-12.2l0.1-0.1l0.1,0.1c3.5,2.7,12.3,9.3,15.9,11.8v-6.9c-2.5-1.7-8.9-6.2-12.5-9
		C343.5,18.9,343.4,18.9,343.4,18.8"/>
	<rect x="357.4" y="0.3" class="st0" width="3.3" height="7.2"/>
	<rect x="352.4" y="0.3" class="st0" width="3.3" height="7.2"/>
	<path class="st0" d="M256.7,13.8h-11.5V7.2c3.8-1.3,7.5-3.3,10.2-6.4H247c-6.2,3.3-14.9,3.3-19.5,3.3h-1.1v5.2h1.1
		c3,0,7.5,0,12.2-0.8v5.3h-16V19h15.9c-0.8,5.9-6.7,8.7-12.1,10v5.5l0,0.2c14.1-3,17.2-10.6,17.7-15.7h11.6V13.8z"/>
	<path class="st0" d="M165.8,7.3c-2.7-2.7-4-2.8-5.7-2.8c-1.7,0-3.6,0.9-4.8,2.5c-2.5,3.1-5.4,6.7-8.8,10.6l1.6,6.6
		c3.3-4,7.6-9.5,9.8-12.4c0.7-0.9,1.5-1.4,2.2-1.4c0.8,0,1.4,0,3.1,1.9c4.3,4.6,12.6,13.6,19.1,20.1l2.2-5.8
		C179.1,21.2,170.9,12.4,165.8,7.3"/>
	<rect x="178.4" y="3.2" class="st0" width="3.3" height="7.2"/>
	<rect x="173.5" y="3.2" class="st0" width="3.3" height="7.2"/>
	<path class="st0" d="M271.5,10.8l-0.8-4.9h-5l0.8,5.1l-6.5,0.3v4.9c1,0,7.1-0.3,7.2-0.3c0,0.3,2.8,17.1,3.1,18.8h5
		c-0.3-1.8-3.1-18.7-3.1-19.1c0.3,0,12-0.6,12.5-0.6c-1.1,2.9-3.6,5.2-7.5,6.9v5.3c8.1-2.9,12.5-7.8,13.1-14.6l0.3-2.8L271.5,10.8z"
		/>
</g>
</svg>
