<svg id="タイトル" xmlns="http://www.w3.org/2000/svg" width="256.531" height="78" viewBox="0 0 256.531 78">
  <metadata><?xpacket begin="﻿" id="W5M0MpCehiHzreSzNTczkc9d"?>
<x:xmpmeta xmlns:x="adobe:ns:meta/" x:xmptk="Adobe XMP Core 5.6-c140 79.160451, 2017/05/06-01:08:21        ">
   <rdf:RDF xmlns:rdf="http://www.w3.org/1999/02/22-rdf-syntax-ns#">
      <rdf:Description rdf:about=""/>
   </rdf:RDF>
</x:xmpmeta>
                                                                                                    
                                                                                                    
                                                                                                    
                                                                                                    
                                                                                                    
                                                                                                    
                                                                                                    
                                                                                                    
                                                                                                    
                                                                                                    
                                                                                                    
                                                                                                    
                                                                                                    
                                                                                                    
                                                                                                    
                                                                                                    
                                                                                                    
                                                                                                    
                                                                                                    
                                                                                                    
                           
<?xpacket end="w"?></metadata>
<defs>
    <style>
      .cls-1 {
        fill-rule: evenodd;
      }
    </style>
  </defs>
  <path id="当サイトのご利用にあたって" class="cls-1" d="M15.168,77.705V78.4h1.553V67.422H9.455V60.83H7.912v6.592H0.646v1.2H15.168v3.184H0.832v1.27H15.168v3.34H0.461v1.289H15.168Zm1.426-15.586-1.563-.547a24.25,24.25,0,0,1-2.578,4.463L13.8,66.582a39.187,39.187,0,0,0,2.793-4.463h0ZM4.709,65.889a40.982,40.982,0,0,0-2.354-4.18l-1.367.6a33,33,0,0,1,2.285,4.2Zm20.234,1.377h8.1v2.4a6.207,6.207,0,0,1-2.227,4.976q-2.227,1.89-7.7,2.085l0.322,1.455q11.3-.371,11.3-8.555V67.266H38.42V65.85H34.738v-4.4h-1.7v4.4h-8.1V61.729h-1.7V65.85H19.377v1.416h3.867v4.941h1.7V67.266Zm26.318,0.156a21.178,21.178,0,0,0,5.7-5.352l-1.6-.625a20.632,20.632,0,0,1-5.5,5.088,32.663,32.663,0,0,1-10,4.092l0.518,1.338a37.668,37.668,0,0,0,9.141-3.408v9.727h1.738V67.422Zm15.615-.937V61.25H65.119v17.1h1.738V67.988a38.733,38.733,0,0,1,5.029,1.973,36.139,36.139,0,0,1,4.853,2.666l1.025-1.358a48.077,48.077,0,0,0-10.889-4.785h0Zm28.682,8.994a6.765,6.765,0,0,0,2.432-5.615,6.072,6.072,0,0,0-2.412-5.083,10.516,10.516,0,0,0-12.979.811,8.038,8.038,0,0,0-2.891,6.02,6.012,6.012,0,0,0,.952,3.442,2.99,2.99,0,0,0,2.612,1.411q2.676,0,4.453-3.516a20.277,20.277,0,0,0,1.885-8.77,8.009,8.009,0,0,1,5.024,1.582,5.87,5.87,0,0,1-.43,8.838,11.011,11.011,0,0,1-5.376,1.826l0.381,1.318A11.422,11.422,0,0,0,95.559,75.479ZM86.6,71.685Q85.246,75.1,83.42,75.1a1.848,1.848,0,0,1-1.66-.991,4.611,4.611,0,0,1-.6-2.417,6.8,6.8,0,0,1,2.041-4.819,8.314,8.314,0,0,1,4.873-2.563A21.531,21.531,0,0,1,86.6,71.685Zm27.149-8.462q-0.576-.029-1.982-0.029-5.978,0-10.489.186l0.078,1.367q6.807-.264,10.2-0.322l0.04,0.2q-1.993,1.016-2.979,1.543l0.7,0.977a35.868,35.868,0,0,1,5.01-2.412ZM115.48,75.7a45.3,45.3,0,0,1-6.679.488,19.456,19.456,0,0,1-5.8-.547,1.874,1.874,0,0,1-1.421-1.787,4.355,4.355,0,0,1,1.582-2.978l-1.064-.791a5.1,5.1,0,0,0-2,3.877,2.944,2.944,0,0,0,1.635,2.686q1.636,0.938,6.265.938h1.152a43.536,43.536,0,0,0,6.573-.449Zm1.6-15.449-1.016.478a19.017,19.017,0,0,1,1.4,2.705l1.123-.459a23.621,23.621,0,0,0-1.5-2.725h0Zm-2.695.41-1.065.479a22.931,22.931,0,0,1,1.426,2.734l1.113-.5a20.337,20.337,0,0,0-1.474-2.715h0ZM136.6,77.871a1.39,1.39,0,0,0,.566-1.152v-15.7H135.6V76.133a0.744,0.744,0,0,1-.9.772h-2.207l0.244,1.406h2.471A2.212,2.212,0,0,0,136.6,77.871Zm-12.266-7.6v8.262h1.572V70.527a17.427,17.427,0,0,0,2.627,2.461l0.859-1.182a21.876,21.876,0,0,1-1.875-1.465,11.268,11.268,0,0,1-1.591-1.572l-0.02-.019V67.8h3.584V66.6H125.91V62.988a27.09,27.09,0,0,0,3.379-.732l-0.644-1.143a25.024,25.024,0,0,1-3.873.815q-2.573.386-4.614,0.532l0.264,1.221q1.836-.166,3.916-0.459V66.6h-4.346v1.2h4.063a15.92,15.92,0,0,1-2.183,3.545,20.239,20.239,0,0,1-2.886,3.135l0.821,0.918a20.863,20.863,0,0,0,4.531-5.127h0Zm8.359,3.633V62.363h-1.552V73.906H132.7Zm22.588,2.236a0.754,0.754,0,0,1-.918.772H152.16l0.225,1.387h2.676a1.934,1.934,0,0,0,1.235-.43,1.268,1.268,0,0,0,.542-1.016V61.66H141.516v7.715a19.161,19.161,0,0,1-.528,4.712,11.012,11.012,0,0,1-1.816,3.833l1.055,0.713a12.355,12.355,0,0,0,2.617-6.367h5.439V78.35H149.8V72.266h5.488v3.877ZM149.8,66.27V62.8h5.488V66.27H149.8Zm-1.514,0h-5.234V62.8h5.234V66.27Zm-5.234,2.813V67.451h5.234v3.574h-5.332q0.1-1.66.1-1.943h0Zm6.748-1.631h5.488v3.574H149.8V67.451Zm12.92,3.516a29.781,29.781,0,0,1,1.347-8.662l-1.5-.264a32.723,32.723,0,0,0-1.338,8.848,23.214,23.214,0,0,0,1.006,6.973l1.4-.322a23.319,23.319,0,0,1-.908-6.572h0ZM176.8,63.389V63.3q-0.518-.029-2.08-0.029-3.145,0-8.174.293,0.059,0.879.059,1.318,5.292-.273,7.314-0.273,1.377,0,2.93.029-0.05-.8-0.049-1.25h0ZM176.965,75.7a31.477,31.477,0,0,1-3.906.234,23.934,23.934,0,0,1-3.091-.151,3.845,3.845,0,0,1-1.739-.62,1.449,1.449,0,0,1-.649-1.23,4.162,4.162,0,0,1,1.2-2.852l-1.133-.606a5.847,5.847,0,0,0-1.464,3.545,2.631,2.631,0,0,0,.693,1.885,3.992,3.992,0,0,0,2.036,1.05,19.086,19.086,0,0,0,4.058.317,38.132,38.132,0,0,0,3.994-.215V75.7Zm11.865,2.441a12.588,12.588,0,0,0,6.294-1.416,4.448,4.448,0,0,0,2.485-4.062,4.228,4.228,0,0,0-2.221-3.809,10.646,10.646,0,0,0-5.572-1.357,12.354,12.354,0,0,0-3.134.4l-0.01-.547q0-.928.068-2.051h9.112V64.023h-9.024q0.117-1.572.244-2.617l-1.523-.02q-0.117,1.23-.215,2.7h-4.9v1.279h4.834q-0.03.723-.03,1.484t0.03,1.514a9.882,9.882,0,0,0-3.814,2.593,5.3,5.3,0,0,0-1.479,3.579,2.9,2.9,0,0,0,.722,2.1,2.722,2.722,0,0,0,2.051.747,8.32,8.32,0,0,0,5.615-2.544,15.568,15.568,0,0,0,4.053-5.855,5.963,5.963,0,0,1,2.681,1.377,3,3,0,0,1,.981,2.246,3.489,3.489,0,0,1-2.026,3.2,12.461,12.461,0,0,1-5.737,1.138l0.263,1.2h0.254Zm-1.475-4.131a27.3,27.3,0,0,1-.634-4.824,10.514,10.514,0,0,1,3.213-.508c0.338,0,.677.016,1.015,0.049a14.209,14.209,0,0,1-3.594,5.283h0Zm-1.162.9a6.244,6.244,0,0,1-3.339,1.172q-1.465,0-1.465-1.777a3.8,3.8,0,0,1,1.2-2.51,9.2,9.2,0,0,1,2.759-2.061,25.2,25.2,0,0,0,.849,5.176h0Zm17.969-13.506q0,1.358-.058,2.617h-3.643v1.3h3.555a28.131,28.131,0,0,1-1.392,6.587,20.962,20.962,0,0,1-2.544,5.4l1.162,0.762a18.367,18.367,0,0,0,2.656-5.312,30.536,30.536,0,0,0,1.661-7.432h7.207v-1.3h-7.1q0.1-1.523.1-2.617h-1.6Zm11.611,5.752a72.333,72.333,0,0,0-7.548.4l0.1,1.289q4.19-.4,7.686-0.4,0.4,0,.879.02l0.019-1.279c-0.319-.019-0.7-0.029-1.133-0.029h0Zm1.631,8.848a36.41,36.41,0,0,1-4.472.264q-3.076,0-3.745-.439a1.229,1.229,0,0,1-.66-1.045,3.12,3.12,0,0,1,.713-1.846l-1.094-.615a3.888,3.888,0,0,0-1.113,2.627,2.1,2.1,0,0,0,.733,1.621,3.7,3.7,0,0,0,2.006.85,25.756,25.756,0,0,0,3.511.186,26.288,26.288,0,0,0,4.2-.264Zm15.337-.088a4.951,4.951,0,0,0,2.407-4.443,4.643,4.643,0,0,0-1.523-3.657,5.779,5.779,0,0,0-3.984-1.353,28.992,28.992,0,0,0-3.985.42l-4.775.742,0.205,1.318a52.244,52.244,0,0,1,8.613-1.221,4.046,4.046,0,0,1,2.876,1.035,3.578,3.578,0,0,1,1.109,2.744,3.824,3.824,0,0,1-2.139,3.486q-2.139,1.221-7.158,1.358l0.215,1.26Q230.334,77.451,232.741,75.918Zm24.3-12.617h-17v1.3h9.8a10.948,10.948,0,0,0-3.154,3.267,7.3,7.3,0,0,0-1.2,3.892,6.2,6.2,0,0,0,.489,2.519,5.382,5.382,0,0,0,1.494,1.963,6.647,6.647,0,0,0,2.329,1.265,10.241,10.241,0,0,0,2.51.478q1.186,0.063,2.993.063h0.049l0.1-1.445c-0.4.019-.794,0.029-1.171,0.029a12.437,12.437,0,0,1-3.99-.522,5.148,5.148,0,0,1-2.4-1.65,4.38,4.38,0,0,1-.9-2.817,6.514,6.514,0,0,1,1.69-4.214,9.549,9.549,0,0,1,3.476-2.788h4.893V63.3Z" transform="translate(-0.469)"/>
  <path id="Terms" class="cls-1" d="M81.208,40.5h5.65V4.2h6.65V0H74.358V4.2h6.85V40.5Zm23.75,0.4q4.248,0,6.2-2.4t1.95-6.95v-1.1h-5.2V32.2a8.179,8.179,0,0,1-.6,3.575,2.337,2.337,0,0,1-2.3,1.175,2.746,2.746,0,0,1-2.475-1.175,7.161,7.161,0,0,1-.775-3.825v-5.8h11.4V23.8a34.59,34.59,0,0,0-.575-7.075,7.005,7.005,0,0,0-2.35-4.075,8.2,8.2,0,0,0-5.275-1.45q-4.8,0-6.675,2.775t-1.875,8.775v6.6a23.189,23.189,0,0,0,.75,6.5,6.749,6.749,0,0,0,2.6,3.775,9.081,9.081,0,0,0,5.2,1.275h0Zm-3.2-17.65V21.7a23.65,23.65,0,0,1,.25-3.975,3.374,3.374,0,0,1,.925-1.975,2.883,2.883,0,0,1,1.975-.6,2.38,2.38,0,0,1,2.425,1.275,11.167,11.167,0,0,1,.575,4.225v2.6h-6.15Zm16.4,17.25h5.35V19.4a6.394,6.394,0,0,1,1.975-2.175,4.377,4.377,0,0,1,2.325-.625,8.459,8.459,0,0,1,2.95.6V11.3a6.97,6.97,0,0,0-.85-0.05,6.105,6.105,0,0,0-3.325,1,10.473,10.473,0,0,0-3.075,3.45V11.6h-5.35V40.5Zm15.9,0h4.95V16.954a8.658,8.658,0,0,1,2.25-1.725,4.9,4.9,0,0,1,2.25-.625,2.282,2.282,0,0,1,1.85.775,4.429,4.429,0,0,1,.65,2.775V40.5h4.9V16.954a7.927,7.927,0,0,1,2.2-1.725,4.982,4.982,0,0,1,2.3-.625,2.282,2.282,0,0,1,1.85.775,4.429,4.429,0,0,1,.65,2.775V40.5h4.9V17.8a7.579,7.579,0,0,0-1.425-5.05,4.632,4.632,0,0,0-3.675-1.65,9.045,9.045,0,0,0-7.2,3.65,4.469,4.469,0,0,0-4.7-3.65,8.3,8.3,0,0,0-3.625.825,10.279,10.279,0,0,0-3.175,2.425V11.6h-4.95V40.5Zm40.7,0.4a8.521,8.521,0,0,0,5.85-1.9,6.952,6.952,0,0,0,2.15-5.5,7.977,7.977,0,0,0-1.075-4.25,17.192,17.192,0,0,0-3.025-3.55l-5.1-4.7a3.838,3.838,0,0,1-1.45-2.9,3,3,0,0,1,.775-2.1,2.923,2.923,0,0,1,4.475.425,9.748,9.748,0,0,1,1.15,3.725l3.6-1.35a9.28,9.28,0,0,0-2.175-5.475,6.544,6.544,0,0,0-5.175-2.125,7.649,7.649,0,0,0-5.45,1.875,6.811,6.811,0,0,0-2,5.225,7.917,7.917,0,0,0,.925,3.975,11.656,11.656,0,0,0,2.625,3.075l4.95,4.25a7.563,7.563,0,0,1,1.8,2.05,4.6,4.6,0,0,1,.55,2.25,3.121,3.121,0,0,1-.775,2.225,2.84,2.84,0,0,1-2.175.825,3.219,3.219,0,0,1-2.775-1.35,9.479,9.479,0,0,1-1.375-4.15l-4.45,1.35a9.128,9.128,0,0,0,2.475,5.9,7.625,7.625,0,0,0,5.675,2.2h0Z" transform="translate(-0.469)"/>
</svg>
