<svg id="home_main_catch02.svg" xmlns="http://www.w3.org/2000/svg" width="765.188" height="28.719" viewBox="0 0 765.188 28.719">
  <defs>
    <style>
      .cls-1 {
        fill-rule: evenodd;
      }
    </style>
  </defs>
  <path id="Creating_industries_of_the_future_to_build_a_better_tomorrow_のコピー" data-name="Creating industries of the future to build a better tomorrow のコピー" class="cls-1" d="M10.484,1.239A9.048,9.048,0,0,0,3.057,4.552a11.949,11.949,0,0,0-2.49,7.813q0,6.274,3.316,9.279a8.955,8.955,0,0,0,6.226,2.272,8.811,8.811,0,0,0,6.835-2.768,9.765,9.765,0,0,0,2.491-5.7H16.592a9.517,9.517,0,0,1-1.31,3.428,5.436,5.436,0,0,1-4.821,2.476A6.013,6.013,0,0,1,5.289,19a10.089,10.089,0,0,1-1.734-6.136q0-4.618,1.92-6.854a6.325,6.325,0,0,1,5.042-2.236A5.924,5.924,0,0,1,14.5,4.989a5.938,5.938,0,0,1,1.892,3.3h2.842a7.637,7.637,0,0,0-2.476-4.893,8.654,8.654,0,0,0-6.269-2.153h0Zm12.436,22.1h2.637V14.32a4.473,4.473,0,0,1,1.069-2.952,3.762,3.762,0,0,1,3.061-1.282q0.234,0,.432.015a3.945,3.945,0,0,1,.432.059V7.377q-0.425-.044-0.6-0.059C29.835,7.309,29.751,7.3,29.7,7.3a3.912,3.912,0,0,0-2.768,1.135,5.987,5.987,0,0,0-1.509,1.926V7.655h-2.5V23.344ZM39.31,7.3a6.705,6.705,0,0,0-5.328,2.358A9.052,9.052,0,0,0,31.944,15.8a8.324,8.324,0,0,0,2.023,5.969A6.547,6.547,0,0,0,38.9,23.9a8.909,8.909,0,0,0,2.137-.234,6.085,6.085,0,0,0,2.951-1.582,6.926,6.926,0,0,0,1.291-1.736,5.461,5.461,0,0,0,.681-1.926H43.37a4.663,4.663,0,0,1-.968,1.839,4.165,4.165,0,0,1-3.27,1.369,3.731,3.731,0,0,1-3.241-1.447,6.781,6.781,0,0,1-1.119-3.841H46.182a18.231,18.231,0,0,0-.233-3.457A7.026,7.026,0,0,0,44.9,10.116a5.946,5.946,0,0,0-2.373-2.029A7.079,7.079,0,0,0,39.31,7.3h0ZM34.83,14.247a4.975,4.975,0,0,1,1.293-3.332A3.962,3.962,0,0,1,39.144,9.6a3.79,3.79,0,0,1,3.588,1.9,6.881,6.881,0,0,1,.741,2.739H34.83Zm16.714,4.928a2.33,2.33,0,0,1,1.223-2.192,6.16,6.16,0,0,1,2.155-.6l1.593-.2a10.447,10.447,0,0,0,1.491-.293,4.488,4.488,0,0,0,1.243-.514v2.121a3.621,3.621,0,0,1-2.2,3.5,6.023,6.023,0,0,1-2.7.643,3.1,3.1,0,0,1-1.978-.658,2.165,2.165,0,0,1-.835-1.8h0Zm2.183-4.8a6.487,6.487,0,0,0-3.574,1.478,4.265,4.265,0,0,0-1.362,3.38,4.395,4.395,0,0,0,1.384,3.314,4.949,4.949,0,0,0,3.567,1.324,7.164,7.164,0,0,0,3.325-.776,6.709,6.709,0,0,0,2.315-1.831,3.729,3.729,0,0,0,.454,1.45,2.169,2.169,0,0,0,1.977.967,6.85,6.85,0,0,0,.879-0.044,7.344,7.344,0,0,0,.938-0.22V21.469q-0.249.044-.469,0.066t-0.4.022a0.813,0.813,0,0,1-.711-0.248,1.155,1.155,0,0,1-.168-0.659V11.611a3.58,3.58,0,0,0-1.712-3.281,8.522,8.522,0,0,0-4.492-1.055A7.7,7.7,0,0,0,51.49,8.413q-1.807,1.138-1.88,4.047h2.461a3.7,3.7,0,0,1,.629-1.84A3.472,3.472,0,0,1,55.623,9.5a5.113,5.113,0,0,1,2.741.61,2.154,2.154,0,0,1,.958,1.963,2.337,2.337,0,0,1-.176,1.015,1.432,1.432,0,0,1-1.216.76ZM66.734,7.655H64.61V9.809h2.124V20.194a4.2,4.2,0,0,0,.659,2.454,2.862,2.862,0,0,0,2.5.945,9.02,9.02,0,0,0,1.062-.059,5.916,5.916,0,0,0,.945-0.19V21.249q-0.293.039-.513,0.049t-0.41.01a2.364,2.364,0,0,1-1.025-.161,1.107,1.107,0,0,1-.557-1.1V9.809h2.5V7.655H69.4V3.275H66.734v4.38Zm7.808,15.689h2.681V7.729H74.542V23.344Zm0-18.53h2.681V1.825H74.542V4.813Zm6.665,18.53h2.637V15.126a10.8,10.8,0,0,1,.2-2.366,3.884,3.884,0,0,1,.857-1.6,3.961,3.961,0,0,1,1.9-1.289,5.2,5.2,0,0,1,1.538-.19,2.576,2.576,0,0,1,2.549,1.465,5.356,5.356,0,0,1,.425,2.314v9.888h2.681V13.28a8.272,8.272,0,0,0-.645-3.647Q92.178,7.3,88.838,7.3a6.289,6.289,0,0,0-2.769.6,7.028,7.028,0,0,0-2.358,1.978V7.655h-2.5V23.344ZM103.4,7.377A5.925,5.925,0,0,0,98.77,9.589a9.086,9.086,0,0,0-1.919,6.152q0,4.175,1.9,5.984a6.781,6.781,0,0,0,7.376,1.223,5.159,5.159,0,0,0,1.9-1.787,12.11,12.11,0,0,1-.51,4.5Q106.585,27.8,103.57,27.8a3.848,3.848,0,0,1-2.8-.879,2.987,2.987,0,0,1-.758-1.626h-2.68a4.432,4.432,0,0,0,1.928,3.552,7.559,7.559,0,0,0,4.249,1.135q4.539,0,6.175-3.193a10.552,10.552,0,0,0,.876-4.717V7.8H108.13V9.779a7.219,7.219,0,0,0-1.517-1.494,5.683,5.683,0,0,0-3.21-.908h0Zm4.727,8.057a8.3,8.3,0,0,1-.641,3.384,4.04,4.04,0,0,1-3.978,2.564A3.452,3.452,0,0,1,100.632,20a6.5,6.5,0,0,1-1.071-4.036,10.278,10.278,0,0,1,.539-3.647,3.762,3.762,0,0,1,3.789-2.607,3.82,3.82,0,0,1,3.046,1.406,6.563,6.563,0,0,1,1.195,4.321h0Zm14.781,7.91h2.68V7.729h-2.68V23.344Zm0-18.53h2.68V1.825h-2.68V4.813Zm6.665,18.53h2.636V15.126a10.784,10.784,0,0,1,.2-2.366,3.89,3.89,0,0,1,.857-1.6,3.964,3.964,0,0,1,1.9-1.289,5.2,5.2,0,0,1,1.538-.19,2.575,2.575,0,0,1,2.549,1.465,5.357,5.357,0,0,1,.425,2.314v9.888h2.681V13.28a8.265,8.265,0,0,0-.645-3.647Q140.547,7.3,137.208,7.3a6.291,6.291,0,0,0-2.769.6,7.027,7.027,0,0,0-2.358,1.978V7.655h-2.5V23.344Zm18.354-7.661a7,7,0,0,1,1.232-4.482,3.936,3.936,0,0,1,3.213-1.523,3.765,3.765,0,0,1,2.988,1.428,6.709,6.709,0,0,1,1.21,4.4,7.466,7.466,0,0,1-1.173,4.519,3.588,3.588,0,0,1-3,1.575,3.722,3.722,0,0,1-3.411-1.7,7.81,7.81,0,0,1-1.064-4.219h0Zm3.944-8.306a5.7,5.7,0,0,0-4.983,2.512,10.152,10.152,0,0,0-1.744,5.94,8.637,8.637,0,0,0,1.912,5.867,5.811,5.811,0,0,0,4.523,2.2,6.207,6.207,0,0,0,2.875-.645,5.69,5.69,0,0,0,2.174-2.095v2.183H159V1.752H156.47V9.677a7.062,7.062,0,0,0-1.59-1.538,5.548,5.548,0,0,0-3.006-.762h0Zm11.012,0.278V18.319a6.784,6.784,0,0,0,.647,3.208q1.193,2.241,4.485,2.241a5.437,5.437,0,0,0,3.593-1.23,5.31,5.31,0,0,0,1.251-1.509l-0.029,2.315h2.49V7.655h-2.637V15.36a10,10,0,0,1-.528,3.618,3.61,3.61,0,0,1-3.652,2.461,2.573,2.573,0,0,1-2.553-1.406,4.482,4.482,0,0,1-.371-1.963V7.655h-2.7Zm15.777,10.767a5.968,5.968,0,0,0,1.579,3.933q1.476,1.589,5.02,1.589a6.907,6.907,0,0,0,4.9-1.523,4.819,4.819,0,0,0,1.609-3.618,3.531,3.531,0,0,0-1.538-3.179,13.91,13.91,0,0,0-3.881-1.333l-1.776-.425a6.287,6.287,0,0,1-1.761-.643,1.844,1.844,0,0,1-1.034-1.635,1.769,1.769,0,0,1,.787-1.5,3.934,3.934,0,0,1,2.317-.569,4.187,4.187,0,0,1,3.224,1.034,2.991,2.991,0,0,1,.644,1.617h2.491a4.481,4.481,0,0,0-.966-2.842q-1.588-2.08-5.181-2.08a6.539,6.539,0,0,0-4.371,1.377,4.5,4.5,0,0,0-1.626,3.6,3.318,3.318,0,0,0,1.727,2.959,10.479,10.479,0,0,0,3.007,1.113l2.129,0.527a10.934,10.934,0,0,1,2.292.747,1.68,1.68,0,0,1,.909,1.538,2.108,2.108,0,0,1-1.137,1.97,5.288,5.288,0,0,1-2.631.637,4.275,4.275,0,0,1-3.529-1.274,3.784,3.784,0,0,1-.672-2.021h-2.534ZM195.157,7.655h-2.124V9.809h2.124V20.194a4.194,4.194,0,0,0,.659,2.454,2.861,2.861,0,0,0,2.5.945,9.014,9.014,0,0,0,1.062-.059,5.922,5.922,0,0,0,.945-0.19V21.249q-0.294.039-.513,0.049c-0.147.006-.283,0.01-0.41,0.01a2.365,2.365,0,0,1-1.026-.161,1.107,1.107,0,0,1-.556-1.1V9.809h2.5V7.655h-2.5V3.275h-2.666v4.38Zm7.881,15.689h2.636V14.32a4.474,4.474,0,0,1,1.07-2.952,3.761,3.761,0,0,1,3.061-1.282q0.234,0,.432.015a3.931,3.931,0,0,1,.432.059V7.377q-0.425-.044-0.6-0.059c-0.117-.01-0.2-0.015-0.249-0.015a3.914,3.914,0,0,0-2.769,1.135,6,6,0,0,0-1.509,1.926V7.655h-2.5V23.344Zm9.917,0h2.68V7.729h-2.68V23.344Zm0-18.53h2.68V1.825h-2.68V4.813ZM226.093,7.3a6.707,6.707,0,0,0-5.329,2.358,9.051,9.051,0,0,0-2.038,6.138,8.324,8.324,0,0,0,2.023,5.969,6.547,6.547,0,0,0,4.935,2.131,8.906,8.906,0,0,0,2.137-.234,6.086,6.086,0,0,0,2.952-1.582,6.922,6.922,0,0,0,1.29-1.736,5.47,5.47,0,0,0,.682-1.926h-2.593a4.67,4.67,0,0,1-.968,1.839,4.166,4.166,0,0,1-3.271,1.369,3.732,3.732,0,0,1-3.241-1.447,6.789,6.789,0,0,1-1.119-3.841h11.411a18.163,18.163,0,0,0-.233-3.457,7.031,7.031,0,0,0-1.048-2.769,5.952,5.952,0,0,0-2.373-2.029,7.08,7.08,0,0,0-3.217-.784h0Zm-4.481,6.943a4.971,4.971,0,0,1,1.293-3.332A3.96,3.96,0,0,1,225.926,9.6a3.79,3.79,0,0,1,3.588,1.9,6.874,6.874,0,0,1,.74,2.739h-8.642Zm13.725,4.175a5.974,5.974,0,0,0,1.58,3.933q1.476,1.589,5.02,1.589a6.9,6.9,0,0,0,4.9-1.523,4.817,4.817,0,0,0,1.61-3.618,3.531,3.531,0,0,0-1.538-3.179,13.923,13.923,0,0,0-3.881-1.333l-1.776-.425a6.287,6.287,0,0,1-1.761-.643,1.844,1.844,0,0,1-1.034-1.635,1.769,1.769,0,0,1,.787-1.5,3.931,3.931,0,0,1,2.316-.569,4.184,4.184,0,0,1,3.224,1.034,2.984,2.984,0,0,1,.645,1.617h2.49a4.474,4.474,0,0,0-.965-2.842q-1.589-2.08-5.181-2.08A6.544,6.544,0,0,0,237.4,8.622a4.5,4.5,0,0,0-1.625,3.6,3.316,3.316,0,0,0,1.727,2.959,10.479,10.479,0,0,0,3.007,1.113l2.129,0.527a10.934,10.934,0,0,1,2.292.747,1.679,1.679,0,0,1,.908,1.538,2.107,2.107,0,0,1-1.136,1.97,5.291,5.291,0,0,1-2.631.637,4.275,4.275,0,0,1-3.529-1.274,3.776,3.776,0,0,1-.672-2.021h-2.535Zm30.476,3.208a3.813,3.813,0,0,1-3.447-1.668,7.491,7.491,0,0,1-1.086-4.17,8.616,8.616,0,0,1,1.086-4.448A3.732,3.732,0,0,1,265.842,9.5a3.9,3.9,0,0,1,3.8,2.165,7.915,7.915,0,0,1,.7,3.57,9.962,9.962,0,0,1-.964,4.411,3.589,3.589,0,0,1-3.556,1.982h0Zm0.1-14.429a6.671,6.671,0,0,0-5.353,2.342,9.391,9.391,0,0,0-1.992,6.293,8.675,8.675,0,0,0,1.891,5.876,6.4,6.4,0,0,0,5.1,2.188q3.855,0,5.688-2.473a10.245,10.245,0,0,0,1.832-6.264,7.914,7.914,0,0,0-2.08-5.942,7.029,7.029,0,0,0-5.091-2.02h0Zm11.068-1.934V7.729H274.8v2.08h2.183V23.344h2.607V9.809h2.637V7.729H279.59a12.177,12.177,0,0,1,.237-3.171,1.377,1.377,0,0,1,1.452-.623q0.163,0,.348.007t0.6,0.037v-2.4q-0.337-.029-0.6-0.044c-0.175-.01-0.346-0.015-0.512-0.015q-2.637,0-3.56,1.348a4.7,4.7,0,0,0-.571,2.4h0Zm16.538,2.388H291.4V9.809h2.124V20.194a4.2,4.2,0,0,0,.659,2.454,2.864,2.864,0,0,0,2.5.945,9.014,9.014,0,0,0,1.062-.059,5.922,5.922,0,0,0,.945-0.19V21.249c-0.2.026-.366,0.043-0.513,0.049s-0.283.01-.41,0.01a2.36,2.36,0,0,1-1.025-.161,1.106,1.106,0,0,1-.557-1.1V9.809h2.5V7.655h-2.5V3.275h-2.666v4.38Zm7.808,15.689h2.636v-8.32q0-3.135,1.333-4.263a4.492,4.492,0,0,1,2.974-1.128,2.808,2.808,0,0,1,2.695,1.289,5.529,5.529,0,0,1,.44,2.534v9.888h2.71V13.28a8.15,8.15,0,0,0-.659-3.618q-1.217-2.387-4.629-2.388a5.684,5.684,0,0,0-3.179.835,7.614,7.614,0,0,0-1.685,1.67V1.752h-2.636V23.344ZM324.486,7.3a6.7,6.7,0,0,0-5.328,2.358A9.051,9.051,0,0,0,317.12,15.8a8.324,8.324,0,0,0,2.023,5.969,6.547,6.547,0,0,0,4.935,2.131,8.906,8.906,0,0,0,2.137-.234,6.087,6.087,0,0,0,2.951-1.582,6.924,6.924,0,0,0,1.291-1.736,5.446,5.446,0,0,0,.681-1.926h-2.593a4.657,4.657,0,0,1-.968,1.839,4.165,4.165,0,0,1-3.27,1.369,3.732,3.732,0,0,1-3.241-1.447,6.774,6.774,0,0,1-1.119-3.841h11.411a18.248,18.248,0,0,0-.233-3.457,7.031,7.031,0,0,0-1.048-2.769A5.952,5.952,0,0,0,327.7,8.087a7.081,7.081,0,0,0-3.218-.784h0Zm-4.481,6.943a4.981,4.981,0,0,1,1.293-3.332A3.963,3.963,0,0,1,324.319,9.6a3.789,3.789,0,0,1,3.588,1.9,6.89,6.89,0,0,1,.741,2.739h-8.643Zm23.687-8.98V7.729h-2.183v2.08h2.183V23.344H346.3V9.809h2.637V7.729H346.3a12.177,12.177,0,0,1,.237-3.171,1.377,1.377,0,0,1,1.452-.623c0.108,0,.225,0,0.348.007s0.324,0.017.6,0.037v-2.4q-0.337-.029-0.6-0.044c-0.175-.01-0.346-0.015-0.512-0.015q-2.637,0-3.56,1.348a4.7,4.7,0,0,0-.571,2.4h0Zm7.617,2.388V18.319a6.784,6.784,0,0,0,.647,3.208q1.192,2.241,4.484,2.241a5.438,5.438,0,0,0,3.594-1.23,5.31,5.31,0,0,0,1.251-1.509l-0.03,2.315h2.491V7.655h-2.637V15.36a10,10,0,0,1-.528,3.618,3.61,3.61,0,0,1-3.652,2.461,2.576,2.576,0,0,1-2.554-1.406A4.5,4.5,0,0,1,354,18.07V7.655h-2.695Zm17.271,0h-2.124V9.809h2.124V20.194a4.194,4.194,0,0,0,.659,2.454,2.861,2.861,0,0,0,2.505.945,9.026,9.026,0,0,0,1.062-.059,5.888,5.888,0,0,0,.944-0.19V21.249c-0.195.026-.366,0.043-0.512,0.049s-0.284.01-.41,0.01a2.365,2.365,0,0,1-1.026-.161,1.107,1.107,0,0,1-.556-1.1V9.809h2.5V7.655h-2.5V3.275H368.58v4.38Zm7.749,0V18.319a6.784,6.784,0,0,0,.646,3.208q1.194,2.241,4.485,2.241a5.437,5.437,0,0,0,3.593-1.23,5.31,5.31,0,0,0,1.251-1.509l-0.029,2.315h2.49V7.655h-2.637V15.36a10.024,10.024,0,0,1-.527,3.618,3.611,3.611,0,0,1-3.652,2.461,2.575,2.575,0,0,1-2.554-1.406,4.5,4.5,0,0,1-.371-1.963V7.655h-2.695Zm16.816,15.689h2.637V14.32a4.473,4.473,0,0,1,1.069-2.952,3.763,3.763,0,0,1,3.062-1.282q0.234,0,.432.015a3.931,3.931,0,0,1,.432.059V7.377q-0.426-.044-0.6-0.059c-0.117-.01-0.2-0.015-0.249-0.015a3.91,3.91,0,0,0-2.768,1.135,5.986,5.986,0,0,0-1.509,1.926V7.655h-2.5V23.344ZM409.535,7.3a6.7,6.7,0,0,0-5.328,2.358,9.052,9.052,0,0,0-2.039,6.138,8.325,8.325,0,0,0,2.024,5.969,6.547,6.547,0,0,0,4.935,2.131,8.912,8.912,0,0,0,2.137-.234,6.087,6.087,0,0,0,2.951-1.582,6.924,6.924,0,0,0,1.291-1.736,5.446,5.446,0,0,0,.681-1.926h-2.593a4.657,4.657,0,0,1-.968,1.839,4.165,4.165,0,0,1-3.27,1.369,3.731,3.731,0,0,1-3.241-1.447A6.774,6.774,0,0,1,405,16.342h11.411a18.248,18.248,0,0,0-.233-3.457,7.017,7.017,0,0,0-1.049-2.769,5.938,5.938,0,0,0-2.373-2.029,7.077,7.077,0,0,0-3.217-.784h0Zm-4.481,6.943a4.971,4.971,0,0,1,1.293-3.332A3.96,3.96,0,0,1,409.368,9.6a3.79,3.79,0,0,1,3.588,1.9,6.89,6.89,0,0,1,.741,2.739h-8.643Zm23.555-6.592h-2.124V9.809h2.124V20.194a4.2,4.2,0,0,0,.659,2.454,2.863,2.863,0,0,0,2.505.945,9.014,9.014,0,0,0,1.062-.059,5.922,5.922,0,0,0,.945-0.19V21.249c-0.2.026-.366,0.043-0.513,0.049s-0.283.01-.41,0.01a2.36,2.36,0,0,1-1.025-.161,1.106,1.106,0,0,1-.557-1.1V9.809h2.5V7.655h-2.5V3.275h-2.666v4.38ZM442.591,21.63a3.816,3.816,0,0,1-3.448-1.668,7.491,7.491,0,0,1-1.086-4.17,8.616,8.616,0,0,1,1.086-4.448A3.734,3.734,0,0,1,442.62,9.5a3.9,3.9,0,0,1,3.8,2.165,7.929,7.929,0,0,1,.695,3.57,9.948,9.948,0,0,1-.964,4.411,3.588,3.588,0,0,1-3.555,1.982h0Zm0.1-14.429a6.67,6.67,0,0,0-5.353,2.342,9.386,9.386,0,0,0-1.993,6.293,8.675,8.675,0,0,0,1.891,5.876,6.4,6.4,0,0,0,5.106,2.188q3.853,0,5.687-2.473a10.239,10.239,0,0,0,1.833-6.264,7.918,7.918,0,0,0-2.08-5.942,7.032,7.032,0,0,0-5.091-2.02h0Zm18.523,16.143h2.432V21.337a7.3,7.3,0,0,0,1.573,1.641,5.154,5.154,0,0,0,3.03.864,5.874,5.874,0,0,0,5.014-2.461,10.158,10.158,0,0,0,1.809-6.182q0-3.925-1.831-5.94a6.148,6.148,0,0,0-4.772-2.014A5.774,5.774,0,0,0,463.78,9.56V1.752h-2.564V23.344Zm6.871-1.831a3.858,3.858,0,0,1-3.895-2.593,9.667,9.667,0,0,1-.559-3.589q0-3.061,1.36-4.395A4.384,4.384,0,0,1,468.16,9.6,3.511,3.511,0,0,1,471.3,11.23a7.334,7.334,0,0,1,1.066,4.1,8.339,8.339,0,0,1-1.066,4.482,3.537,3.537,0,0,1-3.211,1.7h0Zm9.975-13.857V18.319a6.784,6.784,0,0,0,.647,3.208q1.193,2.241,4.484,2.241a5.438,5.438,0,0,0,3.594-1.23,5.31,5.31,0,0,0,1.251-1.509l-0.03,2.315H490.5V7.655h-2.637V15.36a10,10,0,0,1-.528,3.618,3.61,3.61,0,0,1-3.652,2.461,2.576,2.576,0,0,1-2.554-1.406,4.5,4.5,0,0,1-.371-1.963V7.655h-2.695Zm16.743,15.689h2.681V7.729h-2.681V23.344Zm0-18.53h2.681V1.825h-2.681V4.813Zm6.738,18.53h2.637V1.825h-2.637V23.344Zm8.262-7.661a7,7,0,0,1,1.232-4.482,3.936,3.936,0,0,1,3.213-1.523,3.765,3.765,0,0,1,2.988,1.428,6.709,6.709,0,0,1,1.21,4.4,7.466,7.466,0,0,1-1.173,4.519,3.588,3.588,0,0,1-3,1.575,3.722,3.722,0,0,1-3.411-1.7,7.81,7.81,0,0,1-1.064-4.219h0Zm3.944-8.306a5.7,5.7,0,0,0-4.983,2.512,10.152,10.152,0,0,0-1.744,5.94,8.637,8.637,0,0,0,1.912,5.867,5.811,5.811,0,0,0,4.523,2.2,6.207,6.207,0,0,0,2.875-.645,5.69,5.69,0,0,0,2.174-2.095v2.183h2.373V1.752h-2.534V9.677a7.062,7.062,0,0,0-1.59-1.538,5.548,5.548,0,0,0-3.006-.762h0Zm21.427,11.8a2.331,2.331,0,0,1,1.223-2.192,6.167,6.167,0,0,1,2.155-.6l1.594-.2a10.462,10.462,0,0,0,1.491-.293,4.483,4.483,0,0,0,1.242-.514v2.121a3.621,3.621,0,0,1-2.2,3.5,6.022,6.022,0,0,1-2.695.643,3.1,3.1,0,0,1-1.978-.658,2.166,2.166,0,0,1-.835-1.8h0Zm2.183-4.8a6.485,6.485,0,0,0-3.574,1.478,4.263,4.263,0,0,0-1.363,3.38,4.395,4.395,0,0,0,1.385,3.314,4.946,4.946,0,0,0,3.567,1.324A7.166,7.166,0,0,0,540.7,23.1a6.711,6.711,0,0,0,2.314-1.831,3.729,3.729,0,0,0,.454,1.45,2.17,2.17,0,0,0,1.978.967,6.853,6.853,0,0,0,.879-0.044,7.364,7.364,0,0,0,.937-0.22V21.469c-0.166.029-.322,0.051-0.469,0.066s-0.278.022-.395,0.022a0.812,0.812,0,0,1-.71-0.248,1.15,1.15,0,0,1-.169-0.659V11.611a3.58,3.58,0,0,0-1.712-3.281,8.521,8.521,0,0,0-4.492-1.055,7.694,7.694,0,0,0-4.191,1.138q-1.808,1.138-1.88,4.047H535.7a3.7,3.7,0,0,1,.628-1.84A3.472,3.472,0,0,1,539.256,9.5a5.113,5.113,0,0,1,2.741.61,2.155,2.155,0,0,1,.958,1.963,2.336,2.336,0,0,1-.176,1.015,1.432,1.432,0,0,1-1.216.76Zm20.6,8.968h2.431V21.337a7.282,7.282,0,0,0,1.574,1.641,5.151,5.151,0,0,0,3.029.864A5.874,5.874,0,0,0,570,21.381a10.158,10.158,0,0,0,1.809-6.182q0-3.925-1.831-5.94a6.147,6.147,0,0,0-4.772-2.014,5.778,5.778,0,0,0-4.691,2.314V1.752h-2.563V23.344Zm6.87-1.831a3.859,3.859,0,0,1-3.9-2.593,9.69,9.69,0,0,1-.558-3.589q0-3.061,1.359-4.395A4.386,4.386,0,0,1,564.9,9.6a3.511,3.511,0,0,1,3.138,1.626,7.334,7.334,0,0,1,1.066,4.1,8.339,8.339,0,0,1-1.066,4.482,3.537,3.537,0,0,1-3.211,1.7h0ZM581.332,7.3A6.7,6.7,0,0,0,576,9.662a9.052,9.052,0,0,0-2.039,6.138,8.325,8.325,0,0,0,2.024,5.969,6.547,6.547,0,0,0,4.935,2.131,8.912,8.912,0,0,0,2.137-.234,6.087,6.087,0,0,0,2.951-1.582,6.924,6.924,0,0,0,1.291-1.736,5.486,5.486,0,0,0,.681-1.926h-2.593a4.67,4.67,0,0,1-.968,1.839,4.165,4.165,0,0,1-3.27,1.369,3.731,3.731,0,0,1-3.241-1.447,6.781,6.781,0,0,1-1.12-3.841H588.2a18.248,18.248,0,0,0-.233-3.457,7.032,7.032,0,0,0-1.049-2.769,5.938,5.938,0,0,0-2.373-2.029,7.077,7.077,0,0,0-3.217-.784h0Zm-4.481,6.943a4.971,4.971,0,0,1,1.293-3.332A3.96,3.96,0,0,1,581.165,9.6a3.79,3.79,0,0,1,3.588,1.9,6.89,6.89,0,0,1,.741,2.739h-8.643Zm15.22-6.592h-2.124V9.809h2.124V20.194a4.2,4.2,0,0,0,.659,2.454,2.861,2.861,0,0,0,2.5.945,9.014,9.014,0,0,0,1.062-.059,5.922,5.922,0,0,0,.945-0.19V21.249q-0.294.039-.513,0.049c-0.146.006-.283,0.01-0.41,0.01a2.368,2.368,0,0,1-1.026-.161,1.107,1.107,0,0,1-.556-1.1V9.809h2.5V7.655h-2.5V3.275h-2.666v4.38Zm8.335,0h-2.124V9.809h2.124V20.194a4.194,4.194,0,0,0,.659,2.454,2.861,2.861,0,0,0,2.5.945,9.014,9.014,0,0,0,1.062-.059,5.922,5.922,0,0,0,.945-0.19V21.249q-0.294.039-.513,0.049c-0.147.006-.283,0.01-0.41,0.01a2.365,2.365,0,0,1-1.026-.161,1.107,1.107,0,0,1-.556-1.1V9.809h2.5V7.655h-2.5V3.275h-2.666v4.38Zm14.28-.352a6.706,6.706,0,0,0-5.328,2.358A9.051,9.051,0,0,0,607.32,15.8a8.324,8.324,0,0,0,2.023,5.969,6.547,6.547,0,0,0,4.935,2.131,8.906,8.906,0,0,0,2.137-.234,6.082,6.082,0,0,0,2.951-1.582,6.924,6.924,0,0,0,1.291-1.736,5.446,5.446,0,0,0,.681-1.926h-2.592a4.659,4.659,0,0,1-.969,1.839,4.164,4.164,0,0,1-3.27,1.369,3.732,3.732,0,0,1-3.241-1.447,6.781,6.781,0,0,1-1.119-3.841h11.411a18.248,18.248,0,0,0-.233-3.457,7.031,7.031,0,0,0-1.048-2.769A5.952,5.952,0,0,0,617.9,8.087a7.081,7.081,0,0,0-3.218-.784h0Zm-4.48,6.943a4.975,4.975,0,0,1,1.292-3.332A3.964,3.964,0,0,1,614.52,9.6a3.788,3.788,0,0,1,3.587,1.9,6.873,6.873,0,0,1,.741,2.739h-8.642Zm14.765,9.1h2.637V14.32a4.473,4.473,0,0,1,1.069-2.952,3.764,3.764,0,0,1,3.062-1.282q0.234,0,.432.015a3.931,3.931,0,0,1,.432.059V7.377q-0.424-.044-0.6-0.059c-0.117-.01-0.2-0.015-0.249-0.015a3.91,3.91,0,0,0-2.768,1.135,5.986,5.986,0,0,0-1.509,1.926V7.655h-2.5V23.344ZM643.75,7.655h-2.124V9.809h2.124V20.194a4.194,4.194,0,0,0,.66,2.454,2.861,2.861,0,0,0,2.5.945,9.038,9.038,0,0,0,1.062-.059,5.888,5.888,0,0,0,.944-0.19V21.249c-0.2.026-.366,0.043-0.512,0.049s-0.284.01-.41,0.01a2.365,2.365,0,0,1-1.026-.161,1.107,1.107,0,0,1-.556-1.1V9.809h2.5V7.655h-2.5V3.275H643.75v4.38ZM657.732,21.63a3.813,3.813,0,0,1-3.447-1.668,7.491,7.491,0,0,1-1.086-4.17,8.616,8.616,0,0,1,1.086-4.448A3.732,3.732,0,0,1,657.761,9.5a3.9,3.9,0,0,1,3.8,2.165,7.916,7.916,0,0,1,.695,3.57,9.962,9.962,0,0,1-.963,4.411,3.589,3.589,0,0,1-3.556,1.982h0Zm0.1-14.429a6.671,6.671,0,0,0-5.353,2.342,9.391,9.391,0,0,0-1.992,6.293,8.675,8.675,0,0,0,1.891,5.876,6.4,6.4,0,0,0,5.105,2.188q3.855,0,5.687-2.473a10.239,10.239,0,0,0,1.833-6.264,7.914,7.914,0,0,0-2.08-5.942,7.029,7.029,0,0,0-5.091-2.02h0Zm10.409,16.143h2.636v-8.32q0-3.032,1.224-4.189a3.867,3.867,0,0,1,2.717-1.157,2.324,2.324,0,0,1,2.241,1.1,5.319,5.319,0,0,1,.381,2.329V23.344h2.681V14.218a4.568,4.568,0,0,1,1.12-3.472,3.8,3.8,0,0,1,2.674-1.04,3.1,3.1,0,0,1,1.911.586,2.54,2.54,0,0,1,.784,2.153v10.9h2.739V12.9a7.472,7.472,0,0,0-.615-3.311Q687.593,7.3,684.429,7.3a5.764,5.764,0,0,0-2.666.608A5.7,5.7,0,0,0,679.7,9.779a4.827,4.827,0,0,0-1.172-1.553,4.659,4.659,0,0,0-3.018-.923,5.112,5.112,0,0,0-2.959.894,8.763,8.763,0,0,0-1.7,1.685V7.655h-2.607V23.344Zm31.164-1.714a3.813,3.813,0,0,1-3.447-1.668,7.491,7.491,0,0,1-1.086-4.17,8.616,8.616,0,0,1,1.086-4.448A3.732,3.732,0,0,1,699.436,9.5a3.9,3.9,0,0,1,3.795,2.165,7.929,7.929,0,0,1,.7,3.57,9.962,9.962,0,0,1-.963,4.411,3.59,3.59,0,0,1-3.556,1.982h0Zm0.1-14.429a6.671,6.671,0,0,0-5.353,2.342,9.391,9.391,0,0,0-1.992,6.293,8.68,8.68,0,0,0,1.89,5.876A6.4,6.4,0,0,0,699.16,23.9q3.855,0,5.687-2.473a10.239,10.239,0,0,0,1.833-6.264,7.914,7.914,0,0,0-2.08-5.942,7.032,7.032,0,0,0-5.091-2.02h0Zm10.482,16.143h2.636V14.32a4.474,4.474,0,0,1,1.07-2.952,3.762,3.762,0,0,1,3.061-1.282c0.156,0,.3.005,0.432,0.015a3.979,3.979,0,0,1,.433.059V7.377q-0.426-.044-0.6-0.059c-0.117-.01-0.2-0.015-0.249-0.015A3.914,3.914,0,0,0,714,8.439a5.994,5.994,0,0,0-1.508,1.926V7.655h-2.5V23.344Zm9.99,0h2.637V14.32a4.473,4.473,0,0,1,1.069-2.952,3.763,3.763,0,0,1,3.062-1.282q0.234,0,.432.015a4,4,0,0,1,.432.059V7.377q-0.426-.044-0.6-0.059c-0.117-.01-0.2-0.015-0.249-0.015A3.91,3.91,0,0,0,724,8.439a5.986,5.986,0,0,0-1.509,1.926V7.655h-2.5V23.344Zm16.091-1.714a3.813,3.813,0,0,1-3.447-1.668,7.491,7.491,0,0,1-1.086-4.17,8.616,8.616,0,0,1,1.086-4.448A3.732,3.732,0,0,1,736.1,9.5a3.9,3.9,0,0,1,3.795,2.165,7.929,7.929,0,0,1,.7,3.57,9.962,9.962,0,0,1-.963,4.411,3.589,3.589,0,0,1-3.556,1.982h0Zm0.1-14.429a6.671,6.671,0,0,0-5.353,2.342,9.391,9.391,0,0,0-1.992,6.293,8.68,8.68,0,0,0,1.89,5.876,6.4,6.4,0,0,0,5.106,2.188q3.855,0,5.687-2.473a10.239,10.239,0,0,0,1.833-6.264,7.914,7.914,0,0,0-2.08-5.942,7.032,7.032,0,0,0-5.091-2.02h0Zm8.746,0.454,4.526,15.689h2.74l3.09-12.144,3.194,12.144h2.739l4.556-15.689h-2.637l-3.208,12.29-3.076-12.29h-2.959l-3.062,12.363L747.806,7.655H744.92Z" transform="translate(-0.563 -1.25)"/>
</svg>
