<svg id="internships_main_title_en.svg" xmlns="http://www.w3.org/2000/svg" width="197.437" height="50" viewBox="0 0 197.437 50">
  <defs>
    <style>
      .cls-1 {
        fill-rule: evenodd;
      }
    </style>
  </defs>
  <path id="Internships_のコピー" data-name="Internships のコピー" class="cls-1" d="M601.184,515.5h5.55V475h-5.55v40.5Zm11.649,0h5.35V492.2a6.28,6.28,0,0,1,3.75-1.8,1.952,1.952,0,0,1,1.8.8,4.725,4.725,0,0,1,.5,2.45V515.5h5.35V492.1a8.161,8.161,0,0,0-1-4.2,3.575,3.575,0,0,0-3.35-1.7q-3.6,0-7.05,3.25V486.6h-5.35v28.9Zm29.65,0.4a25.073,25.073,0,0,0,3.7-.3v-3.95a12.5,12.5,0,0,1-1.95.15,2.558,2.558,0,0,1-2.1-.7,4.079,4.079,0,0,1-.55-2.45v-18.5h4.65V486.6h-4.65v-8.45h-5.35v8.45h-3.05v3.55h3.05V509q0,6.9,6.25,6.9h0Zm15.7,0q4.249,0,6.2-2.4t1.95-6.95v-1.1h-5.2v1.75a8.18,8.18,0,0,1-.6,3.575,2.337,2.337,0,0,1-2.3,1.175,2.747,2.747,0,0,1-2.475-1.175,7.172,7.172,0,0,1-.775-3.825v-5.8h11.4V498.8a34.514,34.514,0,0,0-.575-7.075,7,7,0,0,0-2.35-4.075,8.2,8.2,0,0,0-5.275-1.45q-4.8,0-6.675,2.775t-1.875,8.775v6.6a23.188,23.188,0,0,0,.75,6.5,6.747,6.747,0,0,0,2.6,3.775,9.081,9.081,0,0,0,5.2,1.275h0Zm-3.2-17.65V496.7a23.754,23.754,0,0,1,.25-3.975,3.372,3.372,0,0,1,.925-1.975,2.885,2.885,0,0,1,1.975-.6,2.379,2.379,0,0,1,2.425,1.275,11.148,11.148,0,0,1,.575,4.225v2.6h-6.15Zm16.4,17.25h5.35V494.4a6.39,6.39,0,0,1,1.975-2.175,4.372,4.372,0,0,1,2.325-.625,8.459,8.459,0,0,1,2.95.6v-5.9a6.93,6.93,0,0,0-.85-0.05,6.1,6.1,0,0,0-3.325,1,10.469,10.469,0,0,0-3.075,3.45v-4.1h-5.35v28.9Zm15.9,0h5.35V492.2a6.28,6.28,0,0,1,3.75-1.8,1.952,1.952,0,0,1,1.8.8,4.725,4.725,0,0,1,.5,2.45V515.5h5.35V492.1a8.161,8.161,0,0,0-1-4.2,3.575,3.575,0,0,0-3.35-1.7q-3.6,0-7.05,3.25V486.6h-5.35v28.9Zm28.65,0.4a8.518,8.518,0,0,0,5.85-1.9,6.953,6.953,0,0,0,2.15-5.5,7.966,7.966,0,0,0-1.075-4.25,17.176,17.176,0,0,0-3.025-3.55l-5.1-4.7a3.839,3.839,0,0,1-1.45-2.9,3,3,0,0,1,.775-2.1,2.673,2.673,0,0,1,2.075-.85,2.646,2.646,0,0,1,2.4,1.275,9.73,9.73,0,0,1,1.15,3.725l3.6-1.35a9.279,9.279,0,0,0-2.175-5.475,6.546,6.546,0,0,0-5.175-2.125,7.649,7.649,0,0,0-5.45,1.875,6.814,6.814,0,0,0-2,5.225,7.918,7.918,0,0,0,.925,3.975,11.712,11.712,0,0,0,2.625,3.075l4.95,4.25a7.569,7.569,0,0,1,1.8,2.05,4.589,4.589,0,0,1,.55,2.25,3.116,3.116,0,0,1-.775,2.225,2.84,2.84,0,0,1-2.175.825,3.219,3.219,0,0,1-2.775-1.35,9.493,9.493,0,0,1-1.375-4.15l-4.45,1.35a9.13,9.13,0,0,0,2.475,5.9,7.627,7.627,0,0,0,5.675,2.2h0Zm12.15-.4h5.35V492.3a6.224,6.224,0,0,1,3.9-1.9,1.954,1.954,0,0,1,1.8.8,4.725,4.725,0,0,1,.5,2.45V515.5h5.35V492.1a8.333,8.333,0,0,0-.975-4.2,3.518,3.518,0,0,0-3.325-1.7q-3.651,0-7.25,3.4V475h-5.35v40.5Zm22.449-33.2h5.35v-5.6h-5.35v5.6Zm0,33.2h5.35V486.6h-5.35v28.9Zm11.1,9.5h5.35v-11.65a6.725,6.725,0,0,0,4.9,2.55,5.722,5.722,0,0,0,5.575-3.275,19.37,19.37,0,0,0,1.625-8.575v-7a20.3,20.3,0,0,0-1.325-7.475,5.135,5.135,0,0,0-5.275-3.375,7.1,7.1,0,0,0-5.5,2.7v-2.3h-5.35V525Zm9.2-13.3a6.308,6.308,0,0,1-3.85-1.3V491.9a5.688,5.688,0,0,1,3.65-1.5,2.407,2.407,0,0,1,2.5,1.725,15.691,15.691,0,0,1,.6,4.925v7a23.216,23.216,0,0,1-.525,5.775,2.283,2.283,0,0,1-2.375,1.875h0Zm19.8,4.2a8.522,8.522,0,0,0,5.85-1.9,6.953,6.953,0,0,0,2.15-5.5,7.975,7.975,0,0,0-1.075-4.25,17.176,17.176,0,0,0-3.025-3.55l-5.1-4.7a3.839,3.839,0,0,1-1.45-2.9,3,3,0,0,1,.775-2.1,2.923,2.923,0,0,1,4.475.425,9.747,9.747,0,0,1,1.15,3.725l3.6-1.35a9.279,9.279,0,0,0-2.175-5.475,6.546,6.546,0,0,0-5.175-2.125,7.649,7.649,0,0,0-5.45,1.875,6.811,6.811,0,0,0-2,5.225,7.918,7.918,0,0,0,.925,3.975,11.674,11.674,0,0,0,2.625,3.075l4.95,4.25a7.569,7.569,0,0,1,1.8,2.05,4.6,4.6,0,0,1,.55,2.25,3.12,3.12,0,0,1-.775,2.225,2.84,2.84,0,0,1-2.175.825,3.219,3.219,0,0,1-2.775-1.35,9.48,9.48,0,0,1-1.375-4.15l-4.45,1.35a9.13,9.13,0,0,0,2.475,5.9,7.626,7.626,0,0,0,5.675,2.2h0Z" transform="translate(-601.188 -475)"/>
</svg>
