<svg id="aboutus_main_title.svg" xmlns="http://www.w3.org/2000/svg" width="118.562" height="89.312" viewBox="0 0 118.562 89.312">
  <defs>
    <style>
      .cls-1 {
        fill-rule: evenodd;
      }
    </style>
  </defs>
  <path id="会社概要" class="cls-1" d="M670.635,307.49a36.682,36.682,0,0,1-13.521-9.917h-3.091a22.792,22.792,0,0,1-5.969,6,36.251,36.251,0,0,1-7.068,4.372l1.1,1.538a36.984,36.984,0,0,0,7.383-4.46,29.848,29.848,0,0,0,6.181-5.955,40.232,40.232,0,0,0,13.521,10.2Zm-6.914.879v-1.8H647.9v1.8h15.821Zm-9.178,14.964q7.215-.492,10.027-0.857,0.864,1.113,1.348,1.845l2.124-1.04q-1-1.392-3.04-3.728a46.593,46.593,0,0,0-3.273-3.464L659.9,317.1a44.859,44.859,0,0,1,3.384,3.779q-4.35.513-13.52,0.923a83.392,83.392,0,0,0,4.511-7.149h14.4v-1.816H642.788v1.816h8.789a56.994,56.994,0,0,1-4.365,7.251q-2.578.089-4.146,0.117l0.308,1.963Q647.329,323.824,654.543,323.333Zm24.236,0.871V312.266a33.246,33.246,0,0,0,3.487,2.871l0.952-2.022a27.3,27.3,0,0,1-4.439-3.164v-0.117a24.108,24.108,0,0,0,4.615-7.368l-0.7-.791h-3.823v-4.131H676.7v4.131h-4.321v1.772h8.232a18.093,18.093,0,0,1-3.6,5.479,30.961,30.961,0,0,1-5.757,5.053l0.981,1.465a27.919,27.919,0,0,0,4.278-3.3V324.2h2.27Zm21.358-.835v-1.831h-8.145V307.944H699.1v-1.831h-7.105V297.6h-2.329v8.51h-6.328v1.831h6.328v13.594h-8.5v1.831h18.97Zm5.259,0.894h2.153V310.83a18.053,18.053,0,0,0,1.743,2.285l1.1-1.553q-1.729-1.977-2.842-3.413v-3.017h2.226v-1.685h-2.226V297.6H705.4v5.844h-3.208l-0.03,1.685h3.106a35.754,35.754,0,0,1-1.8,6.064,28.794,28.794,0,0,1-2.593,5.45l1.348,0.937a25.743,25.743,0,0,0,3.179-6.46v13.14Zm11.1-3.941c0.147,0.6.234,0.982,0.264,1.157l1.919-.585q-1.539-6.021-1.978-7.281l-1.787.542q0.615,2.228,1.187,4.527-1.877.834-3.135,1.347v-8.965h4.951v-12.7h-6.973V320.82q-1.187.44-2.021,0.689l0.586,1.831a73.452,73.452,0,0,0,6.987-3.018h0Zm-0.63-16.45h-2.9v-3.94h2.9v3.94Zm0,1.48v4.028h-2.9v-4.028h2.9Zm8.848,16.391a2.743,2.743,0,0,0,.439,1.582q0.439,0.645,2.315.645a5.229,5.229,0,0,0,2.314-.41,2.007,2.007,0,0,0,.806-1.963v-3.516l-1.524-.19a27.876,27.876,0,0,1-.271,3.962,0.687,0.687,0,0,1-.739.476H727.3a0.718,0.718,0,0,1-.7-0.893V311.8h-0.484q0.234-.645.484-1.524h2.724v-1.626H727a29.18,29.18,0,0,0,.527-5.566V300.02h1.656v-1.656h-9.478v1.656h0.82v8.627h-1.259v1.626h5.346q-2.49,8.673-7.4,12.759l1.113,1.2a18.7,18.7,0,0,0,6.387-8.774v6.284Zm-2.168-13.1V300.02h2.871V303.3a30.362,30.362,0,0,1-.425,5.346h-2.446Zm11.4-5.214v6.914H741.5q-0.587,1.289-1.362,2.783h-8.189v1.816h7.207q-1.069,1.9-1.919,3.15a0.36,0.36,0,0,0-.058.2,0.771,0.771,0,0,0,.073.351,0.406,0.406,0,0,0,.183.2q0.109,0.051,1.663.344l5.3,0.982a10.547,10.547,0,0,1,1.114.293,35.3,35.3,0,0,1-4.871,1.223,47.991,47.991,0,0,1-7.449.842l0.44,1.743a60.8,60.8,0,0,0,7.822-1.025,26.3,26.3,0,0,0,6.694-1.992q4.8,1.479,8.365,2.886l1.347-1.744q-3.061-1.141-7.676-2.417a13.725,13.725,0,0,0,4.278-5.039h5.083V313.13h-17.1q1.113-2.022,1.465-2.783H757.5v-6.914h-7.4v-2.754h9.082v-1.714H732.158v1.714h8.877v2.754h-7.09Zm13.975-2.754v2.754h-4.673v-2.754h4.673Zm-11.777,8.086v-3.736h4.892v3.736h-4.892Zm11.777-3.736v3.736h-4.673v-3.736h4.673Zm7.353,3.736H750.1v-3.736h5.17v3.736Zm-15.366,8.774q0.587-.923,1.538-2.593H751.86a12.049,12.049,0,0,1-4.057,4.336q-5.846-1.318-7.9-1.743h0Z" transform="translate(-641 -235)"/>
  <path id="About" class="cls-1" d="M647.983,275.5h5.3l1.95-10.2h8.25l1.85,10.2h5.35l-8.65-40.5h-5.45Zm8-14.25,3.35-18.25,3.4,18.25h-6.75Zm28.7,14.65q7.149,0,7.15-11.85v-7a20.321,20.321,0,0,0-1.325-7.475,5.136,5.136,0,0,0-5.275-3.375,7.05,7.05,0,0,0-5.45,2.7V235h-5.35v40.5h5.35v-2.1a6.657,6.657,0,0,0,4.9,2.5h0Zm-1.1-4.2a5.965,5.965,0,0,1-3.8-1.3v-18.55a5.879,5.879,0,0,1,3.6-1.45,2.407,2.407,0,0,1,2.5,1.725,15.691,15.691,0,0,1,.6,4.925v7a23.216,23.216,0,0,1-.525,5.775,2.284,2.284,0,0,1-2.375,1.875h0Zm21.049,4.2q4.549,0,6.475-2.725t1.925-7.925v-8.4q0-5.2-1.925-7.925t-6.475-2.725q-4.6,0-6.525,2.725t-1.925,7.925v8.4q0,5.2,1.925,7.925t6.525,2.725h0Zm0-3.95a2.548,2.548,0,0,1-2.125-.85,4.081,4.081,0,0,1-.825-2.1,30.056,30.056,0,0,1-.15-3.4v-9.05a30.763,30.763,0,0,1,.15-3.425,4.113,4.113,0,0,1,.825-2.125,2.551,2.551,0,0,1,2.125-.85,2.477,2.477,0,0,1,2.1.85,4.245,4.245,0,0,1,.8,2.125,30.763,30.763,0,0,1,.15,3.425v9.05a30.056,30.056,0,0,1-.15,3.4,4.212,4.212,0,0,1-.8,2.1,2.475,2.475,0,0,1-2.1.85h0Zm17.45,3.95q3.6,0,7.05-3.25v2.85h5.35V246.6h-5.35v23.3a6.285,6.285,0,0,1-3.75,1.8,1.928,1.928,0,0,1-1.8-.825,4.86,4.86,0,0,1-.5-2.475V246.6h-5.35V270a8.146,8.146,0,0,0,1,4.2,3.573,3.573,0,0,0,3.35,1.7h0Zm25.549,0a25.073,25.073,0,0,0,3.7-.3v-3.95a12.5,12.5,0,0,1-1.95.15,2.558,2.558,0,0,1-2.1-.7,4.079,4.079,0,0,1-.55-2.45v-18.5h4.65V246.6h-4.65v-8.45h-5.35v8.45h-3.05v3.55h3.05V269q0,6.9,6.25,6.9h0Z" transform="translate(-641 -235)"/>
</svg>
