<svg xmlns="http://www.w3.org/2000/svg" width="37.931" height="31.83" viewBox="0 0 37.931 31.83"><path d="M37.931-56.187a15.462,15.462,0,0,1-3.857,4.145v.995a23.689,23.689,0,0,1-6.067,15.791Q21.939-28.17,11.894-28.17A21,21,0,0,1,0-31.817a16.474,16.474,0,0,0,1.848.166,14.83,14.83,0,0,0,9.643-3.481,7.672,7.672,0,0,1-4.5-1.616,7.591,7.591,0,0,1-2.732-3.937,9.386,9.386,0,0,0,1.447.166A8.778,8.778,0,0,0,7.8-40.852a7.817,7.817,0,0,1-4.46-2.777,7.784,7.784,0,0,1-1.808-5.1v-.083a7.156,7.156,0,0,0,3.536.995,7.591,7.591,0,0,1-3.456-6.714,8.169,8.169,0,0,1,1.045-3.979,20.862,20.862,0,0,0,15.992,8.372,7.465,7.465,0,0,1-.161-1.824,7.9,7.9,0,0,1,2.25-5.72A7.419,7.419,0,0,1,26.278-60,7.325,7.325,0,0,1,31.9-57.43a14.222,14.222,0,0,0,4.982-1.989,7.316,7.316,0,0,1-3.456,4.476A12.956,12.956,0,0,0,37.931-56.187Zm0,28.017" transform="translate(0 60)"/></svg>