<svg xmlns="http://www.w3.org/2000/svg" width="37.931" height="29.708" viewBox="0 0 37.931 29.708"><path d="M32-40.165V-29.05a1.424,1.424,0,0,1-.44,1.042,1.424,1.424,0,0,1-1.042.44H21.625V-36.46H15.7v8.892H6.805a1.424,1.424,0,0,1-1.042-.44,1.424,1.424,0,0,1-.44-1.042V-40.165a.317.317,0,0,1,.012-.069.317.317,0,0,0,.012-.069L18.661-51.28,31.975-40.3A.323.323,0,0,1,32-40.165Zm5.164-1.6-1.436,1.714a.788.788,0,0,1-.486.255h-.069a.712.712,0,0,1-.486-.162L18.661-53.317,2.637-39.957a.86.86,0,0,1-.556.162.788.788,0,0,1-.486-.255L.16-41.763A.751.751,0,0,1,0-42.307a.672.672,0,0,1,.255-.5L16.9-56.675a2.7,2.7,0,0,1,1.76-.6,2.7,2.7,0,0,1,1.76.6l5.65,4.724v-4.515A.721.721,0,0,1,26.279-57a.721.721,0,0,1,.533-.208h4.446A.721.721,0,0,1,31.79-57a.721.721,0,0,1,.208.533v9.447L37.069-42.8a.672.672,0,0,1,.255.5A.751.751,0,0,1,37.162-41.763Zm.764,14.194" transform="translate(0.005 57.277)"/></svg>