<svg xmlns="http://www.w3.org/2000/svg" width="36.34" height="36.34" viewBox="0 0 36.34 36.34"><path d="M30.283-60A5.858,5.858,0,0,1,34.6-58.256a5.858,5.858,0,0,1,1.744,4.312v24.226A5.858,5.858,0,0,1,34.6-25.4a5.858,5.858,0,0,1-4.312,1.744H6.057A5.858,5.858,0,0,1,1.744-25.4,5.858,5.858,0,0,1,0-29.717V-53.943a5.858,5.858,0,0,1,1.744-4.312A5.858,5.858,0,0,1,6.057-60Zm-7.8,13.857a5.858,5.858,0,0,0-4.312-1.744,5.858,5.858,0,0,0-4.312,1.744,5.858,5.858,0,0,0-1.744,4.312,5.858,5.858,0,0,0,1.744,4.312,5.858,5.858,0,0,0,4.312,1.744,5.858,5.858,0,0,0,4.312-1.744,5.858,5.858,0,0,0,1.744-4.312A5.858,5.858,0,0,0,22.482-46.143Zm3.343-5.766a2.361,2.361,0,0,0,.678,1.744,2.361,2.361,0,0,0,1.744.678,2.265,2.265,0,0,0,1.72-.751,2.391,2.391,0,0,0,.7-1.672,2.316,2.316,0,0,0-.751-1.672,2.316,2.316,0,0,0-1.672-.751,2.391,2.391,0,0,0-1.672.7A2.265,2.265,0,0,0,25.825-51.908Zm4.458,24.226a2,2,0,0,0,1.478-.557,2,2,0,0,0,.557-1.478V-41.83h-4.07a9.744,9.744,0,0,1-2.907,7.171,9.744,9.744,0,0,1-7.171,2.907A9.744,9.744,0,0,1,11-34.659,9.744,9.744,0,0,1,8.092-41.83H4.022v12.113a2,2,0,0,0,.557,1.478,2,2,0,0,0,1.478.557Zm6.057.388" transform="translate(0 60)"/></svg>