<svg xmlns="http://www.w3.org/2000/svg" width="36.377" height="36.377" viewBox="0 0 36.377 36.377"><path d="M5.613-38.115h5.471V-54.551H5.613Zm5.826-21.5a2.8,2.8,0,0,0-.853-2.037,3.026,3.026,0,0,0-2.2-.805,3.152,3.152,0,0,0-2.238.805,2.664,2.664,0,0,0-.864,2.037,2.71,2.71,0,0,0,.841,2.025,3.011,3.011,0,0,0,2.191.817h.024a3.116,3.116,0,0,0,2.25-.817A2.692,2.692,0,0,0,11.439-59.619Zm13.855,21.5h5.471v-9.426a7.865,7.865,0,0,0-1.729-5.518,5.928,5.928,0,0,0-4.571-1.871,5.506,5.506,0,0,0-4.95,2.771h.047v-2.392H14.092q.071,1.563,0,16.436h5.471V-47.3a3.917,3.917,0,0,1,.166-1.326,3.656,3.656,0,0,1,1.066-1.409,2.68,2.68,0,0,1,1.753-.58q2.747,0,2.747,3.718ZM36.377-61.751v22.736a6.57,6.57,0,0,1-2,4.82,6.569,6.569,0,0,1-4.82,2H6.821A6.569,6.569,0,0,1,2-34.2a6.57,6.57,0,0,1-2-4.82V-61.751a6.57,6.57,0,0,1,2-4.82,6.569,6.569,0,0,1,4.82-2H29.557a6.569,6.569,0,0,1,4.82,2A6.57,6.57,0,0,1,36.377-61.751Zm0,26.525" transform="translate(0 68.571)"/></svg>