<svg xmlns="http://www.w3.org/2000/svg" width="36.377" height="34.471" viewBox="0 0 36.377 34.471"><path d="M30.62-72.031H3.851a3.684,3.684,0,0,0-2.729,1.14A3.733,3.733,0,0,0,0-68.18v26.806a3.671,3.671,0,0,0,1.122,2.692A3.715,3.715,0,0,0,3.851-37.56H17.235V-50.945H13.422v-4.748h3.813v-3.926A7.33,7.33,0,0,1,19.011-64.7q1.776-1.982,5.44-1.982h3.44v5.01H25.61a2.264,2.264,0,0,0-2.019.879,3.236,3.236,0,0,0-.6,1.851v3.253h4.9l-1.084,4.748H22.993V-37.56H30.62a3.715,3.715,0,0,0,2.729-1.122,3.671,3.671,0,0,0,1.122-2.692V-68.18a3.733,3.733,0,0,0-1.122-2.711A3.684,3.684,0,0,0,30.62-72.031ZM36.377-37.56" transform="translate(0 72.031)"/></svg>