<svg xmlns="http://www.w3.org/2000/svg" viewBox="0 0 486 33.6"><path d="M24.9 13.8c0 4-1 7.2-3 9.6-2.2 2.6-5.3 3.9-9.4 3.9-4.1 0-7.2-1.3-9.4-3.9-2-2.4-3-5.6-3-9.6s1-7.2 3-9.6C5.3 1.6 8.4.3 12.5.3c4.1 0 7.2 1.3 9.4 3.9 2 2.3 3 5.5 3 9.6zm-5.9 0c0-6.3-2.2-9.5-6.5-9.5S6 7.5 6 13.8s2.2 9.5 6.5 9.5c4.3-.1 6.5-3.2 6.5-9.5zm33.5-9.3l-7.2 22.2h-4.6L33.8 4.5l-.1.1v22.1h-5.2V.8h9.1L43 19.6h.1L49 .8h8.8v25.9h-5.2l-.1-22.2zm21.3 11.8h-5.9v10.4h-5.6V.8h11c2.6 0 4.6.5 6.2 1.4 1.9 1.1 2.8 2.9 2.8 5.3 0 1.6-.5 3-1.5 4.1-1 1.1-2.3 1.8-3.9 2.2v.1c1.9.2 3.1.9 3.8 2.1.3.6.6 2.1 1 4.5.3 1.9.4 2.9.4 3.2.3 1.4.6 2.4 1.1 3h-6.1c-.3-1.6-.7-3.9-1-6.9-.3-2.4-1-3.5-2.3-3.5zM72.5 5.1h-4.7V12h4.7c2.6 0 3.9-1.2 3.9-3.5s-1.3-3.4-3.9-3.4zm37.9 8.7c0 4-1 7.2-3 9.6-2.2 2.6-5.3 3.9-9.4 3.9-4.1 0-7.2-1.3-9.4-3.9-2-2.4-3-5.6-3-9.6s1-7.2 3-9.6C90.8 1.6 93.9.3 98 .3c4.1 0 7.2 1.3 9.4 3.9 2 2.3 3 5.5 3 9.6zm-5.9 0c0-6.3-2.2-9.5-6.5-9.5s-6.5 3.2-6.5 9.5 2.2 9.5 6.5 9.5c4.4-.1 6.5-3.2 6.5-9.5zm33.2-13v25.9h-7.9L119.6 5.2l-.1.1v21.4h-5.2V.8h8.2l9.9 20.3.1-.1V.8h5.2zM153 12c-.8-1.1-1.2-2.4-1.2-3.8 0-2.1.7-3.8 2.2-5.2 2.1-2 4.9-2.9 8.4-2.9 1.2 0 2.4.1 3.6.4 1.8.4 3.3 1.3 4.5 2.7 1.2 1.4 1.7 3 1.7 4.7h-5.6c0-.6 0-1.1-.3-1.7-.3-.9-.9-1.5-1.8-1.8-.9-.3-1.7-.5-2.5-.5-1.7 0-2.9.5-3.8 1.6-.4.5-.6 1.1-.6 1.7 0 1.3.8 2.2 2.3 2.7 2.4.8 4.6 1.5 6.6 2.1 2.6.7 4.4 1.8 5.4 3.2.6.9.9 2 .9 3.2 0 2.5-.8 4.5-2.5 5.8-2.4 2-5.4 3-8.9 3-1.8 0-3.6-.3-5.3-1-2-.7-3.3-1.9-4.1-3.6-.5-1.1-.8-2.7-.8-4.6h5.7c0 1.1.2 2 .4 2.5.3.7 1 1.3 1.9 1.8.7.4 1.6.6 2.7.6 2.1 0 3.6-.6 4.5-1.9.4-.5.5-1 .5-1.6 0-1.1-.5-1.9-1.6-2.5-.1-.1-2.8-.9-7.9-2.4-2.2-.6-3.6-1.4-4.4-2.5zM176.5.8h5.6v25.9h-5.6V.8zm33.5 0v25.9h-7.9L191.9 5.2l-.1.1v21.4h-5.2V.8h8.2l9.9 20.3.1-.1V.8h5.2zm4.4 0h5.6v25.9h-5.6V.8zm32.5 17.1c-.2 3-1.4 5.3-3.5 6.9-2 1.6-4.7 2.3-8 2.3-4.2 0-7.4-1.6-9.6-4.8-1.6-2.4-2.5-5.2-2.5-8.2 0-4.3 1.1-7.7 3.3-10.3 2.2-2.6 5.1-3.9 8.8-3.9 3.7 0 6.5.9 8.5 2.8 1.7 1.6 2.6 3.7 2.6 6.1h-5.8c-.1-1.4-.6-2.6-1.5-3.5s-2-1.3-3.4-1.3c-1.6 0-2.9.6-4.1 1.7-1.7 1.6-2.5 4.3-2.5 7.8 0 3.3.7 5.8 2.2 7.4 1.2 1.3 2.6 2 4.4 2 3 0 4.7-1.7 5.2-5h5.9zm27.6 8.8l-5.8-9.7-6.2 9.7h-5.9l9.1-13.4L257.2.8h6.8l5.2 8.8 5.6-8.8h5.9l-8.5 12.4 9 13.4h-6.7zm28.1.6c-9.5 0-12.1-8.4-12.1-13 0-8.5 4.6-14.2 12.1-14.2 7.9 0 11.1 4.5 11.1 8.9H308c-.2-2.8-2.1-4.9-5-4.9-2.1 0-6.6 1.4-6.6 9.5 0 7.2 3.6 9.3 6.6 9.3 2.4 0 4.6-1.2 5.2-5h5.9c-.6 6.3-5.1 9.4-11.5 9.4zm34.4-14c0-2.2-.2-3.2-.2-4.2h5.2l.1 2.3c0 .3.1.4.2.2 1.2-1.7 2.8-2.9 5.9-2.9v4.4c-4.4-.2-6 1.6-6 5.6l.1 8.3H337V13.3zm55.5 0c0-2.2-.2-3.2-.2-4.2h5.2l.1 2.3c0 .3.1.4.2.2 1.2-1.7 2.8-2.9 5.9-2.9v4.4c-4.4-.2-6 1.6-6 5.6l.1 8.3h-5.2V13.3zm31-4.4h3.6V5.3l5.4-1.9v5.5h4v3.6h-4v8.3c0 2.4.4 3 2.2 3 .6 0 1.1-.1 1.7-.1v3.1c-.6.3-3.5.5-4.2.5-4.2 0-5.1-2.2-5.1-6.1v-8.8h-3.6V8.9zM439 1.2h5.7v4.6H439zm.1 7.9h5.4V27h-5.4zm40.2-.3c3 0 6.7 1.1 6.7 7V27h-5.1v-9.2c0-3.1-.6-5.5-3.7-5.5-3 0-3.7 2.9-3.7 4.9V27h-5.1V9.2h4.9l.2 2.6c.9-1.9 3.8-3 5.8-3zM325 27.3c-5.8.1-9.6-3.9-9.7-9.4-.1-5.2 3.4-9.6 9.5-9.6 6.4-.1 9.5 3.8 9.6 9.4.1 5.4-3.5 9.5-9.4 9.6zm4.1-9.5c0-3.6-1.5-6.2-4.3-6.2-2.6 0-4 2.9-4 6.3 0 3.7 1.5 6.1 4.1 6.1 2.6-.1 4.3-2.7 4.2-6.2zm26.4-8.9l.1 2.1h.1c1-1.5 2.9-2.6 4.8-2.6 5.6 0 8.4 4.7 8.4 9.5 0 4.6-2.5 9.5-7.7 9.5-2.3 0-4.3-1-5.5-3.1h-.1v9.4h-5.4V12.4c0-1.2-.1-2.4-.2-3.6h5.5zm.1 8.9c0 2.5 1 5.9 3.9 5.9 3.4 0 3.9-3.2 3.9-5.9s-.4-5.9-3.9-5.9c-2.9 0-3.9 3.5-3.9 5.9zm25 9.5c-5.8.1-9.6-3.9-9.7-9.4-.1-5.2 3.4-9.6 9.5-9.6 6.4-.1 9.5 3.8 9.6 9.4.1 5.4-3.5 9.5-9.4 9.6zm4.1-9.5c0-3.6-1.5-6.2-4.3-6.2-2.6 0-4 2.9-4 6.3 0 3.7 1.5 6.1 4.1 6.1 2.6-.1 4.2-2.7 4.2-6.2zm37.2-3.1l-.1 7.4c0 1.6.2 2.8.5 4.5h-4.7l-.4-1.4c-.1-.3-.1-.3-.3 0-.4.4-2.1 1.6-3.6 2-3.4.7-5.6-.2-7-1.6-2.3-2.4-1.4-7.3 1.9-8.9 2.4-1.1 4.9-1.3 8.7-1.1.1-1.2 0-2.8-.8-3.5-.8-.8-2.4-.9-3.6-.5-1.1.5-1.6 1.3-1.7 2.4h-4.7c0-3.2 1.8-4.2 3-4.7 2.3-1 6.7-.9 8.8-.3 2.3.6 4 2.2 4 5.7zm-5.8 7.6c.9-1.4.6-3 .6-4.1-2.6 0-5.6.1-6.5 1.9-.9 1.8.4 3.4 1.5 3.7 1.9.4 3.6-.2 4.4-1.5zm40.5 5c-5.8.1-9.6-3.9-9.7-9.4-.1-5.2 3.4-9.6 9.5-9.6 6.4-.1 9.5 3.8 9.6 9.4.1 5.4-3.5 9.5-9.4 9.6zm4.1-9.5c0-3.6-1.5-6.2-4.3-6.2-2.6 0-4 2.9-4 6.3 0 3.7 1.5 6.1 4.1 6.1 2.6-.1 4.2-2.7 4.2-6.2z"/></svg>