<svg id="レイヤー_1" xmlns="http://www.w3.org/2000/svg" xmlns:xlink="http://www.w3.org/1999/xlink" viewBox="0 0 118.9 23.2"><style>.st0{clip-path:url(#SVGID_2_);fill:#0068b6}</style><defs><path id="SVGID_1_" d="M0 0h118.9v23.2H0z"/></defs><clipPath id="SVGID_2_"><use xlink:href="#SVGID_1_" overflow="visible"/></clipPath><path class="st0" d="M11.6 18.4c-3.7 0-6.8-2.9-6.8-6.8 0-3.7 2.9-6.8 6.8-6.8 3.7 0 6.8 2.9 6.8 6.8 0 3.7-3 6.8-6.8 6.8m0 4.8c6.4 0 11.6-5.2 11.6-11.6C23.2 5.1 18 0 11.6 0S0 5.1 0 11.6C.1 18 5.3 23.2 11.6 23.2m75.1 0c-6.4 0-11.6-5.2-11.6-11.6C75.1 5.1 80.3 0 86.7 0c6.5 0 11.6 5.2 11.6 11.6 0 6.4-5.3 11.6-11.6 11.6m0-4.8c3.7 0 6.8-2.9 6.8-6.8 0-3.7-2.9-6.8-6.8-6.8-3.7 0-6.8 2.9-6.8 6.8.1 3.7 3 6.8 6.8 6.8M25.7.7v21.8h4.8V4.7h5.3v17.9h4.8V4.7h1.9c1.9 0 3.3 1.6 3.3 3.3v14.4h4.8V8.2c0-4.3-3.4-7.6-7.6-7.6H30.7c-1.7-.1-3.4 0-5 .1m74.9 0v21.8h4.8V4.7h5.4c1.9 0 3.3 1.6 3.3 3.3v14.4h4.8V8.2c0-4.3-3.4-7.6-7.6-7.6h-6c-1.5-.1-3.2 0-4.7.1m-46 0v21.8h4.8V4.7h5.9c1.9 0 3.3 1.6 3.3 3.3s-1.6 3.3-3.3 3.3h-4.2l7.4 11.2h6l-5.4-7.9c2.5-1 4.4-3.6 4.4-6.6 0-4.2-3.3-7.5-7.5-7.5h-6.5c-1.6 0-3.2.1-4.9.2"/></svg>