<?xml version="1.0" encoding="utf-8"?>
<!-- Generator: Adobe Illustrator 21.0.2, SVG Export Plug-In . SVG Version: 6.00 Build 0)  -->
<svg version="1.1" xmlns="http://www.w3.org/2000/svg" xmlns:xlink="http://www.w3.org/1999/xlink" x="0px" y="0px"
	 viewBox="0 0 586.9 36.1" style="enable-background:new 0 0 586.9 36.1;" xml:space="preserve">
<g id="Contents">
	<g>
		<path d="M20.3,15.1c0,4.8-1.1,10.1-7,10.1c-5.9,0-7-5.4-7-10.1c0-4.8,1.1-10.1,7-10.1C19.2,4.9,20.3,10.3,20.3,15.1z M26.7,15.1
			c0-8.2-4.2-14.4-13.3-14.4C4.2,0.6,0,6.9,0,15.1c0,8.2,4.2,14.5,13.3,14.5C22.5,29.5,26.7,23.3,26.7,15.1z"/>
		<path d="M56.5,5.1L48.8,29h-5L36.5,5.1l-0.1,0.1V29h-5.6V1.2h9.8l5.8,20.2h0.1l6.3-20.2h9.4V29h-5.6L56.5,5.1L56.5,5.1z"/>
		<path d="M78,5.8c2.6,0,4.2,1.1,4.2,3.5c0,2.5-1.5,3.8-4.2,3.8h-5V5.8H78z M79.3,17.8c2,0,2.3,2.2,2.5,3.7c0.3,2.5,0.5,5,1,7.5h6.6
			c-1.1-1.5-1.4-4.8-1.6-6.6c-0.5-3.8-0.5-6.7-5.1-7.2v-0.1c3.4-0.7,5.8-3.1,5.8-6.7c0-5.7-4.9-7.2-9.6-7.2H67V29h6V17.8H79.3z"/>
		<path d="M111.3,15.1c0,4.8-1.1,10.1-7,10.1c-5.9,0-7-5.4-7-10.1c0-4.8,1.1-10.1,7-10.1C110.2,4.9,111.3,10.3,111.3,15.1z
			 M117.6,15.1c0-8.2-4.2-14.4-13.3-14.4c-9.2,0-13.3,6.3-13.3,14.4c0,8.2,4.2,14.5,13.3,14.5C113.5,29.5,117.6,23.3,117.6,15.1z"/>
		<path d="M145.9,29h-8.5l-11-23.1L126.4,6v23h-5.6V1.2h8.8L140.2,23l0.1-0.1V1.2h5.6V29z"/>
		<path d="M176.9,28.2h-6.4L160.4,0.8h6.4l7.1,21.6h0.1l7.2-21.6h5.8L176.9,28.2z"/>
		<path d="M208.4,28.2h-18.8V0.8H208v4.6h-12.5v6.4h11.7v4.6h-11.7v7.3h12.9V28.2z"/>
		<path d="M237.9,0.8v27.4h-8.4L218.7,5.4l-0.1,0.1v22.7h-5.5V0.8h8.7l10.5,21.6l0.1-0.1V0.8H237.9z"/>
		<path d="M248.8,5.3h-8.2V0.8h22.2v4.6h-8.2v22.9h-5.9V5.3z"/>
		<path d="M284.2,15.7V0.8h5.9v17.2c0,3.5-1.2,6.2-3.5,8.1c-2.1,1.8-4.9,2.7-8.4,2.7s-6.3-0.9-8.4-2.7c-2.3-1.9-3.5-4.6-3.5-8.1V0.8
			h5.9v14.9c0,2.9,0.3,5,0.8,6.2c0.9,1.8,2.6,2.7,5.2,2.7c2.6,0,4.3-0.9,5.2-2.7C283.9,20.7,284.2,18.6,284.2,15.7z"/>
		<path d="M307.3,17.1h-6.2v11.1h-5.9V0.8h11.7c2.7,0,4.9,0.5,6.5,1.5c2,1.2,3,3.1,3,5.7c0,1.7-0.5,3.2-1.5,4.4
			c-1,1.2-2.4,1.9-4.2,2.3v0.1c2,0.2,3.3,1,4,2.3c0.3,0.7,0.7,2.3,1,4.8c0.3,2,0.4,3.1,0.5,3.3c0.3,1.4,0.7,2.5,1.1,3.2h-6.5
			c-0.4-1.7-0.7-4.2-1-7.4C309.6,18.4,308.7,17.1,307.3,17.1z M306.1,5.3h-4.9v7.3h4.9c2.7,0,4.1-1.3,4.1-3.8
			C310.2,6.5,308.8,5.3,306.1,5.3z"/>
		<g>
			<path d="M338.4,28.2h-18.8V0.8H338v4.5h-12.5v6.4h11.7v4.5h-11.7v7.3h12.9V28.2z"/>
			<path d="M342.9,12.6c-0.9-1.2-1.3-2.5-1.3-4c0-2.2,0.8-4,2.4-5.5c2.2-2.1,5.2-3.1,8.9-3.1c1.3,0,2.6,0.1,3.8,0.4
				c1.9,0.4,3.5,1.4,4.8,2.8c1.2,1.5,1.8,3.1,1.8,5h-6c0-0.6,0-1.2-0.3-1.8c-0.4-1-1-1.6-1.9-1.9c-0.9-0.3-1.8-0.5-2.7-0.5
				c-1.8,0-3.1,0.6-4.1,1.7c-0.5,0.6-0.7,1.2-0.7,1.8c0,1.4,0.8,2.3,2.4,2.9c2.6,0.9,4.9,1.6,7,2.2c2.8,0.8,4.6,1.9,5.7,3.4
				c0.6,0.9,0.9,2.1,0.9,3.4c0,2.7-0.9,4.7-2.7,6.2c-2.6,2.1-5.7,3.1-9.4,3.1c-1.9,0-3.8-0.3-5.6-1c-2.1-0.8-3.5-2-4.3-3.8
				c-0.6-1.2-0.8-2.8-0.9-4.9h6c0,1.2,0.2,2.1,0.5,2.7c0.4,0.8,1,1.4,2,1.9c0.8,0.4,1.7,0.6,2.8,0.6c2.2,0,3.8-0.7,4.8-2
				c0.4-0.5,0.6-1.1,0.6-1.7c0-1.1-0.6-2-1.7-2.7c-0.1-0.1-2.9-0.9-8.4-2.6C345.3,14.7,343.8,13.8,342.9,12.6z"/>
			<g>
				<path d="M392.3,29.4c-10.1,0-12.8-8.9-12.8-13.7c0-9,4.9-15,12.8-15c8.4,0,11.8,4.8,11.8,9.4H398c-0.2-3-2.3-5.1-5.3-5.1
					c-2.3,0-7,1.5-7,10.1c0,7.6,3.9,9.9,7,9.9c2.5,0,4.9-1.3,5.5-5.3h6.3C403.9,26,399.1,29.4,392.3,29.4z"/>
				<path d="M428.8,14.5c0-2.3-0.2-3.4-0.2-4.4h5.5l0.1,2.4c0,0.3,0.1,0.4,0.2,0.2c1.3-1.8,3-3,6.2-3.1v4.6c-4.7-0.2-6.4,1.7-6.4,6
					l0.1,8.8h-5.5V14.5z"/>
				<path d="M487.7,14.5c0-2.3-0.2-3.4-0.2-4.4h5.5l0.1,2.4c0,0.3,0.1,0.4,0.2,0.2c1.3-1.8,3-3,6.2-3.1v4.6c-4.7-0.2-6.4,1.7-6.4,6
					l0.1,8.8h-5.5V14.5z"/>
				<path d="M520.6,9.8h3.8V6l5.7-2v5.8h4.3v3.8h-4.3v8.8c0,2.5,0.4,3.2,2.3,3.2c0.6,0,1.2-0.1,1.8-0.1v3.3
					c-0.6,0.3-3.7,0.6-4.5,0.6c-4.4,0-5.4-2.3-5.4-6.4v-9.4h-3.8V9.8z"/>
				<rect x="537" y="1.7" width="6.1" height="4.9"/>
				<rect x="537.2" y="10" width="5.7" height="19"/>
				<path d="M579.8,9.7c3.2,0,7.1,1.2,7.1,7.5V29h-5.5v-9.8c0-3.3-0.6-5.8-3.9-5.8c-3.1,0-3.9,3.1-3.9,5.2V29h-5.5
					c0-4.6,0-5.8,0-9.9c0-4.1,0-5.4,0-9h5.2l0.2,2.7C574.6,10.9,577.7,9.7,579.8,9.7z"/>
				<path d="M416.1,29.4c-6.2,0.1-10.2-4.2-10.3-10c-0.1-5.5,3.6-10.1,10.1-10.2c6.8-0.1,10.1,4.1,10.2,10
					C426.2,24.9,422.3,29.3,416.1,29.4z M420.5,19.2c0-3.8-1.6-6.6-4.5-6.6c-2.8,0-4.3,3.1-4.2,6.7c0,3.9,1.6,6.5,4.4,6.4
					C418.8,25.7,420.5,22.9,420.5,19.2z"/>
				<path d="M448.4,9.8l0.1,2.2h0.1c1.1-1.6,3.1-2.8,5.1-2.8c5.9,0,8.9,5,8.9,10.1c0,4.9-2.6,10.1-8.2,10.1c-2.5,0-4.6-1-5.8-3.3
					h-0.1v10h-5.7V13.6c0-1.2-0.1-2.5-0.2-3.8H448.4z M448.5,19.3c0,2.6,1,6.3,4.1,6.3c3.6,0,4.1-3.4,4.1-6.3c0-2.9-0.5-6.3-4.1-6.3
					C449.6,13,448.5,16.7,448.5,19.3z"/>
				<path d="M475,29.4c-6.2,0.1-10.2-4.2-10.3-10c-0.1-5.5,3.6-10.1,10.1-10.2c6.8-0.1,10.1,4.1,10.2,10
					C485.1,24.9,481.3,29.3,475,29.4z M479.4,19.2c0-3.8-1.6-6.6-4.5-6.6c-2.8,0-4.3,3.1-4.2,6.7c0,3.9,1.6,6.5,4.4,6.4
					C477.7,25.7,479.5,22.9,479.4,19.2z"/>
				<path d="M518.9,16l-0.2,7.8c0,1.7,0.2,3,0.5,4.8h-5l-0.4-1.5c-0.1-0.3-0.2-0.3-0.3,0c-0.4,0.5-2.2,1.7-3.8,2.1
					c-3.6,0.8-6-0.2-7.4-1.7c-2.5-2.5-1.4-7.8,2-9.5c2.5-1.2,5.2-1.4,9.2-1.2c0.1-1.3,0-3-0.9-3.7c-0.9-0.8-2.6-1-3.8-0.5
					c-1.2,0.5-1.7,1.4-1.9,2.6l-5,0c0-3.4,1.9-4.5,3.2-5c2.5-1.1,7.1-1,9.3-0.3C517.1,10.5,518.9,12.2,518.9,16z M512.7,24
					c0.9-1.4,0.6-3.2,0.7-4.3c-2.8,0-5.9,0.1-6.9,2c-1,1.9,0.5,3.6,1.6,3.9C510.1,26.1,511.9,25.4,512.7,24z"/>
				<path d="M555.6,29.4c-6.2,0.1-10.2-4.2-10.3-10c-0.1-5.5,3.6-10.1,10.1-10.2c6.8-0.1,10.1,4.1,10.2,10
					C565.7,24.9,561.9,29.3,555.6,29.4z M560,19.2c0-3.8-1.6-6.6-4.5-6.6c-2.8,0-4.3,3.1-4.2,6.7c0,3.9,1.6,6.5,4.4,6.4
					C558.3,25.7,560.1,22.9,560,19.2z"/>
			</g>
		</g>
	</g>
</g>
<g id="Title">
</g>
</svg>
