<svg id="レイヤー_1" xmlns="http://www.w3.org/2000/svg" xmlns:xlink="http://www.w3.org/1999/xlink" viewBox="0 0 57 57"><style>.st0{clip-path:url(#SVGID_2_);fill:#fff}</style><defs><path id="SVGID_1_" d="M0 0h57v57H0z"/></defs><clipPath id="SVGID_2_"><use xlink:href="#SVGID_1_" overflow="visible"/></clipPath><path class="st0" d="M53.8 0H3.1C1.4 0 0 1.4 0 3.2v50.7C0 55.6 1.4 57 3.1 57h27.3V35H23v-8.7h7.4V20c0-7.4 4.5-11.4 11.1-11.4 2.2 0 4.5.1 6.7.4v7.7h-4.5c-3.6 0-4.3 1.7-4.3 4.2v5.5H48L46.8 35h-7.4v22h14.5c1.7 0 3.1-1.4 3.1-3.2V3.2C57 1.4 55.6 0 53.8 0"/></svg>