<?xml version="1.0" encoding="utf-8"?>
<!-- Generator: Adobe Illustrator 21.0.2, SVG Export Plug-In . SVG Version: 6.00 Build 0)  -->
<svg version="1.1" id="レイヤー_1" xmlns="http://www.w3.org/2000/svg" xmlns:xlink="http://www.w3.org/1999/xlink" x="0px"
	 y="0px" viewBox="0 0 486 33.6" style="enable-background:new 0 0 486 33.6;" xml:space="preserve">
<path d="M24.9,13.8c0,4-1,7.2-3,9.6c-2.2,2.6-5.3,3.9-9.4,3.9c-4.1,0-7.2-1.3-9.4-3.9c-2-2.4-3-5.6-3-9.6c0-4,1-7.2,3-9.6
	c2.2-2.6,5.3-3.9,9.4-3.9c4.1,0,7.2,1.3,9.4,3.9C23.9,6.5,24.9,9.7,24.9,13.8z M19,13.8c0-6.3-2.2-9.5-6.5-9.5
	c-4.3,0-6.5,3.2-6.5,9.5c0,6.3,2.2,9.5,6.5,9.5C16.8,23.2,19,20.1,19,13.8z"/>
<path d="M52.5,4.5l-7.2,22.2h-4.6L33.8,4.5l-0.1,0.1v22.1h-5.2V0.8h9.1l5.4,18.8h0.1L49,0.8h8.8v25.9h-5.2L52.5,4.5z"/>
<path d="M73.8,16.3h-5.9v10.4h-5.6V0.8h11c2.6,0,4.6,0.5,6.2,1.4c1.9,1.1,2.8,2.9,2.8,5.3c0,1.6-0.5,3-1.5,4.1
	c-1,1.1-2.3,1.8-3.9,2.2v0.1c1.9,0.2,3.1,0.9,3.8,2.1c0.3,0.6,0.6,2.1,1,4.5c0.3,1.9,0.4,2.9,0.4,3.2c0.3,1.4,0.6,2.4,1.1,3h-6.1
	c-0.3-1.6-0.7-3.9-1-6.9C75.8,17.4,75.1,16.3,73.8,16.3z M72.5,5.1h-4.7V12h4.7c2.6,0,3.9-1.2,3.9-3.5C76.4,6.2,75.1,5.1,72.5,5.1z"
	/>
<path d="M110.4,13.8c0,4-1,7.2-3,9.6c-2.2,2.6-5.3,3.9-9.4,3.9c-4.1,0-7.2-1.3-9.4-3.9c-2-2.4-3-5.6-3-9.6c0-4,1-7.2,3-9.6
	c2.2-2.6,5.3-3.9,9.4-3.9c4.1,0,7.2,1.3,9.4,3.9C109.4,6.5,110.4,9.7,110.4,13.8z M104.5,13.8c0-6.3-2.2-9.5-6.5-9.5
	c-4.3,0-6.5,3.2-6.5,9.5c0,6.3,2.2,9.5,6.5,9.5C102.4,23.2,104.5,20.1,104.5,13.8z"/>
<path d="M137.7,0.8v25.9h-7.9L119.6,5.2l-0.1,0.1v21.4h-5.2V0.8h8.2l9.9,20.3l0.1-0.1V0.8H137.7z"/>
<path d="M153,12c-0.8-1.1-1.2-2.4-1.2-3.8c0-2.1,0.7-3.8,2.2-5.2c2.1-2,4.9-2.9,8.4-2.9c1.2,0,2.4,0.1,3.6,0.4
	c1.8,0.4,3.3,1.3,4.5,2.7c1.2,1.4,1.7,3,1.7,4.7h-5.6c0-0.6,0-1.1-0.3-1.7c-0.3-0.9-0.9-1.5-1.8-1.8c-0.9-0.3-1.7-0.5-2.5-0.5
	c-1.7,0-2.9,0.5-3.8,1.6c-0.4,0.5-0.6,1.1-0.6,1.7c0,1.3,0.8,2.2,2.3,2.7c2.4,0.8,4.6,1.5,6.6,2.1c2.6,0.7,4.4,1.8,5.4,3.2
	c0.6,0.9,0.9,2,0.9,3.2c0,2.5-0.8,4.5-2.5,5.8c-2.4,2-5.4,3-8.9,3c-1.8,0-3.6-0.3-5.3-1c-2-0.7-3.3-1.9-4.1-3.6
	c-0.5-1.1-0.8-2.7-0.8-4.6h5.7c0,1.1,0.2,2,0.4,2.5c0.3,0.7,1,1.3,1.9,1.8c0.7,0.4,1.6,0.6,2.7,0.6c2.1,0,3.6-0.6,4.5-1.9
	c0.4-0.5,0.5-1,0.5-1.6c0-1.1-0.5-1.9-1.6-2.5c-0.1-0.1-2.8-0.9-7.9-2.4C155.2,13.9,153.8,13.1,153,12z"/>
<path d="M176.5,0.8h5.6v25.9h-5.6V0.8z"/>
<path d="M210,0.8v25.9h-7.9L191.9,5.2l-0.1,0.1v21.4h-5.2V0.8h8.2l9.9,20.3l0.1-0.1V0.8H210z"/>
<path d="M214.4,0.8h5.6v25.9h-5.6V0.8z"/>
<path d="M246.9,17.9c-0.2,3-1.4,5.3-3.5,6.9c-2,1.6-4.7,2.3-8,2.3c-4.2,0-7.4-1.6-9.6-4.8c-1.6-2.4-2.5-5.2-2.5-8.2
	c0-4.3,1.1-7.7,3.3-10.3c2.2-2.6,5.1-3.9,8.8-3.9c3.7,0,6.5,0.9,8.5,2.8c1.7,1.6,2.6,3.7,2.6,6.1h-5.8c-0.1-1.4-0.6-2.6-1.5-3.5
	S237.2,4,235.8,4c-1.6,0-2.9,0.6-4.1,1.7c-1.7,1.6-2.5,4.3-2.5,7.8c0,3.3,0.7,5.8,2.2,7.4c1.2,1.3,2.6,2,4.4,2c3,0,4.7-1.7,5.2-5
	H246.9z"/>
<path d="M274.5,26.7l-5.8-9.7l-6.2,9.7h-5.9l9.1-13.4l-8.5-12.5h6.8l5.2,8.8l5.6-8.8h5.9l-8.5,12.4l9,13.4H274.5z"/>
<g>
	<g>
		<path d="M302.6,27.3c-9.5,0-12.1-8.4-12.1-13c0-8.5,4.6-14.2,12.1-14.2c7.9,0,11.1,4.5,11.1,8.9h-5.7c-0.2-2.8-2.1-4.9-5-4.9
			c-2.1,0-6.6,1.4-6.6,9.5c0,7.2,3.6,9.3,6.6,9.3c2.4,0,4.6-1.2,5.2-5h5.9C313.5,24.2,309,27.3,302.6,27.3z"/>
		<path d="M337,13.3c0-2.2-0.2-3.2-0.2-4.2h5.2l0.1,2.3c0,0.3,0.1,0.4,0.2,0.2c1.2-1.7,2.8-2.9,5.9-2.9v4.4c-4.4-0.2-6,1.6-6,5.6
			l0.1,8.3H337V13.3z"/>
		<path d="M392.5,13.3c0-2.2-0.2-3.2-0.2-4.2h5.2l0.1,2.3c0,0.3,0.1,0.4,0.2,0.2c1.2-1.7,2.8-2.9,5.9-2.9v4.4c-4.4-0.2-6,1.6-6,5.6
			l0.1,8.3h-5.2V13.3z"/>
		<path d="M423.5,8.9h3.6V5.3l5.4-1.9v5.5h4v3.6h-4v8.3c0,2.4,0.4,3,2.2,3c0.6,0,1.1-0.1,1.7-0.1v3.1c-0.6,0.3-3.5,0.5-4.2,0.5
			c-4.2,0-5.1-2.2-5.1-6.1v-8.8h-3.6V8.9z"/>
		<rect x="439" y="1.2" width="5.7" height="4.6"/>
		<rect x="439.1" y="9.1" width="5.4" height="17.9"/>
		<path d="M479.3,8.8c3,0,6.7,1.1,6.7,7V27h-5.1v-9.2c0-3.1-0.6-5.5-3.7-5.5c-3,0-3.7,2.9-3.7,4.9V27h-5.1c0-4.3,0-5.5,0-9.3
			c0-3.9,0-5.1,0-8.5h4.9l0.2,2.6C474.4,9.9,477.3,8.8,479.3,8.8z"/>
		<path d="M325,27.3c-5.8,0.1-9.6-3.9-9.7-9.4c-0.1-5.2,3.4-9.6,9.5-9.6c6.4-0.1,9.5,3.8,9.6,9.4C334.5,23.1,330.9,27.2,325,27.3z
			 M329.1,17.8c0-3.6-1.5-6.2-4.3-6.2c-2.6,0-4,2.9-4,6.3c0,3.7,1.5,6.1,4.1,6.1C327.5,23.9,329.2,21.3,329.1,17.8z"/>
		<path d="M355.5,8.9l0.1,2.1h0.1c1-1.5,2.9-2.6,4.8-2.6c5.6,0,8.4,4.7,8.4,9.5c0,4.6-2.5,9.5-7.7,9.5c-2.3,0-4.3-1-5.5-3.1h-0.1
			v9.4h-5.4V12.4c0-1.2-0.1-2.4-0.2-3.6H355.5z M355.6,17.8c0,2.5,1,5.9,3.9,5.9c3.4,0,3.9-3.2,3.9-5.9c0-2.7-0.4-5.9-3.9-5.9
			C356.6,11.9,355.6,15.4,355.6,17.8z"/>
		<path d="M380.6,27.3c-5.8,0.1-9.6-3.9-9.7-9.4c-0.1-5.2,3.4-9.6,9.5-9.6c6.4-0.1,9.5,3.8,9.6,9.4
			C390.1,23.1,386.5,27.2,380.6,27.3z M384.7,17.8c0-3.6-1.5-6.2-4.3-6.2c-2.6,0-4,2.9-4,6.3c0,3.7,1.5,6.1,4.1,6.1
			C383.1,23.9,384.7,21.3,384.7,17.8z"/>
		<path d="M421.9,14.7l-0.1,7.4c0,1.6,0.2,2.8,0.5,4.5h-4.7l-0.4-1.4c-0.1-0.3-0.1-0.3-0.3,0c-0.4,0.4-2.1,1.6-3.6,2
			c-3.4,0.7-5.6-0.2-7-1.6c-2.3-2.4-1.4-7.3,1.9-8.9c2.4-1.1,4.9-1.3,8.7-1.1c0.1-1.2,0-2.8-0.8-3.5c-0.8-0.8-2.4-0.9-3.6-0.5
			c-1.1,0.5-1.6,1.3-1.7,2.4l-4.7,0c0-3.2,1.8-4.2,3-4.7c2.3-1,6.7-0.9,8.8-0.3C420.2,9.6,421.9,11.2,421.9,14.7z M416.1,22.3
			c0.9-1.4,0.6-3,0.6-4.1c-2.6,0-5.6,0.1-6.5,1.9c-0.9,1.8,0.4,3.4,1.5,3.7C413.6,24.2,415.3,23.6,416.1,22.3z"/>
		<path d="M456.6,27.3c-5.8,0.1-9.6-3.9-9.7-9.4c-0.1-5.2,3.4-9.6,9.5-9.6c6.4-0.1,9.5,3.8,9.6,9.4
			C466.1,23.1,462.5,27.2,456.6,27.3z M460.7,17.8c0-3.6-1.5-6.2-4.3-6.2c-2.6,0-4,2.9-4,6.3c0,3.7,1.5,6.1,4.1,6.1
			C459.1,23.9,460.7,21.3,460.7,17.8z"/>
	</g>
</g>
</svg>
