<svg xmlns="http://www.w3.org/2000/svg" viewBox="0 0 346.2 41.3"><path d="M10.8 41.3c2.3.1 4.6-.5 6.6-1.7 1.6-1.2 2.7-2.8 3.2-4.8.7-2.5 1-5.1.9-7.6V.3h-5.3v27.1c.1 2.4-.3 4.8-1.1 7-.7 1.6-2.2 2.4-4.3 2.4s-3.6-.8-4.3-2.4c-.8-2.2-1.2-4.6-1.1-7V.3H0v26.9c-.1 2.6.2 5.2.9 7.6.5 1.9 1.7 3.6 3.3 4.8 2 1.2 4.3 1.8 6.6 1.7zm16.3-.4h5.3V17.5c1-1 2.3-1.6 3.8-1.8.7-.1 1.4.2 1.8.8.4.8.6 1.6.5 2.4v21.9h5.3V17.4c0-1.5-.3-2.9-1-4.2-.7-1.2-2-1.8-3.3-1.7-2.4 0-4.7 1.1-7 3.2v-2.9h-5.3v29.1h-.1zm28.6.3c1.8 0 3.5-.9 4.7-2.2v1.9h5.3V.3h-5.3v13.4c-1.2-1.4-3-2.2-4.8-2.2-2.4-.2-4.6 1.1-5.6 3.3-1.1 2.9-1.7 6-1.5 9.1v5.6c0 4.2.6 7.2 1.8 9 1.1 1.9 3.2 2.9 5.4 2.7zm1.4-4.1c-1.2.1-2.3-.7-2.6-1.8-.5-1.7-.7-3.5-.7-5.3v-8.1c0-4 1-6.1 3.2-6.1 1.2.1 2.4.5 3.4 1.2v18.9c-1 .7-2.2 1.1-3.3 1.2zm22 4.1c2.8 0 4.9-.8 6.2-2.4 1.3-1.6 2-3.9 2-6.9v-1.1h-5.2v1.8c.1 1.2-.1 2.4-.6 3.6-.5.8-1.4 1.3-2.3 1.2-1 .1-1.9-.4-2.5-1.2-.6-1.2-.9-2.5-.8-3.8v-5.8h11.4v-2.4c.1-2.4-.1-4.7-.6-7.1-.3-1.6-1.1-3-2.3-4.1-1.5-1.1-3.4-1.6-5.3-1.4-3.2 0-5.4.9-6.7 2.8s-1.9 4.8-1.9 8.8v6.6c-.1 2.2.2 4.4.8 6.5.4 1.5 1.3 2.9 2.6 3.8 1.6.8 3.4 1.3 5.2 1.1zm-3.2-17.6V22c0-1.3.1-2.7.2-4 .1-.7.4-1.4.9-2 .6-.4 1.3-.7 2-.6 1-.1 2 .4 2.4 1.3.5 1.4.7 2.8.6 4.2v2.6l-6.1.1zm16.4 17.3h5.3V19.7c.5-.9 1.2-1.6 2-2.2.7-.4 1.5-.6 2.3-.6 1 0 2 .2 3 .6v-5.9c-.3 0-.6-.1-.8-.1-1.2 0-2.3.4-3.3 1-1.3.9-2.3 2.1-3.1 3.4v-4.1h-5.3v29.1h-.1zm38 .4c3.8 0 6.4-1.1 7.9-3.2 1.5-2.2 2.3-5.2 2.3-9.3v-3h-5.3v3c0 1.5-.1 3-.3 4.5-.1 1-.6 1.9-1.3 2.6-.9.7-2.1 1-3.2.9-1.1.1-2.2-.2-3.1-.8-.8-.6-1.4-1.5-1.6-2.5-.4-1.6-.5-3.2-.5-4.9V12.7c0-1.5.1-3.1.3-4.6.2-1 .7-2 1.5-2.7 1-.7 2.2-1.1 3.4-1 1.2-.1 2.3.2 3.3.9.7.6 1.1 1.5 1.3 2.4.2 1.4.3 2.9.2 4.3v2.9h5.3v-3.2c0-3.8-.8-6.7-2.4-8.7-1.6-2-4.2-3-7.8-2.9-4.1 0-6.9 1.2-8.5 3.4-1.6 2.3-2.4 5.7-2.4 10.1v14.3c0 4.2.8 7.5 2.5 9.9 1.5 2.3 4.4 3.5 8.4 3.5zm23.1-.1c3 0 5.2-.9 6.5-2.7 1.3-1.8 1.9-4.5 1.9-7.9v-8.4c0-3.5-.6-6.1-1.9-7.9s-3.4-2.7-6.5-2.7-5.2.9-6.5 2.7c-1.3 1.8-1.9 4.5-1.9 7.9v8.4c0 3.5.6 6.1 1.9 7.9 1.2 1.8 3.4 2.7 6.5 2.7zm0-3.9c-.8.1-1.6-.2-2.1-.9-.5-.6-.8-1.3-.8-2.1-.1-1.1-.2-2.3-.2-3.4v-9.1c0-1.1 0-2.3.2-3.4.1-.8.4-1.5.8-2.1.5-.6 1.3-.9 2.1-.9.8-.1 1.6.2 2.1.9.5.6.7 1.4.8 2.1.1 1.1.2 2.3.2 3.4v9.1c0 1.1 0 2.3-.2 3.4-.1.8-.3 1.5-.8 2.1-.6.7-1.3 1-2.1.9zm13.3 3.6h5.3V17.5c1-1 2.3-1.6 3.8-1.8.7-.1 1.4.2 1.8.8.4.8.6 1.6.5 2.4v21.9h5.3V17.4c0-1.5-.3-2.9-1-4.2-.7-1.2-2-1.8-3.3-1.7-2.4 0-4.7 1.1-7 3.2v-2.9h-5.3v29.1h-.1zm28.6.3c2.1.1 4.2-.6 5.8-1.9 1.5-1.4 2.3-3.4 2.2-5.5 0-1.5-.3-3-1.1-4.2-.8-1.3-1.9-2.5-3-3.6l-5.1-4.7c-.9-.7-1.4-1.8-1.5-2.9 0-.8.3-1.5.8-2.1.5-.6 1.3-.9 2.1-.9 1 0 1.9.4 2.4 1.3.6 1.2 1 2.4 1.2 3.7l3.6-1.4c-.1-2-.9-3.9-2.2-5.5-1.3-1.4-3.2-2.2-5.2-2.1-2-.1-3.9.6-5.5 1.9-1.4 1.4-2.1 3.3-2 5.2 0 1.4.3 2.8.9 4 .7 1.2 1.6 2.2 2.6 3.1l5 4.2c.7.6 1.3 1.3 1.8 2.1.4.7.6 1.5.5 2.2 0 .8-.2 1.6-.8 2.2-.6.6-1.4.9-2.2.8-1.1.1-2.1-.5-2.8-1.4-.8-1.3-1.2-2.7-1.4-4.1l-4.5 1.4c.1 2.2 1 4.3 2.5 5.9 1.7 1.6 3.8 2.4 5.9 2.3zm19.7 0c1.2 0 2.5-.1 3.7-.3V37c-.6.1-1.3.2-2 .1-.8.1-1.5-.2-2.1-.7-.4-.7-.6-1.6-.5-2.4V15.5h4.7v-3.6h-4.7V3.5h-5.3v8.4h-3v3.6h3v18.8c0 4.6 2 6.9 6.2 6.9zm7.9-.3h5.3V19.7c.5-.9 1.2-1.6 2-2.2.7-.4 1.5-.6 2.3-.6 1 0 2 .2 3 .6v-5.9c-.3 0-.6-.1-.8-.1-1.2 0-2.3.4-3.3 1-1.3.9-2.3 2.1-3.1 3.4v-4.1H223v29.1h-.1zm20 .3c2.4 0 4.7-1.1 7-3.2v2.9h5.3v-29H250v23.3c-1 1-2.3 1.6-3.8 1.8-.7.1-1.4-.2-1.8-.8-.4-.8-.6-1.6-.5-2.5V11.9h-5.3v23.4c0 1.5.3 2.9 1 4.2.7 1.2 2 1.9 3.3 1.7zm25.8 0c3 0 5-.8 6.2-2.3 1.2-1.5 1.7-3.9 1.7-7v-2h-4.8v2.4c.1 1.3-.1 2.6-.5 3.8-.5.9-1.4 1.4-2.4 1.2-.7 0-1.4-.1-1.9-.5-.5-.5-.9-1.1-1-1.9-.2-1.3-.3-2.5-.3-3.8V22c0-1.3.1-2.6.2-3.9.1-.7.4-1.4.9-1.9.6-.4 1.3-.7 2-.6.9-.1 1.9.3 2.4 1.1.5 1.3.7 2.6.6 4v1.7h4.8v-1.7c.1-1.7-.2-3.5-.7-5.1-.4-1.3-1.3-2.3-2.4-3-1.5-.7-3.2-1.1-4.8-1-1.8-.1-3.7.3-5.2 1.3-1.3.9-2.2 2.3-2.5 3.8-.5 2.1-.7 4.2-.7 6.4v6.6c0 2.1.2 4.2.7 6.3.4 1.5 1.3 2.9 2.5 3.9 1.5 1 3.3 1.5 5.2 1.3zm20.3 0c1.2 0 2.5-.1 3.7-.3V37c-.6.1-1.3.2-2 .1-.8.1-1.5-.2-2.1-.7-.4-.7-.6-1.6-.5-2.4V15.5h4.7v-3.6h-4.7V3.5h-5.3v8.4h-3v3.6h3v18.8c0 4.6 2 6.9 6.2 6.9zm8.1-33.6h5.3V2h-5.3v5.6zm0 33.2h5.3V11.9h-5.3v28.9zm19 .4c3 0 5.2-.9 6.5-2.7 1.3-1.8 1.9-4.5 1.9-7.9v-8.4c0-3.5-.6-6.1-1.9-7.9-1.3-1.8-3.4-2.7-6.5-2.7s-5.2.9-6.5 2.7c-1.3 1.8-1.9 4.5-1.9 7.9v8.4c0 3.5.6 6.1 1.9 7.9 1.3 1.8 3.4 2.7 6.5 2.7zm0-3.9c-.8.1-1.6-.2-2.1-.9-.5-.6-.8-1.3-.8-2.1-.1-1.1-.2-2.3-.2-3.4v-9.1c0-1.1 0-2.3.2-3.4.1-.8.4-1.5.8-2.1.5-.6 1.3-.9 2.1-.9.8-.1 1.6.2 2.1.9.5.6.7 1.4.8 2.1.1 1.1.2 2.3.2 3.4v9.1c0 1.1 0 2.3-.2 3.4-.1.8-.3 1.5-.8 2.1-.5.7-1.3 1-2.1.9zm13.3 3.5h5.3V17.5c1-1 2.3-1.6 3.8-1.8.7-.1 1.4.2 1.8.8.4.8.6 1.6.5 2.4v21.9h5.3V17.4c0-1.5-.3-2.9-1-4.2-.7-1.2-2-1.8-3.3-1.7-2.4 0-4.7 1.1-7 3.2v-2.9h-5.3v29h-.1z"/></svg>