<?xml version="1.0" encoding="utf-8"?>
<!-- Generator: Adobe Illustrator 21.0.2, SVG Export Plug-In . SVG Version: 6.00 Build 0)  -->
<svg version="1.1" id="uc_main_title_en.svg" xmlns="http://www.w3.org/2000/svg" xmlns:xlink="http://www.w3.org/1999/xlink" x="0px"
	 y="0px" viewBox="0 0 346.2 41.3" style="enable-background:new 0 0 346.2 41.3;" xml:space="preserve">
<path id="Under_Construction" d="M10.8,41.3c2.3,0.1,4.6-0.5,6.6-1.7c1.6-1.2,2.7-2.8,3.2-4.8c0.7-2.5,1-5.1,0.9-7.6V0.3h-5.3v27.1
	c0.1,2.4-0.3,4.8-1.1,7c-0.7,1.6-2.2,2.4-4.3,2.4S7.2,36,6.5,34.4c-0.8-2.2-1.2-4.6-1.1-7V0.3H0v26.9c-0.1,2.6,0.2,5.2,0.9,7.6
	c0.5,1.9,1.7,3.6,3.3,4.8C6.2,40.8,8.5,41.4,10.8,41.3L10.8,41.3L10.8,41.3z M27.1,40.9h5.3V17.5c1-1,2.3-1.6,3.8-1.8
	c0.7-0.1,1.4,0.2,1.8,0.8c0.4,0.8,0.6,1.6,0.5,2.4v21.9h5.3V17.4c0-1.5-0.3-2.9-1-4.2c-0.7-1.2-2-1.8-3.3-1.7c-2.4,0-4.7,1.1-7,3.2
	v-2.9h-5.3V40.9L27.1,40.9z M55.7,41.2c1.8,0,3.5-0.9,4.7-2.2v1.9h5.3V0.3h-5.3v13.4c-1.2-1.4-3-2.2-4.8-2.2
	c-2.4-0.2-4.6,1.1-5.6,3.3c-1.1,2.9-1.7,6-1.5,9.1v5.6c0,4.2,0.6,7.2,1.8,9C51.4,40.4,53.5,41.4,55.7,41.2L55.7,41.2L55.7,41.2z
	 M57.1,37.1c-1.2,0.1-2.3-0.7-2.6-1.8c-0.5-1.7-0.7-3.5-0.7-5.3v-8.1c0-4,1-6.1,3.2-6.1c1.2,0.1,2.4,0.5,3.4,1.2v18.9
	C59.4,36.6,58.2,37,57.1,37.1L57.1,37.1L57.1,37.1z M79.1,41.2c2.8,0,4.9-0.8,6.2-2.4c1.3-1.6,2-3.9,2-6.9v-1.1h-5.2v1.8
	c0.1,1.2-0.1,2.4-0.6,3.6c-0.5,0.8-1.4,1.3-2.3,1.2c-1,0.1-1.9-0.4-2.5-1.2c-0.6-1.2-0.9-2.5-0.8-3.8v-5.8h11.4v-2.4
	c0.1-2.4-0.1-4.7-0.6-7.1c-0.3-1.6-1.1-3-2.3-4.1c-1.5-1.1-3.4-1.6-5.3-1.4c-3.2,0-5.4,0.9-6.7,2.8s-1.9,4.8-1.9,8.8v6.6
	c-0.1,2.2,0.2,4.4,0.8,6.5c0.4,1.5,1.3,2.9,2.6,3.8C75.5,40.9,77.3,41.4,79.1,41.2L79.1,41.2L79.1,41.2z M75.9,23.6V22
	c0-1.3,0.1-2.7,0.2-4c0.1-0.7,0.4-1.4,0.9-2c0.6-0.4,1.3-0.7,2-0.6c1-0.1,2,0.4,2.4,1.3c0.5,1.4,0.7,2.8,0.6,4.2v2.6L75.9,23.6
	L75.9,23.6z M92.3,40.9h5.3V19.7c0.5-0.9,1.2-1.6,2-2.2c0.7-0.4,1.5-0.6,2.3-0.6c1,0,2,0.2,3,0.6v-5.9c-0.3,0-0.6-0.1-0.8-0.1
	c-1.2,0-2.3,0.4-3.3,1c-1.3,0.9-2.3,2.1-3.1,3.4v-4.1h-5.3V40.9L92.3,40.9z M130.3,41.3c3.8,0,6.4-1.1,7.9-3.2
	c1.5-2.2,2.3-5.2,2.3-9.3v-3h-5.3v3c0,1.5-0.1,3-0.3,4.5c-0.1,1-0.6,1.9-1.3,2.6c-0.9,0.7-2.1,1-3.2,0.9c-1.1,0.1-2.2-0.2-3.1-0.8
	c-0.8-0.6-1.4-1.5-1.6-2.5c-0.4-1.6-0.5-3.2-0.5-4.9V12.7c0-1.5,0.1-3.1,0.3-4.6c0.2-1,0.7-2,1.5-2.7c1-0.7,2.2-1.1,3.4-1
	c1.2-0.1,2.3,0.2,3.3,0.9c0.7,0.6,1.1,1.5,1.3,2.4c0.2,1.4,0.3,2.9,0.2,4.3v2.9h5.3v-3.2c0-3.8-0.8-6.7-2.4-8.7
	c-1.6-2-4.2-3-7.8-2.9c-4.1,0-6.9,1.2-8.5,3.4c-1.6,2.3-2.4,5.7-2.4,10.1v14.3c0,4.2,0.8,7.5,2.5,9.9
	C123.4,40.1,126.3,41.3,130.3,41.3L130.3,41.3L130.3,41.3z M153.4,41.2c3,0,5.2-0.9,6.5-2.7c1.3-1.8,1.9-4.5,1.9-7.9v-8.4
	c0-3.5-0.6-6.1-1.9-7.9s-3.4-2.7-6.5-2.7c-3.1,0-5.2,0.9-6.5,2.7c-1.3,1.8-1.9,4.5-1.9,7.9v8.4c0,3.5,0.6,6.1,1.9,7.9
	C148.1,40.3,150.3,41.2,153.4,41.2L153.4,41.2z M153.4,37.3c-0.8,0.1-1.6-0.2-2.1-0.9c-0.5-0.6-0.8-1.3-0.8-2.1
	c-0.1-1.1-0.2-2.3-0.2-3.4v-9.1c0-1.1,0-2.3,0.2-3.4c0.1-0.8,0.4-1.5,0.8-2.1c0.5-0.6,1.3-0.9,2.1-0.9c0.8-0.1,1.6,0.2,2.1,0.9
	c0.5,0.6,0.7,1.4,0.8,2.1c0.1,1.1,0.2,2.3,0.2,3.4v9.1c0,1.1,0,2.3-0.2,3.4c-0.1,0.8-0.3,1.5-0.8,2.1
	C154.9,37.1,154.2,37.4,153.4,37.3L153.4,37.3z M166.7,40.9h5.3V17.5c1-1,2.3-1.6,3.8-1.8c0.7-0.1,1.4,0.2,1.8,0.8
	c0.4,0.8,0.6,1.6,0.5,2.4v21.9h5.3V17.4c0-1.5-0.3-2.9-1-4.2c-0.7-1.2-2-1.8-3.3-1.7c-2.4,0-4.7,1.1-7,3.2v-2.9h-5.3V40.9
	L166.7,40.9z M195.3,41.2c2.1,0.1,4.2-0.6,5.8-1.9c1.5-1.4,2.3-3.4,2.2-5.5c0-1.5-0.3-3-1.1-4.2c-0.8-1.3-1.9-2.5-3-3.6l-5.1-4.7
	c-0.9-0.7-1.4-1.8-1.5-2.9c0-0.8,0.3-1.5,0.8-2.1c0.5-0.6,1.3-0.9,2.1-0.9c1,0,1.9,0.4,2.4,1.3c0.6,1.2,1,2.4,1.2,3.7l3.6-1.4
	c-0.1-2-0.9-3.9-2.2-5.5c-1.3-1.4-3.2-2.2-5.2-2.1c-2-0.1-3.9,0.6-5.5,1.9c-1.4,1.4-2.1,3.3-2,5.2c0,1.4,0.3,2.8,0.9,4
	c0.7,1.2,1.6,2.2,2.6,3.1l5,4.2c0.7,0.6,1.3,1.3,1.8,2.1c0.4,0.7,0.6,1.5,0.5,2.2c0,0.8-0.2,1.6-0.8,2.2c-0.6,0.6-1.4,0.9-2.2,0.8
	c-1.1,0.1-2.1-0.5-2.8-1.4c-0.8-1.3-1.2-2.7-1.4-4.1l-4.5,1.4c0.1,2.2,1,4.3,2.5,5.9C191.1,40.5,193.2,41.3,195.3,41.2L195.3,41.2
	L195.3,41.2z M215,41.2c1.2,0,2.5-0.1,3.7-0.3V37c-0.6,0.1-1.3,0.2-2,0.1c-0.8,0.1-1.5-0.2-2.1-0.7c-0.4-0.7-0.6-1.6-0.5-2.4V15.5
	h4.7v-3.6h-4.7V3.5h-5.3v8.4h-3v3.6h3v18.8C208.8,38.9,210.8,41.2,215,41.2L215,41.2L215,41.2z M222.9,40.9h5.3V19.7
	c0.5-0.9,1.2-1.6,2-2.2c0.7-0.4,1.5-0.6,2.3-0.6c1,0,2,0.2,3,0.6v-5.9c-0.3,0-0.6-0.1-0.8-0.1c-1.2,0-2.3,0.4-3.3,1
	c-1.3,0.9-2.3,2.1-3.1,3.4v-4.1h-5.3V40.9L222.9,40.9z M242.9,41.2c2.4,0,4.7-1.1,7-3.2v2.9h5.3V11.9H250v23.3c-1,1-2.3,1.6-3.8,1.8
	c-0.7,0.1-1.4-0.2-1.8-0.8c-0.4-0.8-0.6-1.6-0.5-2.5V11.9h-5.3v23.4c0,1.5,0.3,2.9,1,4.2C240.3,40.7,241.6,41.4,242.9,41.2
	L242.9,41.2L242.9,41.2z M268.7,41.2c3,0,5-0.8,6.2-2.3c1.2-1.5,1.7-3.9,1.7-7v-2h-4.8v2.4c0.1,1.3-0.1,2.6-0.5,3.8
	c-0.5,0.9-1.4,1.4-2.4,1.2c-0.7,0-1.4-0.1-1.9-0.5c-0.5-0.5-0.9-1.1-1-1.9c-0.2-1.3-0.3-2.5-0.3-3.8V22c0-1.3,0.1-2.6,0.2-3.9
	c0.1-0.7,0.4-1.4,0.9-1.9c0.6-0.4,1.3-0.7,2-0.6c0.9-0.1,1.9,0.3,2.4,1.1c0.5,1.3,0.7,2.6,0.6,4v1.7h4.8v-1.7
	c0.1-1.7-0.2-3.5-0.7-5.1c-0.4-1.3-1.3-2.3-2.4-3c-1.5-0.7-3.2-1.1-4.8-1c-1.8-0.1-3.7,0.3-5.2,1.3c-1.3,0.9-2.2,2.3-2.5,3.8
	c-0.5,2.1-0.7,4.2-0.7,6.4v6.6c0,2.1,0.2,4.2,0.7,6.3c0.4,1.5,1.3,2.9,2.5,3.9C265,40.9,266.8,41.4,268.7,41.2L268.7,41.2
	L268.7,41.2z M289,41.2c1.2,0,2.5-0.1,3.7-0.3V37c-0.6,0.1-1.3,0.2-2,0.1c-0.8,0.1-1.5-0.2-2.1-0.7c-0.4-0.7-0.6-1.6-0.5-2.4V15.5
	h4.7v-3.6h-4.7V3.5h-5.3v8.4h-3v3.6h3v18.8C282.8,38.9,284.8,41.2,289,41.2L289,41.2L289,41.2z M297.1,7.6h5.3V2h-5.3V7.6z
	 M297.1,40.8h5.3V11.9h-5.3V40.8L297.1,40.8z M316.1,41.2c3,0,5.2-0.9,6.5-2.7c1.3-1.8,1.9-4.5,1.9-7.9v-8.4c0-3.5-0.6-6.1-1.9-7.9
	c-1.3-1.8-3.4-2.7-6.5-2.7c-3.1,0-5.2,0.9-6.5,2.7c-1.3,1.8-1.9,4.5-1.9,7.9v8.4c0,3.5,0.6,6.1,1.9,7.9
	C310.9,40.3,313,41.2,316.1,41.2L316.1,41.2z M316.1,37.3c-0.8,0.1-1.6-0.2-2.1-0.9c-0.5-0.6-0.8-1.3-0.8-2.1
	c-0.1-1.1-0.2-2.3-0.2-3.4v-9.1c0-1.1,0-2.3,0.2-3.4c0.1-0.8,0.4-1.5,0.8-2.1c0.5-0.6,1.3-0.9,2.1-0.9c0.8-0.1,1.6,0.2,2.1,0.9
	c0.5,0.6,0.7,1.4,0.8,2.1c0.1,1.1,0.2,2.3,0.2,3.4v9.1c0,1.1,0,2.3-0.2,3.4c-0.1,0.8-0.3,1.5-0.8,2.1
	C317.7,37.1,316.9,37.4,316.1,37.3L316.1,37.3L316.1,37.3z M329.4,40.8h5.3V17.5c1-1,2.3-1.6,3.8-1.8c0.7-0.1,1.4,0.2,1.8,0.8
	c0.4,0.8,0.6,1.6,0.5,2.4v21.9h5.3V17.4c0-1.5-0.3-2.9-1-4.2c-0.7-1.2-2-1.8-3.3-1.7c-2.4,0-4.7,1.1-7,3.2v-2.9h-5.3V40.8
	L329.4,40.8z"/>
</svg>
