<svg id="タイトル" xmlns="http://www.w3.org/2000/svg" width="258" height="78.594" viewBox="0 0 258 78.594">
  <metadata><?xpacket begin="﻿" id="W5M0MpCehiHzreSzNTczkc9d"?>
<x:xmpmeta xmlns:x="adobe:ns:meta/" x:xmptk="Adobe XMP Core 5.6-c140 79.160451, 2017/05/06-01:08:21        ">
   <rdf:RDF xmlns:rdf="http://www.w3.org/1999/02/22-rdf-syntax-ns#">
      <rdf:Description rdf:about=""/>
   </rdf:RDF>
</x:xmpmeta>
                                                                                                    
                                                                                                    
                                                                                                    
                                                                                                    
                                                                                                    
                                                                                                    
                                                                                                    
                                                                                                    
                                                                                                    
                                                                                                    
                                                                                                    
                                                                                                    
                                                                                                    
                                                                                                    
                                                                                                    
                                                                                                    
                                                                                                    
                                                                                                    
                                                                                                    
                                                                                                    
                           
<?xpacket end="w"?></metadata>
<defs>
    <style>
      .cls-1 {
        fill-rule: evenodd;
      }
    </style>
  </defs>
  <path id="個人情報の取り扱いについて" class="cls-1" d="M4.42,78.594V66.6H3.629A30.682,30.682,0,0,0,5.5,60.928l-1.465-.244a26.284,26.284,0,0,1-1.6,5.093,28.467,28.467,0,0,1-2.52,4.868l0.977,0.791a24.585,24.585,0,0,0,2.021-3.35V78.594h1.5Zm12.432-.2h1.494V61.445H6.188V78.4H7.613V77.6h9.238v0.8ZM7.613,62.52h9.238V76.455H7.613V62.52Zm7.7,12.227v-5.43H12.9V66.709h3.018V65.625H12.9V63.418H11.49v2.207H8.59v1.084h2.9v2.607H9.127v5.43h6.182Zm-4.863-4.394h3.5V73.7h-3.5v-3.35Zm22.222,3.931a18.328,18.328,0,0,0,5.356,3.97l0.957-1.289a16.7,16.7,0,0,1-3.408-2.09A13.208,13.208,0,0,1,32.1,71.021a12.509,12.509,0,0,1-1.714-4.448V61.24H28.756v5.2a10.915,10.915,0,0,1-1.978,6.016,13.044,13.044,0,0,1-5.972,4.736l0.605,1.1a15.922,15.922,0,0,0,5.327-3.481,11.307,11.307,0,0,0,3.081-5.523A12.307,12.307,0,0,0,32.667,74.282Zm26.44-7.573H53.434V65.283h4.678V64.219H53.434V62.93h5.313V61.856H53.434V60.674H51.91v1.182h-5.02V62.93h5.02v1.289H47.565v1.064H51.91v1.426H46.647v1.123H59.107V66.709ZM44.44,60.791H43.033V78.565H44.44V60.791Zm1.7,2.344-1.045.244,0.732,2.578,1.045-.312Zm-5.43,1.309A25.426,25.426,0,0,1,40,69.951L41.217,70.2a16.725,16.725,0,0,0,.488-2.632q0.225-1.782.264-3.023Zm15.664,12.1a0.521,0.521,0,0,1-.229.4,0.809,0.809,0,0,1-.523.186H54.049L54.215,78.4h2.119a1.7,1.7,0,0,0,1.04-.371,1.113,1.113,0,0,0,.493-0.918v-8H47.643v9.473h1.445V75.117h7.285v1.426Zm-7.285-4.981V70.137h7.285v1.426H49.088Zm0,1.025h7.285v1.5H49.088v-1.5Zm16.689,6V74.658h3.086V73.516H65.777V71.231h3.428V70.117H67.232l1.055-3.272h0.859V65.7H65.8V63.643h2.979V62.549H65.8v-1.68h-1.5v1.68h-3v1.094h3V65.7H60.719v1.143h1.113l0.908,3.272H60.6v1.113h3.652v2.285H60.621v1.143h3.633v3.926h1.523ZM63.16,66.846h3.7l-0.918,3.272H64.059Zm8.457,11.67V69.443h0.869A11.241,11.241,0,0,0,74.732,74.9l0.039,0.049A10.489,10.489,0,0,1,72,77.441l0.654,0.918a11.107,11.107,0,0,0,2.93-2.412,16.334,16.334,0,0,0,2.8,2.51l0.938-1.064a15.46,15.46,0,0,1-2.92-2.471,11.274,11.274,0,0,0,2.188-6.6H71.617V62.5h4.853v2.334a0.713,0.713,0,0,1-.879.713H73.815l0.2,1.2h2.227a1.868,1.868,0,0,0,1.182-.4,1.191,1.191,0,0,0,.508-0.972v-4H70.123V78.516h1.494Zm2.119-9.072h3.34a9.014,9.014,0,0,1-1.533,4.434,9.518,9.518,0,0,1-1.807-4.434h0Zm22.822,6.035a6.765,6.765,0,0,0,2.432-5.615,6.072,6.072,0,0,0-2.412-5.083,10.516,10.516,0,0,0-12.979.811,8.038,8.038,0,0,0-2.891,6.02,6.012,6.012,0,0,0,.952,3.442,2.99,2.99,0,0,0,2.612,1.411q2.676,0,4.453-3.516a20.277,20.277,0,0,0,1.885-8.77,8.009,8.009,0,0,1,5.024,1.582,5.87,5.87,0,0,1-.43,8.838,11.011,11.011,0,0,1-5.376,1.826l0.381,1.318A11.422,11.422,0,0,0,96.559,75.479ZM87.6,71.685Q86.246,75.1,84.42,75.1a1.848,1.848,0,0,1-1.66-.991,4.611,4.611,0,0,1-.6-2.417,6.8,6.8,0,0,1,2.041-4.819,8.314,8.314,0,0,1,4.873-2.563A21.531,21.531,0,0,1,87.6,71.685Zm20.362,6.909h1.494V62.822h1.855V61.641H100.66v1.182h1.367V74.629q-1.221.186-1.816,0.254l0.283,1.318q3.975-.615,7.471-1.357v3.75Zm0-15.772v2.939h-4.444V62.822h4.444Zm0,4.063v2.959h-4.444V66.885h4.444Zm-4.444,4.082h4.444v2.666q-1.788.352-4.444,0.772V70.967Zm14.727-7.188h-7.9v1.2h0.927a18.429,18.429,0,0,0,.928,5.151A14.8,14.8,0,0,0,114,73.6a18.012,18.012,0,0,1-3.789,3.984l0.752,1.006a19.05,19.05,0,0,0,3.887-3.828,19.537,19.537,0,0,0,3.6,3.7l0.938-1.123a22.259,22.259,0,0,1-3.741-3.731,18.419,18.419,0,0,0,2.6-9.834h0Zm-5.586,1.2h4.014a15.322,15.322,0,0,1-1.905,7.314,14.236,14.236,0,0,1-2.109-7.314h0Zm21.5,11.279q2.5-1.934,2.5-6.5a9.518,9.518,0,0,0-1.309-5.439,4.111,4.111,0,0,0-3.564-1.895,6.423,6.423,0,0,0-4.028,1.528,7.7,7.7,0,0,0-2.622,4.175h-0.137a46.932,46.932,0,0,1,.781-6.5l-1.543-.137a34.709,34.709,0,0,0-.566,6.533,31.964,31.964,0,0,0,.361,5.049l1.387-.088a11.981,11.981,0,0,1,1.025-5.283,6.985,6.985,0,0,1,2.515-3.042,5.594,5.594,0,0,1,2.876-.913,2.655,2.655,0,0,1,2.358,1.528,9,9,0,0,1,.894,4.409q0,4.111-2.227,5.645a13.178,13.178,0,0,1-6.426,1.865l0.362,1.279Q131.666,78.193,134.166,76.26Zm10,1.875a1.471,1.471,0,0,0,.488-1.162V70.635a21.7,21.7,0,0,0,2.578-1.133l-0.273-1.162q-0.674.313-2.305,0.908V65.732h2.168V64.443h-2.168V60.732h-1.543v3.711h-2.529v1.289h2.529v4.063q-2.148.723-3.144,0.947l0.449,1.367q0.987-.273,2.695-0.889v5.254a0.656,0.656,0,0,1-.761.723h-0.02l-1.426-.029,0.205,1.4h1.8A1.839,1.839,0,0,0,144.166,78.135Zm9.287-3.965a13.832,13.832,0,0,1-5.078,3.291l0.674,1.143a14.462,14.462,0,0,0,5.39-3.359,21.061,21.061,0,0,0,4.239,3.135l1.045-1.231a15.331,15.331,0,0,1-4.307-2.978,15.936,15.936,0,0,0,3.408-7.383L158.58,66.5h-2.773l1.259-4.854-0.205-.166H146.539v1.221h2.383q0.184,10.244-3.828,14.961l1,0.772q3.183-3.477,4.014-9.981a18.457,18.457,0,0,0,3.349,5.713h0Zm1.934-11.465-1.143,4.736,0.225,0.244H157.1a13.3,13.3,0,0,1-2.548,5.4,19.894,19.894,0,0,1-2.627-3.975,14.1,14.1,0,0,1-1.407-3.887q0.05-1.1.049-2.344V62.705h4.815Zm13.037,8.857a22.242,22.242,0,0,1-1.543,3q-0.859,1.392-1.367,1.392a2.02,2.02,0,0,1-.992-0.976,7.324,7.324,0,0,1-1.035-2.329,12.022,12.022,0,0,1-.356-3.052,26.292,26.292,0,0,1,.244-3.086q0.273-2.187.313-3.066h-1.641q-0.02.967-.254,3.066a29.73,29.73,0,0,0-.225,3.1,13.537,13.537,0,0,0,.244,2.51,11.579,11.579,0,0,0,.757,2.466,6.723,6.723,0,0,0,1.128,1.851,5.3,5.3,0,0,0,1,.908,1.626,1.626,0,0,0,.869.234,2.072,2.072,0,0,0,1.548-.894,13.216,13.216,0,0,0,1.465-2.231,17.265,17.265,0,0,0,1.05-2.266Zm6.084-7.9-1.2.762a15.9,15.9,0,0,1,2.675,4.883,17.228,17.228,0,0,1,.938,5.625v0.176l1.641-.049a16.974,16.974,0,0,0-4.053-11.4h0Zm9.209,7.3a29.781,29.781,0,0,1,1.347-8.662l-1.5-.264a32.723,32.723,0,0,0-1.338,8.848,23.214,23.214,0,0,0,1.006,6.973l1.4-.322a23.318,23.318,0,0,1-.908-6.572h0ZM197.8,63.389V63.3q-0.518-.029-2.08-0.029-3.145,0-8.174.293,0.059,0.879.059,1.318,5.292-.273,7.314-0.273,1.377,0,2.93.029-0.05-.8-0.049-1.25h0ZM197.965,75.7a31.477,31.477,0,0,1-3.906.234,23.934,23.934,0,0,1-3.091-.151,3.845,3.845,0,0,1-1.739-.62,1.449,1.449,0,0,1-.649-1.23,4.162,4.162,0,0,1,1.2-2.852l-1.133-.606a5.847,5.847,0,0,0-1.464,3.545,2.631,2.631,0,0,0,.693,1.885,3.992,3.992,0,0,0,2.036,1.05,19.086,19.086,0,0,0,4.058.317,38.132,38.132,0,0,0,3.994-.215V75.7Zm17.886-.659a6.028,6.028,0,0,0,2.915-5.376,5.583,5.583,0,0,0-1.783-4.434,7.256,7.256,0,0,0-4.926-1.572,94.6,94.6,0,0,0-11.211,1.4l0.215,1.445q2.968-.586,6.333-1.045A40.768,40.768,0,0,1,212.223,65a5.107,5.107,0,0,1,3.613,1.255,4.5,4.5,0,0,1,1.328,3.452,4.768,4.768,0,0,1-2.734,4.341q-2.726,1.519-9.17,1.694l0.244,1.377Q212.935,76.924,215.851,75.044Zm12.573-3.481a22.242,22.242,0,0,1-1.543,3q-0.859,1.392-1.367,1.392a2.02,2.02,0,0,1-.992-0.976,7.324,7.324,0,0,1-1.035-2.329,12.022,12.022,0,0,1-.356-3.052,26.292,26.292,0,0,1,.244-3.086q0.273-2.187.313-3.066h-1.641q-0.02.967-.254,3.066a29.73,29.73,0,0,0-.225,3.1,13.537,13.537,0,0,0,.244,2.51,11.579,11.579,0,0,0,.757,2.466,6.723,6.723,0,0,0,1.128,1.851,5.3,5.3,0,0,0,1,.908,1.626,1.626,0,0,0,.869.234,2.072,2.072,0,0,0,1.548-.894,13.216,13.216,0,0,0,1.465-2.231,17.265,17.265,0,0,0,1.05-2.266Zm6.084-7.9-1.2.762a15.9,15.9,0,0,1,2.675,4.883,17.228,17.228,0,0,1,.938,5.625v0.176l1.641-.049a16.974,16.974,0,0,0-4.053-11.4h0Zm23.535-.361h-17v1.3h9.8a10.948,10.948,0,0,0-3.154,3.267,7.3,7.3,0,0,0-1.2,3.892,6.2,6.2,0,0,0,.489,2.519,5.382,5.382,0,0,0,1.494,1.963,6.647,6.647,0,0,0,2.329,1.265,10.241,10.241,0,0,0,2.51.478q1.186,0.063,2.993.063h0.049l0.1-1.445c-0.4.019-.794,0.029-1.171,0.029a12.437,12.437,0,0,1-3.99-.522,5.148,5.148,0,0,1-2.4-1.65,4.38,4.38,0,0,1-.9-2.817,6.514,6.514,0,0,1,1.69-4.214,9.549,9.549,0,0,1,3.476-2.788h4.893V63.3Z"/>
  <path id="Privacy_Policy" data-name="Privacy Policy" class="cls-1" d="M5.009,40.5h5.65V21.654h4.45q4.849,0,7.4-2.75t2.55-7.7q0-5.5-2.375-8.35T15.059,0H5.009V40.5Zm5.65-22.9V4.054h2.65a10.766,10.766,0,0,1,4.175.6A3.173,3.173,0,0,1,19.259,6.7a16.691,16.691,0,0,1,.45,4.55,9.946,9.946,0,0,1-.6,3.9,3.511,3.511,0,0,1-1.975,1.9,10.791,10.791,0,0,1-3.875.55h-2.6Zm18.05,22.9h5.35V19.4a6.386,6.386,0,0,1,1.975-2.175,4.376,4.376,0,0,1,2.325-.625,8.46,8.46,0,0,1,2.95.6V11.3a6.972,6.972,0,0,0-.85-0.05,6.1,6.1,0,0,0-3.325,1,10.473,10.473,0,0,0-3.075,3.45V11.6h-5.35V40.5ZM44.959,7.3h5.35V1.7h-5.35V7.3Zm0,33.2h5.35V11.6h-5.35V40.5Zm14.849,0h6.55l5.5-28.9h-5.2l-3.6,23.25L59.509,11.6h-5.4Zm20.7,0.4a5.376,5.376,0,0,0,3.775-1.35,7.3,7.3,0,0,0,2.075-3.3q0.15,1.4.7,4.25h4.9a51.99,51.99,0,0,1-.5-6.95v-13.2q0-4.6-1.875-6.875T83.558,11.2q-4.4,0-6.5,2.275t-2.2,7.075l5.3,0.2V19.3q0-4.1,3.05-4.1a2.33,2.33,0,0,1,2.325,1.175,9.987,9.987,0,0,1,.575,4.025v2.05a57.161,57.161,0,0,0-6.25,2.85,10.728,10.728,0,0,0-3.7,3.375,9.613,9.613,0,0,0-1.45,5.525,7.369,7.369,0,0,0,.75,3.25,6.486,6.486,0,0,0,2.075,2.5,4.986,4.986,0,0,0,2.975.95h0Zm2.1-4.6a2.139,2.139,0,0,1-1.9-.975,4.985,4.985,0,0,1-.65-2.775,4.8,4.8,0,0,1,.775-2.75,8.31,8.31,0,0,1,1.95-2.025A31.456,31.456,0,0,1,86.108,25.7v8.2a6.462,6.462,0,0,1-1.45,1.575,3.2,3.2,0,0,1-2.05.825h0Zm21.9,4.6q4.449,0,6.175-2.3t1.725-7v-2h-4.85v2.35a9.747,9.747,0,0,1-.55,3.775,2.346,2.346,0,0,1-2.4,1.225,3.076,3.076,0,0,1-1.925-.525,3.142,3.142,0,0,1-.975-1.85,18.449,18.449,0,0,1-.3-3.825v-9.1a23.281,23.281,0,0,1,.25-3.95,3.434,3.434,0,0,1,.9-1.95,2.869,2.869,0,0,1,2-.6,2.473,2.473,0,0,1,2.375,1.125,8.909,8.909,0,0,1,.625,3.975V22h4.85V20.3a16.172,16.172,0,0,0-.675-5.125,5.291,5.291,0,0,0-2.4-2.975,9.685,9.685,0,0,0-4.825-1,8.92,8.92,0,0,0-5.25,1.325,6.648,6.648,0,0,0-2.525,3.825,25.152,25.152,0,0,0-.675,6.4V29.4a24.365,24.365,0,0,0,.675,6.275,6.874,6.874,0,0,0,2.525,3.85,8.667,8.667,0,0,0,5.25,1.375h0Zm12.2,6.85h0.65a12.681,12.681,0,0,0,6.3-1.3,6.368,6.368,0,0,0,2.95-4.35l6.9-30.5h-5.4l-3.75,21.6-3.9-21.6h-5.4l5.8,24.6a51.029,51.029,0,0,1,1.1,5.3,1.679,1.679,0,0,1-1.125,1.7,12.687,12.687,0,0,1-4.125.45v4.1Zm31.949-7.25h5.65V21.654h4.45q4.85,0,7.4-2.75t2.55-7.7q0-5.5-2.375-8.35T158.707,0h-10.05V40.5Zm5.65-22.9V4.054h2.65a10.764,10.764,0,0,1,4.175.6,3.172,3.172,0,0,1,1.775,2.05,16.691,16.691,0,0,1,.45,4.55,9.946,9.946,0,0,1-.6,3.9,3.509,3.509,0,0,1-1.975,1.9,10.788,10.788,0,0,1-3.875.55h-2.6Zm25.85,23.3q4.549,0,6.475-2.725t1.925-7.925v-8.4q0-5.2-1.925-7.925T180.157,11.2q-4.6,0-6.525,2.725t-1.925,7.925v8.4q0,5.2,1.925,7.925t6.525,2.725h0Zm0-3.95a2.547,2.547,0,0,1-2.125-.85,4.08,4.08,0,0,1-.825-2.1,30.047,30.047,0,0,1-.15-3.4v-9.05a30.766,30.766,0,0,1,.15-3.425A4.114,4.114,0,0,1,178.032,16a2.55,2.55,0,0,1,2.125-.85,2.479,2.479,0,0,1,2.1.85,4.246,4.246,0,0,1,.8,2.125,30.766,30.766,0,0,1,.15,3.425V30.6a30.047,30.047,0,0,1-.15,3.4,4.212,4.212,0,0,1-.8,2.1,2.477,2.477,0,0,1-2.1.85h0Zm13.8,3.55h5.35V0h-5.35V40.5Zm11.3-33.2h5.35V1.7h-5.35V7.3Zm0,33.2h5.35V11.6h-5.35V40.5Zm19,0.4q4.451,0,6.175-2.3t1.725-7v-2h-4.85v2.35a9.728,9.728,0,0,1-.55,3.775,2.346,2.346,0,0,1-2.4,1.225,3.078,3.078,0,0,1-1.925-.525,3.142,3.142,0,0,1-.975-1.85,18.449,18.449,0,0,1-.3-3.825v-9.1a23.281,23.281,0,0,1,.25-3.95,3.447,3.447,0,0,1,.9-1.95,2.869,2.869,0,0,1,2-.6,2.472,2.472,0,0,1,2.375,1.125,8.894,8.894,0,0,1,.625,3.975V22h4.85V20.3a16.172,16.172,0,0,0-.675-5.125,5.291,5.291,0,0,0-2.4-2.975,9.682,9.682,0,0,0-4.825-1,8.92,8.92,0,0,0-5.25,1.325,6.651,6.651,0,0,0-2.525,3.825,25.152,25.152,0,0,0-.675,6.4V29.4a24.365,24.365,0,0,0,.675,6.275,6.877,6.877,0,0,0,2.525,3.85,8.667,8.667,0,0,0,5.25,1.375h0Zm12.2,6.85h0.65a12.681,12.681,0,0,0,6.3-1.3,6.368,6.368,0,0,0,2.95-4.35l6.9-30.5h-5.4l-3.75,21.6-3.9-21.6h-5.4l5.8,24.6a51.029,51.029,0,0,1,1.1,5.3,1.679,1.679,0,0,1-1.125,1.7,12.687,12.687,0,0,1-4.125.45v4.1Z"/>
</svg>
