<svg id="home_main_catch01_sp.svg" xmlns="http://www.w3.org/2000/svg" width="203.563" height="75.844" viewBox="0 0 203.563 75.844">
  <defs>
    <style>
      .cls-1 {
        fill-rule: evenodd;
      }
    </style>
  </defs>
  <path id="Sensing_life._Thinking_future._のコピー" data-name="Sensing life.  Thinking future. のコピー" class="cls-1" d="M113.206,187.387a6.982,6.982,0,0,0,5.049-1.872,6.709,6.709,0,0,0,1.947-5.076,8.875,8.875,0,0,0-1.136-4.5,14.685,14.685,0,0,0-3.047-3.672l-4.94-4.32a5.812,5.812,0,0,1-1.479-1.782,4.923,4.923,0,0,1-.432-2.178,3.2,3.2,0,0,1,.829-2.394,3.267,3.267,0,0,1,2.38-.81,3.08,3.08,0,0,1,2.9,1.386,9.2,9.2,0,0,1,.992,3.942l3.461-.936a9.249,9.249,0,0,0-2.127-5.688,8.183,8.183,0,0,0-10.241-.072,6.556,6.556,0,0,0-1.84,4.968,8.918,8.918,0,0,0,.668,3.654,8.17,8.17,0,0,0,2.145,2.79l4.9,4.32a12.833,12.833,0,0,1,2.417,2.628,5.467,5.467,0,0,1,.757,2.988,3.616,3.616,0,0,1-.812,2.538,3.093,3.093,0,0,1-2.4.882,3.184,3.184,0,0,1-3.047-1.728,11.218,11.218,0,0,1-1.1-4.536l-3.606.972a10.211,10.211,0,0,0,2.146,6.228,6.952,6.952,0,0,0,5.607,2.268h0Zm15.615-.036a5.431,5.431,0,0,0,4.471-1.728,7.758,7.758,0,0,0,1.407-5v-0.792h-3.751v1.26a5.87,5.87,0,0,1-.433,2.574,1.684,1.684,0,0,1-1.658.846,1.982,1.982,0,0,1-1.785-.846,5.152,5.152,0,0,1-.559-2.754v-4.176h8.222v-1.692a24.824,24.824,0,0,0-.415-5.094,5.041,5.041,0,0,0-1.695-2.934,5.918,5.918,0,0,0-3.8-1.044q-3.462,0-4.815,2t-1.352,6.318v4.752a16.657,16.657,0,0,0,.541,4.68,4.862,4.862,0,0,0,1.875,2.718,6.56,6.56,0,0,0,3.751.918h0Zm-2.308-12.708v-1.116a17.034,17.034,0,0,1,.18-2.862,2.432,2.432,0,0,1,.667-1.422,2.084,2.084,0,0,1,1.425-.432,1.717,1.717,0,0,1,1.749.918,8.02,8.02,0,0,1,.414,3.042v1.872h-4.435Zm11.719,12.42h3.859V170.287a4.532,4.532,0,0,1,2.7-1.3,1.411,1.411,0,0,1,1.3.576,3.4,3.4,0,0,1,.36,1.764v15.732h3.859V170.215a5.866,5.866,0,0,0-.722-3.024,2.581,2.581,0,0,0-2.416-1.224,7.445,7.445,0,0,0-5.084,2.34v-2.052h-3.859v20.808Zm20.663,0.288a6.147,6.147,0,0,0,4.219-1.368,5,5,0,0,0,1.551-3.96,5.732,5.732,0,0,0-.776-3.06,12.388,12.388,0,0,0-2.181-2.556l-3.678-3.384a2.759,2.759,0,0,1-1.046-2.088,2.16,2.16,0,0,1,.559-1.512,2.11,2.11,0,0,1,3.227.306,7.024,7.024,0,0,1,.83,2.682l2.6-.972a6.674,6.674,0,0,0-1.569-3.942,4.721,4.721,0,0,0-3.732-1.53,5.524,5.524,0,0,0-3.931,1.35,4.9,4.9,0,0,0-1.442,3.762,5.689,5.689,0,0,0,.667,2.862,8.431,8.431,0,0,0,1.893,2.214l3.57,3.06a5.451,5.451,0,0,1,1.3,1.476,3.311,3.311,0,0,1,.4,1.62,2.24,2.24,0,0,1-.559,1.6,2.05,2.05,0,0,1-1.568.594,2.323,2.323,0,0,1-2-.972,6.814,6.814,0,0,1-.991-2.988l-3.21.972a6.563,6.563,0,0,0,1.785,4.248,5.5,5.5,0,0,0,4.093,1.584h0Zm8.907-24.192h3.858v-4.032H167.8v4.032Zm0,23.9h3.858V166.255H167.8v20.808Zm8,0h3.859V170.287a4.529,4.529,0,0,1,2.7-1.3,1.408,1.408,0,0,1,1.3.576,3.4,3.4,0,0,1,.361,1.764v15.732h3.859V170.215a5.866,5.866,0,0,0-.722-3.024,2.581,2.581,0,0,0-2.416-1.224,7.443,7.443,0,0,0-5.084,2.34v-2.052h-3.859v20.808Zm21.24,6.444q7.248,0,7.248-5.184a5.047,5.047,0,0,0-1.19-3.6,5.486,5.486,0,0,0-3.642-1.476l-3.246-.288a3.331,3.331,0,0,1-1.316-.306,0.7,0.7,0,0,1-.414-0.63,3.2,3.2,0,0,1,.685-1.584,8.162,8.162,0,0,0,1.983.252q3.1,0,4.436-1.89a9.106,9.106,0,0,0,1.334-5.31,12.121,12.121,0,0,0-.2-2.016,9.717,9.717,0,0,0-.45-1.8,5.457,5.457,0,0,1,1.532-.72,14.762,14.762,0,0,1,2-.612l-0.974-2.484-0.577.252a8.074,8.074,0,0,0-1.749,1.1,5.379,5.379,0,0,0-1.064,1.062,3.709,3.709,0,0,0-1.586-1.728,5.594,5.594,0,0,0-2.705-.576,5.251,5.251,0,0,0-4.381,1.89,8.753,8.753,0,0,0-1.5,5.526,10.13,10.13,0,0,0,.6,3.834,5.671,5.671,0,0,0,1.821,2.358,11.821,11.821,0,0,0-1.767,1.908,3.243,3.243,0,0,0-.541,1.872,2.006,2.006,0,0,0,.523,1.332,3.035,3.035,0,0,0,1.5.9,6.242,6.242,0,0,0-2.146,1.62,3.576,3.576,0,0,0-.847,2.376,3.145,3.145,0,0,0,1.8,2.97,10.374,10.374,0,0,0,4.832.954h0Zm0.108-15.516a1.979,1.979,0,0,1-2-1.188,8.779,8.779,0,0,1-.523-3.42,9.209,9.209,0,0,1,.523-3.618,2.021,2.021,0,0,1,2.037-1.134,1.915,1.915,0,0,1,1.983,1.134,10.177,10.177,0,0,1,.469,3.618,9.567,9.567,0,0,1-.469,3.528,1.962,1.962,0,0,1-2.019,1.08h0Zm0.18,12.492a6.43,6.43,0,0,1-2.867-.45,1.512,1.512,0,0,1-.811-1.422,2.171,2.171,0,0,1,.4-1.26,9.966,9.966,0,0,1,1.154-1.332l3.281,0.288a4.4,4.4,0,0,1,2.236.63,1.789,1.789,0,0,1,.613,1.494,1.632,1.632,0,0,1-.974,1.566,7.12,7.12,0,0,1-3.029.486h0Zm18.607-3.42H219.8V157.9h-3.859v29.16Zm8.15-23.9h3.858v-4.032h-3.858v4.032Zm0,23.9h3.858V166.255h-3.858v20.808Zm9.231,0h3.859V169.1h3.173v-2.844h-3.173v-1.728a4.625,4.625,0,0,1,.342-2.034,1.409,1.409,0,0,1,1.388-.666,5.942,5.942,0,0,1,1.443.18V159.2a12.945,12.945,0,0,0-2.524-.252,4.834,4.834,0,0,0-2.867.72,3.429,3.429,0,0,0-1.316,2.034,14.962,14.962,0,0,0-.325,3.474v1.08h-2.488V169.1h2.488v17.964Zm14.893,0.288a5.431,5.431,0,0,0,4.471-1.728,7.758,7.758,0,0,0,1.407-5v-0.792h-3.751v1.26a5.887,5.887,0,0,1-.432,2.574,1.687,1.687,0,0,1-1.659.846,1.982,1.982,0,0,1-1.785-.846,5.152,5.152,0,0,1-.559-2.754v-4.176h8.222v-1.692a24.824,24.824,0,0,0-.415-5.094,5.041,5.041,0,0,0-1.695-2.934,5.916,5.916,0,0,0-3.8-1.044q-3.462,0-4.814,2t-1.353,6.318v4.752a16.694,16.694,0,0,0,.541,4.68,4.862,4.862,0,0,0,1.875,2.718,6.562,6.562,0,0,0,3.751.918h0Zm-2.308-12.708v-1.116a17.142,17.142,0,0,1,.18-2.862,2.432,2.432,0,0,1,.667-1.422,2.084,2.084,0,0,1,1.425-.432,1.717,1.717,0,0,1,1.749.918,8.02,8.02,0,0,1,.414,3.042v1.872h-4.435Zm11.539,12.42h3.859v-4.284h-3.859v4.284Zm-167.211,40h4.075V200.927h4.8V197.9H85.3v3.024h4.94v26.136Zm11.467,0h3.858v-16.7a4.49,4.49,0,0,1,2.813-1.368,1.41,1.41,0,0,1,1.3.576,3.4,3.4,0,0,1,.361,1.764v15.732h3.859V210.215a5.987,5.987,0,0,0-.7-3.024,2.538,2.538,0,0,0-2.4-1.224,7.693,7.693,0,0,0-5.229,2.448V197.9H101.7v29.16Zm16.191-23.9h3.859v-4.032h-3.859v4.032Zm0,23.9h3.859V206.255h-3.859v20.808Zm8,0h3.859V210.287a4.532,4.532,0,0,1,2.7-1.3,1.413,1.413,0,0,1,1.3.576,3.4,3.4,0,0,1,.36,1.764v15.732h3.859V210.215a5.866,5.866,0,0,0-.722-3.024,2.581,2.581,0,0,0-2.416-1.224,7.449,7.449,0,0,0-5.084,2.34v-2.052H125.9v20.808Zm15.9-.036h3.859v-7.956l1.767-2.664,3.894,10.656h3.859l-4.76-12.672,4.9-8.136h-4.039l-5.625,9V197.867H141.8v29.16Zm15.65-23.868h3.859v-4.032h-3.859v4.032Zm0,23.9h3.859V206.255h-3.859v20.808Zm8,0h3.859V210.287a4.532,4.532,0,0,1,2.7-1.3,1.41,1.41,0,0,1,1.3.576,3.4,3.4,0,0,1,.361,1.764v15.732h3.859V210.215a5.866,5.866,0,0,0-.722-3.024,2.581,2.581,0,0,0-2.416-1.224,7.447,7.447,0,0,0-5.084,2.34v-2.052h-3.859v20.808Zm21.24,6.444q7.248,0,7.248-5.184a5.042,5.042,0,0,0-1.19-3.6,5.486,5.486,0,0,0-3.642-1.476l-3.245-.288a3.333,3.333,0,0,1-1.317-.306,0.7,0.7,0,0,1-.414-0.63,3.2,3.2,0,0,1,.685-1.584,8.168,8.168,0,0,0,1.983.252q3.1,0,4.436-1.89a9.106,9.106,0,0,0,1.334-5.31,12.217,12.217,0,0,0-.2-2.016,9.808,9.808,0,0,0-.451-1.8,5.457,5.457,0,0,1,1.532-.72,14.762,14.762,0,0,1,2-.612l-0.974-2.484-0.577.252a8.074,8.074,0,0,0-1.749,1.1,5.379,5.379,0,0,0-1.064,1.062,3.7,3.7,0,0,0-1.586-1.728,5.594,5.594,0,0,0-2.7-.576,5.251,5.251,0,0,0-4.381,1.89,8.755,8.755,0,0,0-1.5,5.526,10.15,10.15,0,0,0,.595,3.834,5.671,5.671,0,0,0,1.821,2.358,11.863,11.863,0,0,0-1.767,1.908,3.243,3.243,0,0,0-.541,1.872,2.006,2.006,0,0,0,.523,1.332,3.035,3.035,0,0,0,1.5.9,6.242,6.242,0,0,0-2.146,1.62,3.576,3.576,0,0,0-.847,2.376,3.145,3.145,0,0,0,1.8,2.97,10.377,10.377,0,0,0,4.832.954h0Zm0.108-15.516a1.979,1.979,0,0,1-2-1.188,8.779,8.779,0,0,1-.523-3.42,9.209,9.209,0,0,1,.523-3.618,2.021,2.021,0,0,1,2.037-1.134,1.917,1.917,0,0,1,1.984,1.134,10.205,10.205,0,0,1,.468,3.618,9.593,9.593,0,0,1-.468,3.528,1.963,1.963,0,0,1-2.02,1.08h0Zm0.18,12.492a6.422,6.422,0,0,1-2.866-.45,1.512,1.512,0,0,1-.812-1.422,2.171,2.171,0,0,1,.4-1.26,9.966,9.966,0,0,1,1.154-1.332l3.281,0.288a4.4,4.4,0,0,1,2.236.63,1.789,1.789,0,0,1,.613,1.494,1.633,1.633,0,0,1-.973,1.566,7.128,7.128,0,0,1-3.03.486h0Zm19.473-3.42h3.858V209.1h3.174v-2.844h-3.174v-1.728a4.623,4.623,0,0,1,.343-2.034,1.409,1.409,0,0,1,1.388-.666,5.942,5.942,0,0,1,1.443.18V199.2a12.945,12.945,0,0,0-2.524-.252,4.842,4.842,0,0,0-2.867.72,3.435,3.435,0,0,0-1.317,2.034,15.025,15.025,0,0,0-.324,3.474v1.08H203.97V209.1h2.488v17.964Zm12.116,0.288a7.442,7.442,0,0,0,5.085-2.34v2.052h3.858V206.255h-3.858v16.776a4.536,4.536,0,0,1-2.7,1.3,1.392,1.392,0,0,1-1.3-.594,3.493,3.493,0,0,1-.361-1.782v-15.7h-3.858V223.1a5.861,5.861,0,0,0,.721,3.024,2.577,2.577,0,0,0,2.416,1.224h0Zm18.427,0a18.107,18.107,0,0,0,2.668-.216v-2.844a9.016,9.016,0,0,1-1.406.108,1.846,1.846,0,0,1-1.515-.5,2.936,2.936,0,0,1-.4-1.764v-13.32h3.353v-2.556h-3.353v-6.084h-3.859v6.084h-2.2v2.556h2.2v13.572q0,4.968,4.508,4.968h0Zm8.546,0a7.442,7.442,0,0,0,5.085-2.34v2.052h3.858V206.255h-3.858v16.776a4.536,4.536,0,0,1-2.705,1.3,1.392,1.392,0,0,1-1.3-.594,3.493,3.493,0,0,1-.361-1.782v-15.7H242.41V223.1a5.861,5.861,0,0,0,.721,3.024,2.577,2.577,0,0,0,2.416,1.224h0Zm12.982-.288h3.858V211.871a4.62,4.62,0,0,1,1.425-1.566,3.156,3.156,0,0,1,1.677-.45,6.109,6.109,0,0,1,2.127.432v-4.248A5.171,5.171,0,0,0,267,206a4.405,4.405,0,0,0-2.4.72,7.559,7.559,0,0,0-2.218,2.484v-2.952h-3.858v20.808Zm17.237,0.288a5.435,5.435,0,0,0,4.472-1.728,7.763,7.763,0,0,0,1.406-5v-0.792h-3.75v1.26a5.885,5.885,0,0,1-.433,2.574,1.687,1.687,0,0,1-1.659.846,1.982,1.982,0,0,1-1.785-.846,5.152,5.152,0,0,1-.559-2.754v-4.176h8.222v-1.692a24.824,24.824,0,0,0-.415-5.094,5.036,5.036,0,0,0-1.695-2.934,5.916,5.916,0,0,0-3.8-1.044q-3.462,0-4.814,2t-1.353,6.318v4.752a16.689,16.689,0,0,0,.541,4.68,4.859,4.859,0,0,0,1.876,2.718,6.556,6.556,0,0,0,3.75.918h0Zm-2.308-12.708v-1.116a17.142,17.142,0,0,1,.18-2.862,2.432,2.432,0,0,1,.667-1.422,2.084,2.084,0,0,1,1.425-.432,1.717,1.717,0,0,1,1.749.918,8.016,8.016,0,0,1,.415,3.042v1.872h-4.436ZM285,227.063h3.859v-4.284H285v4.284Z" transform="translate(-85.281 -157.656)"/>
</svg>
