<?xml version="1.0" encoding="utf-8"?>
<!-- Generator: Adobe Illustrator 21.0.2, SVG Export Plug-In . SVG Version: 6.00 Build 0)  -->
<svg version="1.1" id="タイトル" xmlns="http://www.w3.org/2000/svg" xmlns:xlink="http://www.w3.org/1999/xlink" x="0px"
	 y="0px" viewBox="0 0 248.2 47.8" style="enable-background:new 0 0 248.2 47.8;" xml:space="preserve">
<path id="Privacy_Policy" d="M0,40.5h5.7V21.7h4.4c3.2,0,5.7-0.9,7.4-2.8c1.7-1.8,2.6-4.4,2.5-7.7c0-3.7-0.8-6.5-2.4-8.4
	C16.1,1,13.6,0,10.1,0H0V40.5z M5.7,17.6V4.1h2.6c1.4-0.1,2.8,0.1,4.2,0.6c0.9,0.4,1.5,1.1,1.8,2c0.4,1.5,0.5,3,0.5,4.6
	c0.1,1.3-0.1,2.7-0.6,3.9c-0.4,0.9-1.1,1.6-2,1.9c-1.2,0.4-2.6,0.6-3.9,0.5C8.3,17.6,5.7,17.6,5.7,17.6z M23.7,40.5H29V19.4
	c0.5-0.9,1.2-1.6,2-2.2c0.7-0.4,1.5-0.6,2.3-0.6c1,0,2,0.2,3,0.6v-5.9c-0.3,0-0.6-0.1-0.8-0.1c-1.2,0-2.3,0.4-3.3,1
	c-1.3,0.9-2.3,2.1-3.1,3.4v-4.1h-5.4C23.7,11.6,23.7,40.5,23.7,40.5z M40,7.3h5.3V1.7H40V7.3z M40,40.5h5.3V11.6H40V40.5z
	 M54.8,40.5h6.6l5.5-28.9h-5.2L58,34.8l-3.5-23.2h-5.4L54.8,40.5z M75.5,40.9c1.4,0.1,2.7-0.4,3.8-1.3c1-0.9,1.7-2,2.1-3.3
	c0.1,0.9,0.3,2.4,0.7,4.2h4.9c-0.3-2.3-0.5-4.6-0.5-7V20.4c0-3.1-0.6-5.4-1.9-6.9c-1.3-1.5-3.3-2.3-6-2.3c-2.9,0-5.1,0.8-6.5,2.3
	s-2.1,3.9-2.2,7.1l5.3,0.2v-1.5c0-2.7,1-4.1,3.1-4.1c0.9-0.1,1.9,0.3,2.3,1.2c0.5,1.3,0.7,2.7,0.6,4v2c-2.1,0.8-4.2,1.8-6.2,2.9
	c-1.5,0.8-2.8,2-3.7,3.4c-1,1.7-1.5,3.6-1.4,5.5c0,1.1,0.3,2.2,0.8,3.2c0.5,1,1.2,1.9,2.1,2.5C73.4,40.6,74.4,40.9,75.5,40.9
	C75.5,40.9,75.5,40.9,75.5,40.9z M77.6,36.3c-0.8,0-1.5-0.3-1.9-1c-0.5-0.8-0.7-1.8-0.7-2.8c0-1,0.2-1.9,0.8-2.8
	c0.5-0.8,1.2-1.5,1.9-2c1.1-0.8,2.2-1.5,3.3-2.1v8.2c-0.4,0.6-0.9,1.1-1.4,1.6C79.1,36,78.4,36.3,77.6,36.3
	C77.6,36.3,77.6,36.3,77.6,36.3z M99.5,40.9c3,0,5-0.8,6.2-2.3s1.7-3.9,1.7-7v-2h-4.8V32c0.1,1.3-0.1,2.6-0.6,3.8
	c-0.5,0.9-1.4,1.4-2.4,1.2c-0.7,0-1.4-0.1-1.9-0.5c-0.5-0.5-0.9-1.1-1-1.8c-0.2-1.3-0.3-2.5-0.3-3.8v-9.1c0-1.3,0.1-2.6,0.2-4
	c0.1-0.7,0.4-1.4,0.9-1.9c0.6-0.4,1.3-0.7,2-0.6c0.9-0.1,1.9,0.3,2.4,1.1c0.5,1.3,0.7,2.6,0.6,4V22h4.8v-1.7
	c0.1-1.7-0.2-3.5-0.7-5.1c-0.4-1.3-1.3-2.3-2.4-3c-1.5-0.7-3.2-1.1-4.8-1c-1.8-0.1-3.7,0.4-5.2,1.3c-1.3,0.9-2.2,2.3-2.5,3.8
	c-0.5,2.1-0.7,4.2-0.7,6.4v6.7c0,2.1,0.2,4.2,0.7,6.3c0.4,1.5,1.3,2.9,2.5,3.8C95.8,40.5,97.6,41,99.5,40.9
	C99.5,40.9,99.5,40.9,99.5,40.9z M111.7,47.8h0.7c2.2,0.1,4.3-0.3,6.3-1.3c1.6-1,2.6-2.5,2.9-4.3l6.9-30.5h-5.4l-3.8,21.6l-3.9-21.6
	H110l5.8,24.6c0.5,1.7,0.8,3.5,1.1,5.3c0.1,0.8-0.4,1.5-1.1,1.7c-1.3,0.4-2.7,0.5-4.1,0.5C111.7,43.7,111.7,47.8,111.7,47.8z
	 M143.6,40.5h5.6V21.7h4.4c3.2,0,5.7-0.9,7.4-2.8s2.5-4.4,2.6-7.7c0-3.7-0.8-6.5-2.4-8.4C159.7,1,157.2,0,153.7,0h-10.1V40.5z
	 M149.3,17.6V4.1h2.6c1.4-0.1,2.8,0.1,4.2,0.6c0.9,0.4,1.5,1.1,1.8,2c0.4,1.5,0.5,3,0.4,4.6c0.1,1.3-0.1,2.7-0.6,3.9
	c-0.4,0.9-1.1,1.6-2,1.9c-1.2,0.4-2.6,0.6-3.9,0.5L149.3,17.6L149.3,17.6z M175.1,40.9c3,0,5.2-0.9,6.5-2.7c1.3-1.8,1.9-4.5,1.9-7.9
	v-8.4c0-3.5-0.6-6.1-1.9-7.9c-1.3-1.8-3.4-2.7-6.5-2.7c-3.1,0-5.2,0.9-6.5,2.7s-1.9,4.5-1.9,7.9v8.4c0,3.5,0.6,6.1,1.9,7.9
	C169.9,40,172.1,40.9,175.1,40.9C175.1,40.9,175.1,40.9,175.1,40.9z M175.1,37c-0.8,0.1-1.6-0.2-2.1-0.8c-0.5-0.6-0.8-1.3-0.8-2.1
	c-0.1-1.1-0.2-2.3-0.1-3.4v-9.1c0-1.1,0-2.3,0.1-3.4c0.1-0.8,0.4-1.5,0.8-2.1c0.5-0.6,1.3-0.9,2.1-0.9c0.8-0.1,1.6,0.2,2.1,0.9
	c0.5,0.6,0.7,1.4,0.8,2.1c0.1,1.1,0.2,2.3,0.1,3.4v9.1c0,1.1,0,2.3-0.1,3.4c-0.1,0.8-0.3,1.5-0.8,2.1C176.7,36.7,175.9,37,175.1,37
	C175.1,36.9,175.1,36.9,175.1,37z M188.9,40.5h5.4V0h-5.4V40.5z M200.2,7.3h5.4V1.7h-5.4C200.2,1.7,200.2,7.3,200.2,7.3z
	 M200.2,40.5h5.4V11.6h-5.4V40.5z M219.2,40.9c3,0,5-0.8,6.2-2.3s1.7-3.9,1.7-7v-2h-4.9V32c0.1,1.3-0.1,2.6-0.6,3.8
	c-0.5,0.9-1.4,1.4-2.4,1.2c-0.7,0-1.4-0.1-1.9-0.5c-0.5-0.5-0.9-1.1-1-1.8c-0.2-1.3-0.3-2.5-0.3-3.8v-9.1c0-1.3,0.1-2.6,0.2-4
	c0.1-0.7,0.4-1.4,0.9-1.9c0.6-0.4,1.3-0.7,2-0.6c0.9-0.1,1.9,0.3,2.4,1.1c0.5,1.3,0.7,2.6,0.6,4V22h4.9v-1.7
	c0.1-1.7-0.2-3.5-0.7-5.1c-0.4-1.3-1.3-2.3-2.4-3c-1.5-0.7-3.2-1.1-4.8-1c-1.8-0.1-3.7,0.4-5.2,1.3c-1.3,0.9-2.2,2.3-2.5,3.8
	c-0.5,2.1-0.7,4.2-0.7,6.4v6.7c0,2.1,0.2,4.2,0.7,6.3c0.4,1.5,1.3,2.9,2.5,3.8C215.6,40.5,217.4,41,219.2,40.9
	C219.2,40.9,219.2,40.9,219.2,40.9z M231.4,47.8h0.6c2.2,0.1,4.3-0.3,6.3-1.3c1.6-1,2.6-2.5,2.9-4.3l6.9-30.5h-5.4l-3.8,21.6
	l-3.9-21.6h-5.4l5.8,24.6c0.5,1.7,0.8,3.5,1.1,5.3c0.1,0.8-0.4,1.5-1.1,1.7c-1.3,0.4-2.7,0.5-4.1,0.5L231.4,47.8L231.4,47.8z"/>
</svg>
