<svg xmlns="http://www.w3.org/2000/svg" width="151.094" height="40.906" viewBox="0 0 151.094 40.906">
  <defs>
    <style>
      .cls-1 {
        fill-rule: evenodd;
      }
    </style>
  </defs>
  <path id="portfolio_main_title_en.svg" class="cls-1" d="M224.759,123.5h5.65v-18.85h4.45q4.85,0,7.4-2.75t2.55-7.7q0-5.5-2.375-8.35T234.809,83h-10.05v40.5Zm5.65-22.9V87.054h2.65a10.764,10.764,0,0,1,4.175.6,3.172,3.172,0,0,1,1.775,2.05,16.691,16.691,0,0,1,.45,4.55,9.946,9.946,0,0,1-.6,3.9,3.509,3.509,0,0,1-1.975,1.9,10.793,10.793,0,0,1-3.875.55h-2.6Zm25.85,23.3q4.549,0,6.475-2.725t1.925-7.925v-8.4q0-5.2-1.925-7.925T256.259,94.2q-4.6,0-6.525,2.725t-1.925,7.925v8.4q0,5.2,1.925,7.925t6.525,2.725h0Zm0-3.95a2.548,2.548,0,0,1-2.125-.85,4.081,4.081,0,0,1-.825-2.1,30.056,30.056,0,0,1-.15-3.4v-9.05a30.763,30.763,0,0,1,.15-3.425A4.114,4.114,0,0,1,254.134,99a2.55,2.55,0,0,1,2.125-.85,2.479,2.479,0,0,1,2.1.85,4.246,4.246,0,0,1,.8,2.125,30.763,30.763,0,0,1,.15,3.425v9.05a30.056,30.056,0,0,1-.15,3.4,4.212,4.212,0,0,1-.8,2.1,2.477,2.477,0,0,1-2.1.85h0Zm13.449,3.55h5.35V102.4a6.39,6.39,0,0,1,1.975-2.175,4.376,4.376,0,0,1,2.325-.625,8.457,8.457,0,0,1,2.95.6V94.3a6.97,6.97,0,0,0-.85-0.05,6.105,6.105,0,0,0-3.325,1,10.473,10.473,0,0,0-3.075,3.45V94.6h-5.35v28.9Zm23.6,0.4a25.062,25.062,0,0,0,3.7-.3v-3.95a12.48,12.48,0,0,1-1.95.15,2.561,2.561,0,0,1-2.1-.7,4.079,4.079,0,0,1-.55-2.45v-18.5h4.65V94.6h-4.65v-8.45h-5.35V94.6h-3.05v3.55h3.05V117q0,6.9,6.25,6.9h0Zm9.4-.4h5.35V98.554h4.4V94.6h-4.4V92.2a6.437,6.437,0,0,1,.475-2.825,1.954,1.954,0,0,1,1.925-.925,8.232,8.232,0,0,1,2,.25V84.8a17.847,17.847,0,0,0-3.5-.35,6.7,6.7,0,0,0-3.975,1,4.769,4.769,0,0,0-1.825,2.825,20.863,20.863,0,0,0-.45,4.825v1.5h-3.45v3.95h3.45V123.5Zm20.6,0.4q4.548,0,6.475-2.725t1.925-7.925v-8.4q0-5.2-1.925-7.925T323.308,94.2q-4.6,0-6.525,2.725t-1.925,7.925v8.4q0,5.2,1.925,7.925t6.525,2.725h0Zm0-3.95a2.547,2.547,0,0,1-2.125-.85,4.081,4.081,0,0,1-.825-2.1,30.056,30.056,0,0,1-.15-3.4v-9.05a30.763,30.763,0,0,1,.15-3.425A4.114,4.114,0,0,1,321.183,99a2.548,2.548,0,0,1,2.125-.85,2.479,2.479,0,0,1,2.1.85,4.256,4.256,0,0,1,.8,2.125,30.763,30.763,0,0,1,.15,3.425v9.05a30.056,30.056,0,0,1-.15,3.4,4.222,4.222,0,0,1-.8,2.1,2.477,2.477,0,0,1-2.1.85h0Zm13.8,3.55h5.35V83h-5.35v40.5Zm11.3-33.2h5.35V84.7h-5.35v5.6Zm0,33.2h5.35V94.6h-5.35v28.9Zm19.05,0.4q4.549,0,6.475-2.725t1.925-7.925v-8.4q0-5.2-1.925-7.925T367.456,94.2q-4.6,0-6.525,2.725t-1.925,7.925v8.4q0,5.2,1.925,7.925t6.525,2.725h0Zm0-3.95a2.548,2.548,0,0,1-2.125-.85,4.081,4.081,0,0,1-.825-2.1,30.056,30.056,0,0,1-.15-3.4v-9.05a30.763,30.763,0,0,1,.15-3.425A4.114,4.114,0,0,1,365.331,99a2.55,2.55,0,0,1,2.125-.85,2.479,2.479,0,0,1,2.1.85,4.246,4.246,0,0,1,.8,2.125,30.763,30.763,0,0,1,.15,3.425v9.05a30.056,30.056,0,0,1-.15,3.4,4.212,4.212,0,0,1-.8,2.1,2.477,2.477,0,0,1-2.1.85h0Z" transform="translate(-224.75 -83)"/>
</svg>
