<?xml version="1.0" encoding="utf-8"?>
<!-- Generator: Adobe Illustrator 21.0.2, SVG Export Plug-In . SVG Version: 6.00 Build 0)  -->
<svg version="1.1" id="レイヤー_1" xmlns="http://www.w3.org/2000/svg" xmlns:xlink="http://www.w3.org/1999/xlink" x="0px"
	 y="0px" viewBox="0 0 161.8 40.5" style="enable-background:new 0 0 161.8 40.5;" xml:space="preserve">
<style type="text/css">
	.st0{enable-background:new    ;}
</style>
<g class="st0">
	<path d="M0.8,0h5.6l7.1,32.8L20.7,0h5.5l0.8,40.5h-4.5l-0.5-29.4l-6.9,29.4h-3.2L5.1,11.1L4.6,40.5H0L0.8,0z"/>
	<path d="M35.4,39.6c-1.2-0.8-2.1-2.1-2.6-3.8c-0.5-1.7-0.8-3.8-0.8-6.5v-6.6c0-4,0.6-6.9,1.9-8.8s3.5-2.8,6.7-2.8
		c2.3,0,4.1,0.5,5.3,1.4c1.2,1,2,2.3,2.4,4.1c0.4,1.8,0.6,4.1,0.6,7.1v2.4H37.4V32c0,1.8,0.3,3,0.8,3.8c0.5,0.8,1.3,1.2,2.5,1.2
		c1.1,0,1.9-0.4,2.3-1.2c0.4-0.8,0.6-2,0.6-3.6v-1.8h5.2v1.1c0,3-0.6,5.4-1.9,7c-1.3,1.6-3.4,2.4-6.2,2.4
		C38.4,40.9,36.7,40.5,35.4,39.6z M43.6,23.2v-2.6c0-2-0.2-3.4-0.6-4.2c-0.4-0.8-1.2-1.3-2.4-1.3c-0.9,0-1.5,0.2-2,0.6
		c-0.5,0.4-0.8,1.1-0.9,2c-0.2,0.9-0.2,2.2-0.2,4v1.5H43.6z"/>
	<path d="M53.7,11.6h5v2.8c1-1.1,2-1.9,3.2-2.4c1.1-0.5,2.4-0.8,3.6-0.8c2.5,0,4,1.2,4.7,3.6c2-2.4,4.4-3.6,7.2-3.6
		c1.5,0,2.7,0.5,3.7,1.6c0.9,1.1,1.4,2.8,1.4,5v22.7h-4.9V18.2c0-1.3-0.2-2.3-0.6-2.8c-0.4-0.5-1.1-0.8-1.9-0.8
		c-0.7,0-1.5,0.2-2.3,0.6c-0.8,0.4-1.5,1-2.2,1.7v0.8v22.7h-4.9V18.2c0-1.3-0.2-2.3-0.7-2.8c-0.4-0.5-1-0.8-1.8-0.8
		c-0.7,0-1.5,0.2-2.2,0.6c-0.8,0.4-1.6,1-2.2,1.7v23.5h-5V11.6z"/>
	<path d="M93.1,38.4v2.1h-5.4V0h5.4v13.9c1.6-1.8,3.4-2.7,5.4-2.7c2.6,0,4.4,1.1,5.3,3.4c0.9,2.2,1.3,4.7,1.3,7.5v7
		c0,7.9-2.4,11.9-7.2,11.9C96.3,40.9,94.7,40.1,93.1,38.4z M99.3,34.8c0.3-1.2,0.5-3.2,0.5-5.8v-7c0-2.1-0.2-3.8-0.6-4.9
		s-1.2-1.7-2.5-1.7c-1.2,0-2.4,0.5-3.6,1.4v18.6c1.1,0.9,2.4,1.3,3.8,1.3C98.2,36.7,99,36.1,99.3,34.8z"/>
	<path d="M112.8,39.6c-1.2-0.8-2.1-2.1-2.6-3.8c-0.5-1.7-0.8-3.8-0.8-6.5v-6.6c0-4,0.6-6.9,1.9-8.8s3.5-2.8,6.7-2.8
		c2.3,0,4.1,0.5,5.3,1.4c1.2,1,2,2.3,2.4,4.1c0.4,1.8,0.6,4.1,0.6,7.1v2.4h-11.4V32c0,1.8,0.3,3,0.8,3.8c0.5,0.8,1.3,1.2,2.5,1.2
		c1.1,0,1.9-0.4,2.3-1.2c0.4-0.8,0.6-2,0.6-3.6v-1.8h5.2v1.1c0,3-0.6,5.4-1.9,7c-1.3,1.6-3.4,2.4-6.2,2.4
		C115.8,40.9,114.1,40.5,112.8,39.6z M121,23.2v-2.6c0-2-0.2-3.4-0.6-4.2c-0.4-0.8-1.2-1.3-2.4-1.3c-0.9,0-1.5,0.2-2,0.6
		c-0.5,0.4-0.8,1.1-0.9,2c-0.2,0.9-0.2,2.2-0.2,4v1.5H121z"/>
	<path d="M131.2,11.6h5.4v4.1c1-1.6,2-2.8,3.1-3.5c1-0.7,2.2-1,3.3-1c0.3,0,0.6,0,0.9,0v5.9c-1.1-0.4-2-0.6-3-0.6
		c-0.9,0-1.6,0.2-2.3,0.6c-0.7,0.4-1.3,1.1-2,2.2v21.1h-5.4V11.6z"/>
	<path d="M148.2,38.7c-1.4-1.5-2.3-3.4-2.5-5.9l4.5-1.3c0.3,1.9,0.7,3.2,1.4,4.1c0.6,0.9,1.6,1.4,2.8,1.4c0.9,0,1.7-0.3,2.2-0.8
		c0.5-0.5,0.8-1.3,0.8-2.2c0-0.8-0.2-1.6-0.5-2.2c-0.4-0.7-1-1.4-1.8-2.1l-5-4.2c-1.1-1-2-2-2.6-3.1c-0.6-1.1-0.9-2.4-0.9-4
		c0-2.2,0.7-4,2-5.2c1.3-1.2,3.1-1.9,5.5-1.9c2.2,0,3.9,0.7,5.2,2.1c1.2,1.4,2,3.2,2.2,5.5l-3.6,1.4c-0.2-1.6-0.6-2.9-1.2-3.7
		c-0.5-0.8-1.3-1.3-2.4-1.3c-0.9,0-1.6,0.3-2.1,0.9c-0.5,0.6-0.8,1.3-0.8,2.1c0,1.1,0.5,2,1.5,2.9l5.1,4.7c1.3,1.2,2.3,2.4,3,3.5
		c0.7,1.2,1.1,2.6,1.1,4.2c0,2.4-0.7,4.2-2.2,5.5c-1.4,1.3-3.4,1.9-5.8,1.9C151.5,40.9,149.6,40.2,148.2,38.7z"/>
</g>
</svg>
